<svg xmlns="http://www.w3.org/2000/svg" width="35.723" height="36.451" viewBox="0 0 35.723 36.451">
  <g id="Page-1" transform="translate(-42.667 -42.667)">
    <g id="support" transform="translate(42.667 42.667)">
      <path id="Path_262" data-name="Path 262" d="M32.442,14.909C31.877,9.113,28.45,0,17.861,0S3.846,9.113,3.281,14.909A5.085,5.085,0,0,0,0,19.684v2.552a5.1,5.1,0,0,0,10.206,0V19.684a5.121,5.121,0,0,0-3.189-4.72C7.381,11.61,9.168,3.645,17.861,3.645S28.323,11.61,28.687,14.963a5.1,5.1,0,0,0-3.171,4.72v2.552a5.121,5.121,0,0,0,2.9,4.593c-.765,1.44-2.716,3.39-7.509,3.973a3.661,3.661,0,1,0,.2,3.627c7.819-.893,10.316-4.921,11.1-7.29a5.085,5.085,0,0,0,3.518-4.9V19.684A5.085,5.085,0,0,0,32.442,14.909ZM6.561,22.235a1.458,1.458,0,1,1-2.916,0V19.684a1.458,1.458,0,0,1,2.916,0Zm22.6-2.552a1.458,1.458,0,1,1,2.916,0v2.552a1.458,1.458,0,1,1-2.916,0Z" transform="translate(0 0)" fill="#70c1fa" fill-rule="evenodd"/>
    </g>
  </g>
</svg>
