<svg xmlns="http://www.w3.org/2000/svg" width="25.032" height="25.032" viewBox="0 0 25.032 25.032">
  <g id="bxs-contact" transform="translate(-2.8 -2.8)">
    <path id="Path_263" data-name="Path 263" d="M25.5,4H8.526A2.263,2.263,0,0,0,6.263,6.263V9.658H4v2.263H6.263v2.263H4v2.263H6.263v2.263H4v2.263H6.263v3.395a2.263,2.263,0,0,0,2.263,2.263H25.5A1.132,1.132,0,0,0,26.632,25.5V5.132A1.132,1.132,0,0,0,25.5,4ZM16.448,7.394a3.4,3.4,0,1,1-3.395,3.395A3.407,3.407,0,0,1,16.448,7.394Zm6.79,14.712H9.658v-.849c0-2.511,3.061-5.092,6.79-5.092s6.79,2.581,6.79,5.092Z" fill="none" stroke="#ffe96e" stroke-linecap="round" stroke-linejoin="round" stroke-width="2.4"/>
  </g>
</svg>
