<svg xmlns="http://www.w3.org/2000/svg" xmlns:xlink="http://www.w3.org/1999/xlink" width="188" height="150" viewBox="0 0 188 150">
  <defs>
    <clipPath id="clip-path">
      <rect id="Rectangle_6734" data-name="Rectangle 6734" width="172" height="89" transform="translate(-0.291 -0.333)" fill="#fff"/>
    </clipPath>
  </defs>
  <g id="Group_23760" data-name="Group 23760" transform="translate(-0.22 -0.212)">
    <rect id="Rectangle_6736" data-name="Rectangle 6736" width="188" height="150" transform="translate(0.22 0.212)" fill="none"/>
    <g id="CMER_logo" data-name="CMER logo" transform="translate(7.51 31.545)" clip-path="url(#clip-path)">
      <path id="Path_55976" data-name="Path 55976" d="M23.5,38.509h7.752V7.7H39V38.509H46.75V7.7H54.5V38.509h7.752V0H23.5Z" transform="translate(20.293 -0.065)" fill="#004e7d"/>
      <path id="Path_55977" data-name="Path 55977" d="M0,38.509H38.758v-7.7H7.752V7.7H38.758V0H0Z" transform="translate(-0.532 -0.065)" fill="#004e7d"/>
      <path id="Path_55978" data-name="Path 55978" d="M71.318,51.253,74.6,49.959c1.42,3.41,2.308,5.615,2.6,6.644l-3.373,1A56.078,56.078,0,0,0,71.318,51.253Zm-5.03.588,3.58-.794A69.106,69.106,0,0,1,71.91,59.6l-3.639.559a77.463,77.463,0,0,0-1.864-8.319Zm-4.7,0h3.7c.355,4.292.533,7.761.5,10.377H62.176a56.133,56.133,0,0,0-.592-10.289Zm-5.03,3.439a77.042,77.042,0,0,1-9.616,5.438l-1.894-3.763,4.024-1.7V44.962H46.259V41.023h2.811V32.2H46.259V28.236h9.556V32.2H52.856v8.819H55.43v3.939H52.856v8.084l1.6-1.176,2.219,2.94c.266-1.058.533-2.234.769-3.44l3.905,1.088a31.032,31.032,0,0,1-5.03,11.288,9.337,9.337,0,0,0-2.959-2.381,21.43,21.43,0,0,0,2.722-4.674,8.8,8.8,0,0,1,.473-1.235ZM67,39.818H61.081v-2H67Zm0-5.585H61.081V32.381a.409.409,0,0,1,.11-.31.416.416,0,0,1,.3-.131H66.88ZM61.081,45.4V43.286H67V45.4Zm-3.876,1.5V48.49c0,.47.237.735.681.735H76.91c.326,0,.5,0,.5.294a70.967,70.967,0,0,1,0,8.437,4.487,4.487,0,0,1-1.124,2.411,2.14,2.14,0,0,1-1.42.441,38.7,38.7,0,0,1-4.32-.647l.385,4.174c4.231.323,6.923,0,8.107-1.029A5.4,5.4,0,0,0,80.9,59.866a88.176,88.176,0,0,0,.562-13.522c0-.588-.237-.911-.74-.941H70.874V43.286h8.639V39.818H70.874v-2h8.491V34.35H70.874V31.94h9.408V28.148h-22.1a.769.769,0,0,0-.833.53.759.759,0,0,0-.025.352ZM18.181,51.37V64.275h3.994v-12.7h7.485c.237,0,.355,0,.355.323v6.5c0,.5-.355.911-1.065,1.205a10.835,10.835,0,0,1-5.533-.705v4.556a14.258,14.258,0,0,0,8.639-.235,2.956,2.956,0,0,0,1.355-1.082,2.925,2.925,0,0,0,.509-1.651V48.725a.907.907,0,0,0-.264-.737.921.921,0,0,0-.742-.262H22.057v-2.94H18.063v2.94h-5.5a42.71,42.71,0,0,0,3.994-4.145.383.383,0,0,1,.178-.206H36.258V39.436H19.631c.414-.647.828-1.293,1.3-1.97l-2.959-1.881c.621-.235,1.361-.47,2.189-.705,3.7,1.058,7.663,2.41,11.834,4.027l1.095-3.851L26.081,32.5c1.272-.559,2.663-1.205,4.112-1.911l-1.775-3.674a76.113,76.113,0,0,1-8.107,3.763A99.278,99.278,0,0,0,5.7,27.324l-.917,3.91c2.426.353,5.059.882,7.929,1.587A60.876,60.876,0,0,1,1.376,34.115l.888,3.939a53.218,53.218,0,0,0,12.6-1.676l2.308-.588c-.858,1.352-1.686,2.558-2.456,3.645H1.051v3.939H11.465a46.087,46.087,0,0,1-8.107,6.173c-1.213.559-2.4,1.176-3.61,1.764l2.219,3.5c1.45-.764,2.959-1.558,4.29-2.44V63.217h4.024v-11.2c0-.206,0-.294.325-.324Z" transform="translate(-0.754 23.79)" fill="#004e7d" fill-rule="evenodd"/>
      <path id="Path_55979" data-name="Path 55979" d="M46.974,38.509H85.732v-7.7H54.726v-7.7H85.732V15.4H54.726V7.7H85.732V0H46.974Z" transform="translate(41.104 -0.065)" fill="#004e7d"/>
      <path id="Path_55980" data-name="Path 55980" d="M109.212,0H70.454V7.7H101.46v7.7H70.454V38.509h7.752v-15.4h7.752l13.107,15.4h10.148L96.1,23.106h13.107Z" transform="translate(61.916 -0.065)" fill="#004e7d"/>
      <path id="Path_55981" data-name="Path 55981" d="M75.8,49.672a33.164,33.164,0,0,0,4.053-.176,37.528,37.528,0,0,0-.178,3.969v7.584a39.616,39.616,0,0,0,.207,4.115H75.532V63.635H54.585V65.1h-4.2c0-1.176.207-2.587.207-4.056V49.525H60V48.143H51.538a28.559,28.559,0,0,0-4.172.235V44.616a25.2,25.2,0,0,0,4.172.206H79.5a20.448,20.448,0,0,0,3.4-.206v3.733a36.433,36.433,0,0,0-4.467-.206h-8.61v1.381ZM62.1,34.621a9.653,9.653,0,0,0,2.544-.176V37H60.887a13.153,13.153,0,0,0,3.876,2.264,5.89,5.89,0,0,0-1.479,1.705,11.947,11.947,0,0,0,1.627,0v3.086a30.762,30.762,0,0,0-3.136-.147H48.52a33.563,33.563,0,0,0,0-3.381V26.89a22.8,22.8,0,0,0,3.255,0H61.3a31.585,31.585,0,0,0,3.7-.206v3.233H57.544a9.844,9.844,0,0,0-.473,1.117h4.408a11.9,11.9,0,0,0,2.6-.176V33.5a15.419,15.419,0,0,0-2.6-.176H60.473a11.214,11.214,0,0,1-.207,1.352Zm-7.278,2.263a11.923,11.923,0,0,0-1.953,0v-2.5a9.25,9.25,0,0,0,1.45,0,6.3,6.3,0,0,0-1.8-1.411,8.2,8.2,0,0,0,2.4-3.351H51.952V40.618h2.012a6.6,6.6,0,0,0-1.509-1.705,6.844,6.844,0,0,0,3.905-2.264Zm2.663-2.263a5.854,5.854,0,0,1,.148-1.352H55.71a6.859,6.859,0,0,1-1.154,1.352h2.929Zm0,22.194a11.18,11.18,0,0,0-2.633-2.469,5.4,5.4,0,0,0,4.142-2.087H54.5v4.557Zm-2.959,2.646v1.205H75.473V59.461Zm7.6-18.608a11.311,11.311,0,0,1-3.343-2.94,9.036,9.036,0,0,1-3.432,2.94ZM75.473,56.815V52.259H72.514a8.912,8.912,0,0,0,2.811,1.117c-.385,2.234-.976,2.528-4.882,2.528-3.373,0-4.26-.411-4.26-2.028V52.259H63.076a7.112,7.112,0,0,1-5,4.557ZM66.124,48.29H63.609a8.8,8.8,0,0,1,0,1.381h2.6Zm4.645-18.432a4.543,4.543,0,0,1-1.361,3.087A7.015,7.015,0,0,1,67.455,34.3h9.438a9.833,9.833,0,0,0,2.367-.176l1.8,1.94a5.893,5.893,0,0,0-.74.735,23.442,23.442,0,0,1-3.787,3.528,26.218,26.218,0,0,0,6.568,1.088,11.73,11.73,0,0,0-1.627,3.263,27.892,27.892,0,0,1-8.166-2.381,26.233,26.233,0,0,1-6.568,2.263,13.95,13.95,0,0,0-1.479-3.116,21.93,21.93,0,0,0,4.97-1.176,13.49,13.49,0,0,1-2.959-3.292,9.147,9.147,0,0,0-1.746,0v-2.94a4.375,4.375,0,0,0,1.065,0,8.348,8.348,0,0,0-1.775-2.5,4.472,4.472,0,0,0,2.426-1.44,4.535,4.535,0,0,0,.8-2.469V26.508a17.384,17.384,0,0,0,2.692,0H75.3a17,17,0,0,0,2.633,0,9.238,9.238,0,0,0-.178,2.087v1.558c0,.588,0,.617,1.154.617s1.45,0,1.568-2.645a8.916,8.916,0,0,0,2.959,1.058c-.148,1.97-.5,2.94-1.124,3.557s-1.479.676-4.32.676-3.373-.264-3.373-1.97V29.653ZM69.763,52.67c0,.706.178.852,1.331.852s1.243-.147,1.331-1.264H69.763Zm.947-15.756a8.245,8.245,0,0,0,2.485,1.97,17.754,17.754,0,0,0,2.959-1.97Z" transform="translate(41.452 23.431)" fill="#004e7d"/>
      <path id="Path_55982" data-name="Path 55982" d="M104.038,52.184V55.8h-2.485a20.221,20.221,0,0,0,6.864,5.291,19.065,19.065,0,0,0-2.337,3.616,28.316,28.316,0,0,1-8.048-7l2.6-1.911H95.961v5.879A2.93,2.93,0,0,1,94.925,64.3a5.324,5.324,0,0,1-3.521.735,39.869,39.869,0,0,1-4.527-.176,11.2,11.2,0,0,0-1.006-4.115,25.31,25.31,0,0,0,4.379.411c1.3,0,1.509,0,1.509-1v-4.38H85.606l2.633,1.558a25.652,25.652,0,0,1-7.19,7.29,14.471,14.471,0,0,0-2.751-2.94A16.082,16.082,0,0,0,84.481,55.8H83.89a35.643,35.643,0,0,0,0-3.586V48.186a27.59,27.59,0,0,1-2.456,1.47,13.676,13.676,0,0,0-.917-2.381A38.353,38.353,0,0,1,78.682,57.5a23.23,23.23,0,0,1-3.787,7.2,16.535,16.535,0,0,0-3.2-3.351A20.936,20.936,0,0,0,76.168,49.3c-1.154.764-2.722,1.675-3.639,2.175a3.383,3.383,0,0,0-.769.47L70.517,47.51a22.7,22.7,0,0,0,5.917-2.616V40.955l-2.959,2a31.207,31.207,0,0,0-2.959-7.761l2.959-1.911A38.079,38.079,0,0,1,76.434,39.9V33.988a30.786,30.786,0,0,0-.207-5.2,37.923,37.923,0,0,0,4.911.206h8.343V28.7a11.863,11.863,0,0,0-.207-2.469h4.911a13.911,13.911,0,0,0-.178,2.469v.294h9.467a31.326,31.326,0,0,0,4.882-.235V32.93a38.009,38.009,0,0,0-4.408-.176H95.073c-.325,1.029-.444,1.47-.68,2.117h9.172a27,27,0,0,0,4.112-.206v4a24.058,24.058,0,0,0-3.965-.206H98.357a13.728,13.728,0,0,0,2.959,3.2,11.78,11.78,0,0,0,2.722-3.087l3.2,2.087a41.229,41.229,0,0,1-2.959,2.94,20.786,20.786,0,0,0,4.823,2,15.234,15.234,0,0,0-1.716,3.88,26.105,26.105,0,0,1-3.4-1.676ZM80.99,38.691V45.6a17.471,17.471,0,0,0,3.432-2.087,16.017,16.017,0,0,0-2.959-2.5l2.485-2.146A25.921,25.921,0,0,1,86.7,41.4a15.18,15.18,0,0,0,2.219-2.94H85.546a24.162,24.162,0,0,0-3.669.176v-3.91a32.954,32.954,0,0,0,3.846,0h4.911a16.4,16.4,0,0,0,.68-2.117H81.02Zm7.042,9.025h12.012V45.981H88.032Zm0,4.762h12.012V50.685H88.032Zm9.556-9.818a20.577,20.577,0,0,1-2.959-4.174H93.091a25.29,25.29,0,0,1-2.663,4.174Z" transform="translate(61.972 23.182)" fill="#004e7d"/>
    </g>
  </g>
</svg>
