<svg xmlns="http://www.w3.org/2000/svg" xmlns:xlink="http://www.w3.org/1999/xlink" width="505.511" height="150" viewBox="0 0 505.511 150">
  <defs>
    <linearGradient id="linear-gradient" x1="0.5" y1="1" x2="0.5" gradientUnits="objectBoundingBox">
      <stop offset="0.13" stop-color="#c7c8c8"/>
      <stop offset="0.23" stop-color="#9d9d9e"/>
      <stop offset="0.25" stop-color="#acacad"/>
      <stop offset="0.3" stop-color="#d0d0d0"/>
      <stop offset="0.34" stop-color="#e5e5e6"/>
      <stop offset="0.36" stop-color="#eee"/>
      <stop offset="0.39" stop-color="#e0dfdf"/>
      <stop offset="0.44" stop-color="#bbb9b8"/>
      <stop offset="0.5" stop-color="#807b7a"/>
      <stop offset="0.58" stop-color="#2d2523"/>
      <stop offset="0.65" stop-color="#3d3a39"/>
      <stop offset="0.75" stop-color="#585757"/>
      <stop offset="0.87" stop-color="#888988"/>
    </linearGradient>
    <radialGradient id="radial-gradient" cx="0.678" cy="1.039" r="1.057" gradientTransform="translate(0.001) scale(0.332 1)" gradientUnits="objectBoundingBox">
      <stop offset="0.13" stop-color="#3d3a39"/>
      <stop offset="0.25" stop-color="#585757"/>
      <stop offset="0.35" stop-color="#3d3a39"/>
      <stop offset="0.43" stop-color="#b3b3b3"/>
      <stop offset="0.48" stop-color="#ababab"/>
      <stop offset="0.59" stop-color="#9d9d9e"/>
      <stop offset="0.63" stop-color="#b9b9ba"/>
      <stop offset="0.71" stop-color="#eee"/>
      <stop offset="0.86" stop-color="#efefef"/>
      <stop offset="0.98" stop-color="#585757"/>
    </radialGradient>
    <linearGradient id="linear-gradient-2" x1="0.5" y1="1" x2="0.5" gradientUnits="objectBoundingBox">
      <stop offset="0.01" stop-color="#464342"/>
      <stop offset="0.18" stop-color="#4d4a49"/>
      <stop offset="0.23" stop-color="#626160"/>
      <stop offset="0.42" stop-color="#848383"/>
      <stop offset="0.49" stop-color="#7c7c7c"/>
      <stop offset="0.66" stop-color="#fff"/>
      <stop offset="0.82" stop-color="#dadbda"/>
      <stop offset="0.96" stop-color="#fff"/>
      <stop offset="1" stop-color="#c7c8c8"/>
    </linearGradient>
    <linearGradient id="linear-gradient-3" x1="0.5" y1="3.357" x2="0.5" y2="0.184" gradientUnits="objectBoundingBox">
      <stop offset="0.1" stop-color="#2d2523"/>
      <stop offset="0.16" stop-color="#3a3433"/>
      <stop offset="0.25" stop-color="#585757"/>
      <stop offset="0.39" stop-color="#888988"/>
      <stop offset="0.5" stop-color="#d7d8d7"/>
      <stop offset="0.54" stop-color="#acadac"/>
      <stop offset="0.58" stop-color="#919291"/>
      <stop offset="0.6" stop-color="#888988"/>
      <stop offset="0.76" stop-color="#585757"/>
      <stop offset="0.96" stop-color="#2d2523"/>
    </linearGradient>
    <linearGradient id="linear-gradient-4" y1="0.5" x2="1" y2="0.5" gradientUnits="objectBoundingBox">
      <stop offset="0.05" stop-color="#b3b3b3"/>
      <stop offset="0.14" stop-color="#b3b3b3"/>
      <stop offset="0.17" stop-color="#bdbdbd"/>
      <stop offset="0.24" stop-color="#d6d6d6"/>
      <stop offset="0.32" stop-color="#e8e8e8"/>
      <stop offset="0.4" stop-color="#f2f2f2"/>
      <stop offset="0.5" stop-color="#f6f6f6"/>
      <stop offset="0.61" stop-color="#f2f2f2"/>
      <stop offset="0.72" stop-color="#e6e7e7"/>
      <stop offset="0.82" stop-color="#d3d4d4"/>
      <stop offset="0.88" stop-color="#c7c8c8"/>
      <stop offset="0.96" stop-color="#c7c8c8"/>
    </linearGradient>
    <linearGradient id="linear-gradient-5" x1="0.226" y1="0.734" x2="0.799" y2="0.244" gradientUnits="objectBoundingBox">
      <stop offset="0.11" stop-color="#b3b3b3"/>
      <stop offset="0.21" stop-color="#b1b1b1"/>
      <stop offset="0.25" stop-color="#aaa"/>
      <stop offset="0.27" stop-color="#9e9e9e"/>
      <stop offset="0.29" stop-color="#8e8d8e"/>
      <stop offset="0.31" stop-color="#787778"/>
      <stop offset="0.32" stop-color="#717071"/>
      <stop offset="0.34" stop-color="#6b6a6b"/>
      <stop offset="0.36" stop-color="#5d5b5b"/>
      <stop offset="0.39" stop-color="#454242"/>
      <stop offset="0.4" stop-color="#3d3a39"/>
      <stop offset="0.46" stop-color="#3d3a39"/>
      <stop offset="0.47" stop-color="#474443"/>
      <stop offset="0.49" stop-color="#62605f"/>
      <stop offset="0.51" stop-color="#888988"/>
      <stop offset="0.55" stop-color="#8d8e8d"/>
      <stop offset="0.59" stop-color="#9d9e9d"/>
      <stop offset="0.64" stop-color="#b6b7b7"/>
      <stop offset="0.67" stop-color="#c7c8c8"/>
      <stop offset="0.76" stop-color="#eee"/>
    </linearGradient>
    <linearGradient id="linear-gradient-6" x1="0.774" y1="0.734" x2="0.201" y2="0.244" xlink:href="#linear-gradient-5"/>
    <linearGradient id="linear-gradient-7" y1="0.5" x2="1" y2="0.5" gradientUnits="objectBoundingBox">
      <stop offset="0.01" stop-color="#fff"/>
      <stop offset="0.08" stop-color="#fff"/>
      <stop offset="0.5" stop-color="#fff"/>
      <stop offset="0.95" stop-color="#fff"/>
      <stop offset="1" stop-color="#fff"/>
    </linearGradient>
    <linearGradient id="linear-gradient-8" x1="-0.199" y1="0.499" x2="1.199" y2="0.499" gradientUnits="objectBoundingBox">
      <stop offset="0.01" stop-color="#eee"/>
      <stop offset="0.08" stop-color="#f5f5f5"/>
      <stop offset="0.2" stop-color="#fcfcfc"/>
      <stop offset="0.5" stop-color="#fff"/>
      <stop offset="0.75" stop-color="#fbfbfb"/>
      <stop offset="0.95" stop-color="#f2f2f2"/>
      <stop offset="1" stop-color="#eee"/>
    </linearGradient>
    <linearGradient id="linear-gradient-9" x1="0.558" y1="0.485" x2="0.238" y2="0.63" gradientUnits="objectBoundingBox">
      <stop offset="0.01" stop-color="#585757"/>
      <stop offset="0.23" stop-color="#9f9fa0"/>
      <stop offset="0.43" stop-color="#afafb0"/>
      <stop offset="0.83" stop-color="#dadada"/>
      <stop offset="1" stop-color="#eee"/>
    </linearGradient>
    <linearGradient id="linear-gradient-10" x1="0.46" y1="0.489" x2="0.794" y2="0.633" xlink:href="#linear-gradient-9"/>
    <linearGradient id="linear-gradient-11" x1="0" y1="0.499" x2="1" y2="0.499" xlink:href="#linear-gradient-7"/>
    <linearGradient id="linear-gradient-12" x1="1" y1="0.499" x2="0" y2="0.499" xlink:href="#linear-gradient-7"/>
    <linearGradient id="linear-gradient-13" x1="-0.021" y1="0.5" x2="1.01" y2="0.5" gradientUnits="objectBoundingBox">
      <stop offset="0.08" stop-color="#585757"/>
      <stop offset="0.26" stop-color="#4d4a49"/>
      <stop offset="0.32" stop-color="#504e4d"/>
      <stop offset="0.39" stop-color="#5c5a5a"/>
      <stop offset="0.47" stop-color="#6f6f6f"/>
      <stop offset="0.5" stop-color="#7c7d7d"/>
      <stop offset="0.55" stop-color="#676666"/>
      <stop offset="0.61" stop-color="#585655"/>
      <stop offset="0.67" stop-color="#4f4d4c"/>
      <stop offset="0.75" stop-color="#4d4a49"/>
      <stop offset="0.93" stop-color="#585757"/>
    </linearGradient>
    <linearGradient id="linear-gradient-14" x1="0.576" y1="0.031" x2="0.405" y2="0.8" gradientUnits="objectBoundingBox">
      <stop offset="0.18" stop-color="#3d3a39"/>
      <stop offset="0.21" stop-color="#43403f"/>
      <stop offset="0.26" stop-color="#545251"/>
      <stop offset="0.3" stop-color="#706f6e"/>
      <stop offset="0.36" stop-color="#989797"/>
      <stop offset="0.39" stop-color="#b3b3b3"/>
      <stop offset="0.4" stop-color="#b9b9b9"/>
      <stop offset="0.46" stop-color="#dfdfdf"/>
      <stop offset="0.49" stop-color="#eee"/>
      <stop offset="0.56" stop-color="#f5f5f5"/>
      <stop offset="0.6" stop-color="#fff"/>
    </linearGradient>
    <linearGradient id="linear-gradient-15" y1="0.5" x2="1" y2="0.5" gradientUnits="objectBoundingBox">
      <stop offset="0.17" stop-color="#3d3a39"/>
      <stop offset="0.35" stop-color="#b3b3b3"/>
      <stop offset="0.36" stop-color="#b9b9b9"/>
      <stop offset="0.43" stop-color="#dfdfdf"/>
      <stop offset="0.47" stop-color="#eee"/>
      <stop offset="0.51" stop-color="#e5e5e6"/>
      <stop offset="0.58" stop-color="#d0d0d0"/>
      <stop offset="0.65" stop-color="#acacad"/>
      <stop offset="0.68" stop-color="#9d9d9e"/>
      <stop offset="0.95" stop-color="#3d3a39"/>
    </linearGradient>
    <linearGradient id="linear-gradient-16" x1="0.425" y1="0.036" x2="0.588" y2="0.806" xlink:href="#linear-gradient-14"/>
    <linearGradient id="linear-gradient-17" x1="0.407" y1="0.662" x2="0.966" y2="0.174" gradientUnits="objectBoundingBox">
      <stop offset="0.01" stop-color="#2d2523"/>
      <stop offset="0.63" stop-color="#3d3a39"/>
      <stop offset="0.67" stop-color="#585757"/>
      <stop offset="0.71" stop-color="#888988"/>
      <stop offset="0.8" stop-color="#888988"/>
      <stop offset="0.89" stop-color="#585757"/>
      <stop offset="1" stop-color="#3d3a39"/>
    </linearGradient>
    <linearGradient id="linear-gradient-18" x1="0.597" y1="0.655" x2="0.028" y2="0.213" xlink:href="#linear-gradient-17"/>
    <linearGradient id="linear-gradient-19" x1="1.061" y1="0.858" x2="0.045" y2="0.318" gradientUnits="objectBoundingBox">
      <stop offset="0.01" stop-color="#888988"/>
      <stop offset="0.3" stop-color="#eee"/>
      <stop offset="0.55" stop-color="#9f9fa0"/>
      <stop offset="0.61" stop-color="#8f8e8f"/>
      <stop offset="0.71" stop-color="#666464"/>
      <stop offset="0.8" stop-color="#3d3a39"/>
    </linearGradient>
    <linearGradient id="linear-gradient-20" x1="0.009" y1="0.947" x2="0.963" y2="0.322" xlink:href="#linear-gradient-19"/>
    <linearGradient id="linear-gradient-21" x1="0.5" y1="1" x2="0.5" gradientUnits="objectBoundingBox">
      <stop offset="0.07" stop-color="#2d2523"/>
      <stop offset="0.1" stop-color="#332b2a"/>
      <stop offset="0.13" stop-color="#453f3d"/>
      <stop offset="0.18" stop-color="#635f5d"/>
      <stop offset="0.23" stop-color="#8d8b8a"/>
      <stop offset="0.28" stop-color="#c7c8c8"/>
      <stop offset="0.38" stop-color="#eee"/>
      <stop offset="0.56" stop-color="#585757"/>
      <stop offset="0.8" stop-color="#acadad"/>
      <stop offset="1" stop-color="#fff"/>
    </linearGradient>
  </defs>
  <g id="Group_23776" data-name="Group 23776" transform="translate(0.413)">
    <rect id="Rectangle_6752" data-name="Rectangle 6752" width="505" height="150" transform="translate(-0.413)" fill="none"/>
    <g id="Group_23757" data-name="Group 23757" transform="translate(0 44.028)">
      <g id="logo_2_" data-name="logo (2)" transform="translate(0 0)">
        <path id="Path_55567" data-name="Path 55567" d="M175.032,16.462C159.04,6.976,128.712.15,93.639.15,67.716.15,44.328,3.95,27.4,9.61,10.618,15.225.17,24.027.17,31.191c0,5.331,6.9,12.584,18.119,17.71,16.989,7.76,44.256,13.331,75.351,13.331,34.556,0,64.742-6.977,80.921-16.241,7.983-4.574,12.557-10.2,12.557-14.8s-4.539-10.252-12.085-14.737ZM39.567,36.7a22.684,22.684,0,0,1-11.649-3.827,9.926,9.926,0,0,1-3.23-4c-2.127-5.607,3.862-9.958,8.3-12.139a78.707,78.707,0,0,1,14.159-5.09c6.1-1.548,10.795-2.6,12.806-3.052.97-.222,4.156-.8,7.475-1.3,3.684-.552,7.191-1.015,9.852-1.2,1.13-.08,2.394-.036,1.548.659a59.308,59.308,0,0,1-8.143,7.6c-7.867,6.238-17.674,14.595-25.95,20.317a9.721,9.721,0,0,1-5.179,2.02Zm79.159-.926a12.552,12.552,0,0,1-1.21,2.3c-.534.854-.979,1.5-1.629,2.4a3.079,3.079,0,0,1-2.83,1.629s-2.252.249-5.366.445c-4.325.276-10.288.418-14.008.338-2.7.1-8.4.045-12.957-.2-3.658-.2-7.28-.685-7.28-.685a3.019,3.019,0,0,1-2.26-1.566,15.981,15.981,0,0,1-1.317-1.851,15.254,15.254,0,0,1-1.184-2.1A3.357,3.357,0,0,1,68.1,34.67c0-.614,1.184-1.566,1.184-1.566l7.111-5.963,7.093-5.411c3.9-2.83,6.327-4.138,8.036-4.592a8.807,8.807,0,0,1,2.18-.285,6.8,6.8,0,0,1,2.59.587c2.029.774,5.491,2.839,13.215,8.917l8.33,6.941s.934.623,1.068,1.281a1.768,1.768,0,0,1-.2,1.193Zm43.535-6.995a9.269,9.269,0,0,1-3.106,3.978c-1.771,1.468-7.467,3.773-11.427,3.764a9.537,9.537,0,0,1-5.384-1.735c-8.276-5.722-17.994-14.1-25.852-20.335a108.611,108.611,0,0,1-8.534-7.4c-.418-.463-.427-.694.623-.712a94.526,94.526,0,0,1,12.237,1.148c2.154.329,4.565.837,6.683,1.219A144.569,144.569,0,0,1,146.4,13.6a60.4,60.4,0,0,1,7.876,3.257c4.441,2.18,10.119,6.319,7.992,11.916Z" transform="translate(-0.019 -0.017)" fill="url(#linear-gradient)"/>
        <path id="Path_55568" data-name="Path 55568" d="M175.032,16.462C159.04,6.976,128.712.15,93.639.15,67.716.15,44.328,3.95,27.4,9.61,10.618,15.225.17,24.027.17,31.191c0,5.331,6.9,12.584,18.119,17.71,16.989,7.76,44.256,13.331,75.351,13.331,34.556,0,64.742-6.977,80.921-16.241,7.983-4.574,12.557-10.2,12.557-14.8s-4.539-10.252-12.085-14.737ZM39.567,36.673c-4.485-.027-9.869-2.323-11.649-3.791a9.926,9.926,0,0,1-3.23-4c-2.127-5.607,3.862-9.958,8.3-12.139a78.707,78.707,0,0,1,14.159-5.09c6.1-1.548,10.822-2.67,12.806-3.052,1.486-.285,3.506-.659,6.959-1.184,4.592-.7,7.022-1.077,9.86-1.29.756-.062,2.661-.445,2.074.952-.1.258-2.679,2.937-8.161,7.289C62.821,20.6,53.014,28.957,44.738,34.679a9.7,9.7,0,0,1-5.179,1.993Zm79.159-.9a12.764,12.764,0,0,1-1.2,2.3c-.534.854-.979,1.5-1.629,2.4a3.079,3.079,0,0,1-2.83,1.629s-2.252.249-5.366.445c-4.325.276-10.288.418-14.008.338-2.7.1-8.4.045-12.957-.2-3.667-.2-7.28-.685-7.28-.685-1.424.071-2.26-1.566-2.26-1.566a15.983,15.983,0,0,1-1.317-1.851,15.254,15.254,0,0,1-1.184-2.1,3.357,3.357,0,0,1-.587-1.807c0-.614,1.068-1.673,1.068-1.673l7.111-5.963,7.208-5.3c3.9-2.83,6.328-4.138,8.036-4.592a8.807,8.807,0,0,1,2.18-.285,6.858,6.858,0,0,1,2.6.587c2.029.774,5.491,2.839,13.215,8.917l8.33,6.941s.934.623,1.068,1.282a1.728,1.728,0,0,1-.2,1.193Zm43.544-6.995a9.27,9.27,0,0,1-3.106,3.978c-1.771,1.468-7.467,3.773-11.427,3.764a9.537,9.537,0,0,1-5.384-1.735c-8.276-5.722-19.605-15.485-25.808-20.335a106.771,106.771,0,0,1-8.365-7.128.55.55,0,0,1,.409-.988,102.022,102.022,0,0,1,12.237,1.148c2.26.365,4.556.792,6.683,1.219a168.974,168.974,0,0,1,18.9,4.895,58.087,58.087,0,0,1,7.876,3.257c4.441,2.18,10.119,6.319,7.992,11.916Z" transform="translate(-0.019 -0.017)" fill="url(#radial-gradient)" style="mix-blend-mode: overlay;isolation: isolate"/>
        <path id="Path_55569" data-name="Path 55569" d="M104.41,1.11c35.072,0,63.995,10.822,77.024,20.86,5.74,4.414,5.286,8.73,5.286,9.727,0,0-8.214-1.308-12.2-3.293-.383-6.594-3.346-10.163-6.318-12a38.3,38.3,0,0,0-9.113-3.942A152.843,152.843,0,0,0,140.951,8.31C138.619,7.9,135.54,7.393,132.79,7c-3.417-.489-12.183-1.557-13-.427-.267.365-.1,1.086.605,1.985.587.748,9.629,9.941,10.448,10.83-5.384-3.106-20.193-16.2-26.013-16.223l-.418-2.047Z" transform="translate(-11.492 -0.122)" fill="#fff"/>
        <path id="Path_55570" data-name="Path 55570" d="M161.46,12.68c9.513,1.344,21.75,6.621,27.036,11.062,5.544,4.654,4.859,9.157,4.859,10.154,0,0-7.983-.454-12.557-4.174a11.858,11.858,0,0,0-5.971-11.106C172.566,17.228,169.38,15.19,161.46,12.68Z" transform="translate(-17.772 -1.396)" fill="#fff"/>
        <path id="Path_55571" data-name="Path 55571" d="M161.46,12.68c9.513,1.344,21.75,6.621,27.036,11.062,5.544,4.654,4.859,9.157,4.859,10.154,0,0-7.983-.454-12.557-4.174a11.858,11.858,0,0,0-5.971-11.106C172.566,17.228,169.38,15.19,161.46,12.68Z" transform="translate(-17.772 -1.396)" fill="#fff"/>
        <path id="Path_55572" data-name="Path 55572" d="M96.22,1.11c-35.072,0-63.986,10.822-77.015,20.86-5.731,4.414-5.286,8.73-5.286,9.727,0,0,8.214-1.308,12.21-3.293.383-6.594,3.337-10.163,6.319-12a38.3,38.3,0,0,1,9.113-3.942A153.1,153.1,0,0,1,59.688,8.31C62.02,7.9,65.1,7.393,67.858,7c3.4-.489,12.13-1.282,13.037-.214.418.489.151,1.086-.561,1.976-.587.748-9.709,9.727-10.537,10.617,5.384-3.106,20.2-16.2,26-16.223Z" transform="translate(-1.531 -0.122)" fill="#fff"/>
        <path id="Path_55573" data-name="Path 55573" d="M46.262,11.24C36.74,12.584,23.8,18.4,18.567,22.916c-6.043,5.215-4.859,9.166-4.859,10.154,0,0,7.751-.552,12.326-4.263.383-6.594,3.23-9.193,6.2-11.017A92.319,92.319,0,0,1,46.262,11.24Z" transform="translate(-1.499 -1.237)" fill="#fff"/>
        <path id="Path_55574" data-name="Path 55574" d="M46.262,11.24C36.74,12.584,23.8,18.4,18.567,22.916c-6.043,5.215-4.859,9.166-4.859,10.154,0,0,7.751-.552,12.326-4.263.383-6.594,3.23-9.193,6.2-11.017A92.319,92.319,0,0,1,46.262,11.24Z" transform="translate(-1.499 -1.237)" fill="#fff"/>
        <path id="Path_55575" data-name="Path 55575" d="M174.155,16.771C158.368,7.5,128.76.77,94.124.77,68.53.77,45.107,4.543,28.385,10.079,11.814,15.561,1.5,24.157,1.5,31.161c0,5.215,6.808,12.3,17.9,17.3,16.775,7.573,43.7,13.029,74.4,13.029,34.12,0,63.915-6.826,79.88-15.876,7.885-4.467,12.406-9.967,12.406-14.461s-4.476-10.021-11.925-14.39Zm-9.665,25.968C150.732,49.974,122.459,55.18,93.813,55.18,68.058,55.18,40.96,50.553,28.029,45,18.24,40.79,12.366,35.709,12.366,29.853S21.488,16.9,36.136,12.286A182.11,182.11,0,0,1,83.747,4.374c.16,0,1.913-.463,2.661-.632C88.838,3.2,91.588,2.292,94,2.292c3.088,0,7.253,1.477,8.695,1.9a9.277,9.277,0,0,0,2.269.392C131.546,5.62,152,10.853,164.526,17.848c6.585,3.675,10.555,7.965,10.555,11.872,0,4.895-3.578,9.344-10.59,13.029Z" transform="translate(-0.165 -0.085)" fill="url(#linear-gradient-2)"/>
        <path id="Path_55576" data-name="Path 55576" d="M6.028,42.309a47.872,47.872,0,0,0,14.728,9.46c1.869.774,10.305,3.978,15.191,5.251,2.661.694,8.775,2.216,14.728,3.373,4.939.961,9.771,1.62,12.272,1.9,1.486.169,9.033,1.05,16.206,1.477,7.333.436,14.648.418,14.648.418V57.874a231.687,231.687,0,0,1-31.441-2.1,230.239,230.239,0,0,1-26.119-5.215c-6.763-1.9-13.3-4.886-17.1-7.707-4.156-3.07-5.544-5.509-5.856-6.31A9.23,9.23,0,0,1,14.313,27.2,26.99,26.99,0,0,1,16.6,24.617L10.228,21.28s-1.451,1.095-3.311,2.679a17.129,17.129,0,0,0-3.56,4c-.169.276-.427.694-.676,1.157a12.484,12.484,0,0,0-.667,1.513,8.4,8.4,0,0,0-.053,5.687,21.83,21.83,0,0,0,4.067,6.007Z" transform="translate(-0.163 -2.342)" fill="#fff"/>
        <path id="Path_55577" data-name="Path 55577" d="M193,42.175s-4.174,4.476-14.791,9.407a141.757,141.757,0,0,1-15.191,5.251c-2.67.685-8.775,2.207-14.728,3.373-4.939.97-9.78,1.62-12.281,1.9-1.486.169-9.024,1.05-16.206,1.477-7.333.436-14.648.418-14.648.418V57.687a231.034,231.034,0,0,0,31.441-2.109A232.05,232.05,0,0,0,162.7,50.363c6.755-1.9,13.3-4.895,17.1-7.707,4.147-3.07,5.553-5.5,5.874-6.31,1.531-3.836.489-6.8-1.335-9.353-.7-.979-1.949-2.492-1.949-2.492l6.577-3.141a34.846,34.846,0,0,1,3.168,2.581,18.405,18.405,0,0,1,3.524,4c.178.276.32.543.5.837a10.573,10.573,0,0,1,.721,1.637,8.16,8.16,0,0,1,.151,5.776,22.014,22.014,0,0,1-4.04,5.98Z" transform="translate(-11.574 -2.351)" fill="#fff"/>
        <path id="Path_55578" data-name="Path 55578" d="M74.357,39.339a2.966,2.966,0,0,0,.311,1.237c.24.463.516,1.05.783,1.5a30.6,30.6,0,0,0,2.688,3.9,2.078,2.078,0,0,0,.854.552s-22.489,4-22.845,3.969c-.605-.071-1.166-.881-1.3-3.177L74.357,39.33Z" transform="translate(-6.037 -4.329)" fill="#fff"/>
        <g id="Group_23741" data-name="Group 23741" transform="translate(83.876 2.491)" opacity="0.8">
          <path id="Path_55579" data-name="Path 55579" d="M96.413,5.71,94.25,4.936c2.2-.623,7.048-2.136,9.914-2.136,2.572-.036,7.555,1.726,9.834,2.26l-2.109.641a17.6,17.6,0,0,0-7.725-2.492A16.114,16.114,0,0,0,96.413,5.7Z" transform="translate(-94.25 -2.799)" fill="url(#linear-gradient-3)" style="mix-blend-mode: darken;isolation: isolate"/>
        </g>
        <path id="Path_55580" data-name="Path 55580" d="M133.16,39.26a2.888,2.888,0,0,1-.285,1.29c-.338.641-.578,1.175-.765,1.486a30.748,30.748,0,0,1-2.661,3.836,2.038,2.038,0,0,1-.819.578s22.284,3.978,22.64,3.942c.605-.071,1.789-.774,1.922-3.079L133.16,39.269Z" transform="translate(-14.158 -4.321)" fill="#fff"/>
        <path id="Path_55581" data-name="Path 55581" d="M50.909,37.175a45.525,45.525,0,0,0,8.659-5.535C78.256,17.294,84.148,8.8,93.5,4.764,95.966,3.7,97.185,3.18,99.179,3.18a14.708,14.708,0,0,1,6.069,1.7c7.831,3.56,20.184,15.867,31.5,24.687a37.778,37.778,0,0,0,12.53,6.737l-4.3,7.182s-2.207-2.225-5.856-5.446c-5.464-4.823-12.868-11.151-19.81-16.686a132.321,132.321,0,0,0-13.687-9.834c-1.637-.943-4.209-2.207-6.461-2.207a12.25,12.25,0,0,0-6.141,2.082c-3.115,1.931-6.612,4.37-11.053,7.689-3.435,2.572-6.55,5.678-9.949,8.49-9.2,7.645-17.211,14.613-17.211,14.613L50.9,37.175Z" transform="translate(-5.603 -0.35)" fill="url(#linear-gradient-4)"/>
        <path id="Path_55582" data-name="Path 55582" d="M148.977,42.164c-2.821-2.768-8.615-8.259-16.357-14.524-6.185-5-11.658-10.021-20.326-15.12-.943-.552-4.512-2.643-7.164-2.661v8.223a6.641,6.641,0,0,1,2.323.374,32.383,32.383,0,0,1,7.333,4.272c4.815,3.319,9.5,7.467,12.859,10.225l1.406,1.166a7.951,7.951,0,0,1,1.282,1.157c.32.409.2.623.2.623s13.411,5.375,17.941,7.2a10.2,10.2,0,0,0,2.127.765c.133-.089-.392-.5-1.611-1.7Z" transform="translate(-11.572 -1.085)" fill="url(#linear-gradient-5)"/>
        <path id="Path_55583" data-name="Path 55583" d="M55.955,42.164C58.767,39.4,64.569,33.906,72.3,27.641c6.185-5,11.658-10.021,20.326-15.12.943-.552,4.5-2.643,7.155-2.661v8.223a6.577,6.577,0,0,0-2.314.374,32.578,32.578,0,0,0-7.333,4.272c-4.806,3.319-9.487,7.467-12.868,10.225L75.863,34.12a7.95,7.95,0,0,0-1.282,1.157c-.32.409-.258.641-.258.641S60.974,41.266,56.444,43.09a10.381,10.381,0,0,1-2.127.765c-.133-.089.392-.5,1.62-1.7Z" transform="translate(-5.976 -1.085)" fill="url(#linear-gradient-6)"/>
        <path id="Path_55584" data-name="Path 55584" d="M53.815,44.17c-.133,0,.1-.231,0-.338-.2-.214.516-.392.685-.632C56.075,40.984,90.5,9.48,98.765,9.48H100.2c3.213,0,12.334,5.366,25.7,16.49,10.012,8.33,18.991,17.042,19.472,17.674.187.231.659.24.427.427a.548.548,0,0,1-.756-.1c-3-3.533-36.256-33.986-45.609-33.986h-.018C90.391,10.4,55.781,42,54.349,44.081c-.089.125-.392.107-.534.107Z" transform="translate(-5.919 -1.043)" fill="url(#linear-gradient-7)"/>
        <g id="Group_23742" data-name="Group 23742" transform="translate(48.343 42.699)" opacity="0.95" style="mix-blend-mode: lighten;isolation: isolate">
          <path id="Path_55585" data-name="Path 55585" d="M98.488,56.078c-13.545,0-30.249-1.112-42.227-4-1.308-.311-1.388-1.157-1.753-2.341-.169-.543-.338-1.344.062-1.762a1.057,1.057,0,0,0,.311,0,1.945,1.945,0,0,0-.1,1.041c.16.934.694,2.287,1.29,2.492,12.121,2.8,27.356,3.853,42.405,3.853h.009c12.69,0,27.205-.4,40.875-3.213,2.421-.561,4.77-.392,5.509-2.545.116-.329.454-1.077.3-1.415,0,0,.383-.151.392.383a4.86,4.86,0,0,1-.988,2.67c-1.2,1.015-3.871,1.4-5.224,1.673-11.7,2.332-23.663,3.168-40.874,3.168H98.47Z" transform="translate(-54.323 -47.98)" fill="url(#linear-gradient-8)"/>
        </g>
        <g id="Group_23743" data-name="Group 23743" transform="translate(67.279 34.832)" style="mix-blend-mode: darken;isolation: isolate">
          <path id="Path_55586" data-name="Path 55586" d="M79.587,46.7A46.241,46.241,0,0,1,75.6,39.576l1.077-.436s-.338.765,1.442,3.462c1.5,2.287,2.518,3.818,3.159,3.818l-1.682.267Z" transform="translate(-75.6 -39.14)" fill="url(#linear-gradient-9)"/>
        </g>
        <g id="Group_23744" data-name="Group 23744" transform="translate(114.472 34.921)" style="mix-blend-mode: darken;isolation: isolate">
          <path id="Path_55587" data-name="Path 55587" d="M130.321,46.707a34.929,34.929,0,0,0,3.667-7.111l-.819-.356c.133.1.107.7-1.362,3.239-1.175,2.029-2.527,3.96-3.177,3.96Z" transform="translate(-128.63 -39.24)" fill="url(#linear-gradient-10)"/>
        </g>
        <g id="Group_23745" data-name="Group 23745" transform="translate(48.048 35.278)" opacity="0.5">
          <path id="Path_55588" data-name="Path 55588" d="M54.969,47.694c-.2,0-.8.454-.89.258-.116-.267-.133-.5.045-.463l19.285-7.76c.623-.32.427.32.222.534-.169.187-.142.125-1.762.756L55.93,47.347c-.062.027-.89.356-.961.356Z" transform="translate(-53.991 -39.641)" fill="url(#linear-gradient-11)"/>
        </g>
        <path id="Path_55589" data-name="Path 55589" d="M164.6,28.543s-.694,7.369-13.144,9.273c-8.615,1.317-15.093-5.17-18-7.52C124.1,22.776,107.166,8.066,101.5,5A13.639,13.639,0,0,0,95.134,3.18c-1.54,0-3.141.8-5.678,1.709C83.1,7.167,74.5,15.781,59.519,28.525c-2.919,2.483-8.686,8.063-14.844,9.469-6.683,1.522-15.5-3.391-18.208-8.383-3.222,2.154-9.656,2.955-12.4,2.154.792,9.024,16.49,14.764,23.993,16.882C53.823,53.07,82.274,56,95.8,55.65c30.062-.765,38.587-3.026,47.682-4.868,2.269-.463,8.294-2.011,16.651-4.743C175.859,40.9,176.1,34.2,176.4,30.919c-3.951,2.074-11.809-2.367-11.809-2.367ZM95.356,50.96C75.4,51.388,51.83,47.151,51.83,47.151a3.165,3.165,0,0,1-1.566-1.726c-.383-1.228-.667-1.94-.356-2.287,2.527-4.485,12.05-10.421,18.083-15.431,3.391-2.812,6.505-5.918,9.949-8.49,4.441-3.328,7.938-5.758,11.053-7.689a12.128,12.128,0,0,1,6.141-2.082c2.314,0,4.815,1.264,6.461,2.207a131.23,131.23,0,0,1,13.687,9.843c6.941,5.535,14.346,11.863,19.8,16.677,1.29,1.13,4.031,3.506,5.491,4.966.534.525.926.507.018,2.465a3.143,3.143,0,0,1-.881,1.032c-5,2.679-25.354,3.925-44.345,4.325ZM50.05,43.138c2.9-4.111,11.907-10.43,17.941-15.44Z" transform="translate(-1.549 -0.35)" fill="#fff"/>
        <g id="Group_23746" data-name="Group 23746" transform="translate(118.823 34.931)" opacity="0.5">
          <path id="Path_55590" data-name="Path 55590" d="M152.378,47.3c.2,0,.81.454.89.258.116-.267.142-.5-.045-.472l-19.285-7.751c-.614-.32-.427.32-.223.534.169.187.142.125,1.771.756l15.93,6.327c.071.027.9.356.961.356Z" transform="translate(-133.52 -39.251)" fill="url(#linear-gradient-12)"/>
        </g>
        <path id="Path_55591" data-name="Path 55591" d="M55.4,43.688c-.142,0-.116-.231-.018-.338a7.1,7.1,0,0,0,.614-.7c1.575-2.216,35.081-32.589,42.85-32.687h1.424c3.23,0,12.326,5.731,25.7,16.864,10.012,8.33,19.374,16.873,19.133,17.051a5.807,5.807,0,0,1-2.527-1.13c-1.655-3.23-34.69-32.313-42.031-32.313h-1.8c-7.734,0-40.679,30.471-42.913,32.812-.1.107-.285.436-.427.436Z" transform="translate(-6.087 -1.096)" fill="#3d3a39"/>
        <path id="Path_55592" data-name="Path 55592" d="M150.769,51.542c1.468-.32,2.118-1.006,1.931-.979,0,0-21.118-3.177-21.581-3.044-.249.071,18.9,3.542,18.9,3.542.071.027,1.29.169.748.472Z" transform="translate(-14.432 -5.23)" fill="#fff"/>
        <path id="Path_55593" data-name="Path 55593" d="M175.409,38.97a20.092,20.092,0,0,1-5.526,5.624c-3.809,2.821-10.35,5.8-17.1,7.707a234.454,234.454,0,0,1-26.111,5.215,235.775,235.775,0,0,1-31.441,2.109h-.009a235.847,235.847,0,0,1-31.441-2.109c-6.915-.881-19.5-3.578-26.111-5.215a51.956,51.956,0,0,1-17.1-7.707,21.448,21.448,0,0,1-5.251-5.179C17.027,44.692,21.121,50.744,26.4,55.3a113.678,113.678,0,0,0,11.071,3.667c2.661.694,8.775,2.216,14.728,3.373,4.939.961,9.771,1.62,12.272,1.9,1.486.169,9.033,1.05,16.206,1.477,7.315.436,14.622.418,14.648.418s7.226-.187,14.533-.623c7.182-.427,14.719-1.308,16.215-1.477,2.5-.285,7.333-.934,12.272-1.9,5.945-1.166,12.067-2.688,14.728-3.373a76.475,76.475,0,0,0,9.14-2.928c5.847-4.654,11.489-11.453,13.18-16.864Z" transform="translate(-1.685 -4.289)" fill="url(#linear-gradient-13)"/>
        <path id="Path_55594" data-name="Path 55594" d="M133.1,35.077a6.81,6.81,0,0,0,.57,3.5c.409.32,20.077,8.588,20.184,8.17.045-.3-3.8-3.373-9.932-6.995-5.651-3.337-9.869-6.835-10.813-4.681Z" transform="translate(-14.644 -3.787)" fill="#fff"/>
        <path id="Path_55595" data-name="Path 55595" d="M74.655,34.124c-.329.854-.712,3.355-.133,4.058-.409.329-19.045,8.312-19.151,7.894-.053-.222,2.8-3.124,8.935-6.737,5.651-3.337,11.222-7.4,10.341-5.215Z" transform="translate(-6.094 -3.688)" fill="#fff"/>
        <path id="Path_55596" data-name="Path 55596" d="M111.272,22.227c-.917-.614-5.366-3.667-8.027-3.667s-5.393,1.851-7.164,2.955C93.367,23.205,85.5,29.933,85.5,29.933c1.477-1.166,5.66-4.316,7.093-5.446l.739-.561c3.916-2.83,6-3.933,7.627-4.432a9.106,9.106,0,0,1,2.252-.374,8.758,8.758,0,0,1,2.385.507,32.133,32.133,0,0,1,7.333,4.289c1.949,1.344,6.559,5.064,8.392,6.532a87.056,87.056,0,0,0-10.047-8.214Z" transform="translate(-9.411 -2.043)" fill="#888988"/>
        <path id="Path_55597" data-name="Path 55597" d="M182.8,30.059a6.98,6.98,0,0,1-2.892,5.811c12.922,3.435,8.419,7.734,8.419,7.734s7.947-5.838,5.971-12.415c.4,1.531.276,2.955-1.629,2.892-4.183-.125-9.869-2.332-9.869-4.031Z" transform="translate(-19.803 -3.308)" fill="url(#linear-gradient-14)"/>
        <g id="Group_23747" data-name="Group 23747" transform="translate(40.921 5.477)">
          <path id="Path_55599" data-name="Path 55599" d="M84.674,6.248c.837.979-7.137,9.184-17.8,18.341s-19.988,15.778-20.833,14.8,7.137-9.184,17.8-18.341S83.829,5.278,84.674,6.248Z" transform="translate(-45.982 -6.154)" fill="#9d9d9e"/>
          <path id="Path_55600" data-name="Path 55600" d="M84.449,6.488c.837.97-7.03,9.068-17.558,18.1S47.161,40.163,46.342,39.2c-.837-.97,7.03-9.059,17.558-18.1S83.63,5.527,84.449,6.488Z" transform="translate(-46.015 -6.181)" fill="#9a9a9a"/>
          <path id="Path_55601" data-name="Path 55601" d="M84.231,6.73c.819.952-6.941,8.944-17.327,17.861S47.432,39.96,46.622,39.007s6.941-8.944,17.327-17.861S83.421,5.786,84.231,6.739Z" transform="translate(-46.046 -6.208)" fill="#989898"/>
          <path id="Path_55602" data-name="Path 55602" d="M84.014,6.969c.81.943-6.844,8.828-17.1,17.621S47.713,39.754,46.913,38.81s6.844-8.828,17.1-17.621S83.213,6.025,84.014,6.969Z" transform="translate(-46.078 -6.233)" fill="#959596"/>
          <path id="Path_55603" data-name="Path 55603" d="M83.786,7.219c.792.917-6.746,8.712-16.864,17.38S47.975,39.559,47.183,38.624s6.755-8.7,16.864-17.38S82.994,6.293,83.786,7.219Z" transform="translate(-46.108 -6.261)" fill="#929392"/>
          <path id="Path_55604" data-name="Path 55604" d="M83.568,7.459c.792.917-6.666,8.588-16.633,17.14S48.247,39.345,47.473,38.437c-.792-.917,6.666-8.588,16.633-17.14S82.794,6.542,83.568,7.459Z" transform="translate(-46.14 -6.288)" fill="#909090"/>
          <path id="Path_55605" data-name="Path 55605" d="M83.351,7.709c.774.9-6.568,8.463-16.393,16.9s-18.422,14.55-19.2,13.643,6.568-8.463,16.393-16.9S82.577,6.81,83.351,7.709Z" transform="translate(-46.172 -6.316)" fill="#8e8e8e"/>
          <path id="Path_55606" data-name="Path 55606" d="M83.123,7.949c.765.881-6.479,8.339-16.17,16.651S48.789,38.946,48.033,38.056,54.512,29.708,64.2,21.4,82.367,7.059,83.123,7.949Z" transform="translate(-46.202 -6.342)" fill="#8b8b8c"/>
          <path id="Path_55607" data-name="Path 55607" d="M82.906,8.189c.756.872-6.39,8.232-15.939,16.419s-17.9,14.132-18.644,13.26,6.39-8.223,15.939-16.419S82.158,7.317,82.906,8.189Z" transform="translate(-46.234 -6.369)" fill="#888989"/>
          <path id="Path_55608" data-name="Path 55608" d="M82.689,8.43c.739.863-6.292,8.107-15.7,16.179S49.352,38.536,48.613,37.673s6.292-8.107,15.7-16.179S81.95,7.566,82.689,8.43Z" transform="translate(-46.266 -6.395)" fill="#888"/>
          <path id="Path_55609" data-name="Path 55609" d="M82.461,8.68c.721.845-6.2,7.983-15.467,15.939S49.6,38.341,48.884,37.487s6.2-7.983,15.467-15.939S81.74,7.825,82.461,8.68Z" transform="translate(-46.296 -6.423)" fill="#848485"/>
          <path id="Path_55610" data-name="Path 55610" d="M82.243,8.929c.712.837-6.1,7.858-15.236,15.7S49.886,38.136,49.174,37.3s6.1-7.867,15.236-15.707S81.531,8.074,82.243,8.92Z" transform="translate(-46.328 -6.449)" fill="#818282"/>
          <path id="Path_55611" data-name="Path 55611" d="M82.025,9.17c.712.828-6.007,7.751-15.013,15.458-8.988,7.716-16.855,13.313-17.558,12.486s6.007-7.742,15.013-15.458C73.455,13.94,81.322,8.342,82.025,9.17Z" transform="translate(-46.359 -6.477)" fill="#808081"/>
          <path id="Path_55612" data-name="Path 55612" d="M81.8,9.41c.694.81-5.918,7.627-14.773,15.227s-16.6,13.1-17.291,12.29S55.652,29.291,64.506,21.7,81.1,8.6,81.8,9.41Z" transform="translate(-46.39 -6.504)" fill="gray"/>
          <path id="Path_55613" data-name="Path 55613" d="M81.58,9.651c.685.8-5.829,7.5-14.541,14.986S50.7,37.532,50.014,36.731s5.829-7.5,14.541-14.978S80.894,8.858,81.58,9.651Z" transform="translate(-46.421 -6.53)" fill="#7d7d7e"/>
          <path id="Path_55614" data-name="Path 55614" d="M81.362,9.9c.667.774-5.74,7.378-14.31,14.746C58.482,32,50.98,37.329,50.3,36.555s5.74-7.386,14.31-14.746S80.686,9.127,81.362,9.911Z" transform="translate(-46.453 -6.559)" fill="#7c7c7c"/>
          <path id="Path_55615" data-name="Path 55615" d="M81.145,10.141c.659.765-5.642,7.271-14.079,14.506s-15.805,12.477-16.473,11.7,5.642-7.262,14.079-14.5S80.478,9.366,81.145,10.141Z" transform="translate(-46.485 -6.584)" fill="#7a7a7a"/>
          <path id="Path_55616" data-name="Path 55616" d="M80.917,10.391c.65.756-5.553,7.146-13.847,14.266S51.514,36.928,50.864,36.172,56.417,29.017,64.711,21.9,80.267,9.625,80.917,10.391Z" transform="translate(-46.515 -6.612)" fill="#787879"/>
          <path id="Path_55617" data-name="Path 55617" d="M80.7,10.621c.641.748-5.455,7.022-13.607,14.025-8.17,7-15.289,12.067-15.939,11.32-.632-.748,5.455-7.022,13.607-14.025C72.931,14.946,80.05,9.873,80.7,10.621Z" transform="translate(-46.547 -6.638)" fill="#777"/>
          <path id="Path_55618" data-name="Path 55618" d="M80.474,10.871c.632.73-5.357,6.906-13.376,13.785S52.076,36.519,51.444,35.78,56.8,28.883,64.82,22,79.842,10.132,80.474,10.871Z" transform="translate(-46.578 -6.665)" fill="#757575"/>
          <path id="Path_55619" data-name="Path 55619" d="M80.256,11.111c.623.721-5.26,6.79-13.144,13.545S52.348,36.314,51.734,35.593s5.259-6.79,13.144-13.545S79.642,10.4,80.256,11.111Z" transform="translate(-46.61 -6.692)" fill="#737372"/>
          <path id="Path_55620" data-name="Path 55620" d="M80.038,11.362c.605.7-5.17,6.666-12.913,13.3S52.62,36.119,52.015,35.416s5.17-6.674,12.913-13.313S79.433,10.659,80.038,11.362Z" transform="translate(-46.641 -6.72)" fill="#737273"/>
          <path id="Path_55621" data-name="Path 55621" d="M79.811,11.6c.6.7-5.081,6.55-12.682,13.064S52.891,35.906,52.294,35.221s5.082-6.55,12.681-13.064S79.215,10.917,79.811,11.6Z" transform="translate(-46.672 -6.746)" fill="#717071"/>
          <path id="Path_55622" data-name="Path 55622" d="M79.594,11.842c.587.685-4.984,6.425-12.441,12.824S53.172,35.7,52.585,35.015,57.568,28.6,65.026,22.192,79.007,11.156,79.594,11.842Z" transform="translate(-46.704 -6.773)" fill="#6f6f70"/>
          <path id="Path_55623" data-name="Path 55623" d="M79.376,12.082c.57.667-4.895,6.31-12.219,12.584S53.434,35.5,52.865,34.829s4.895-6.31,12.219-12.584S78.806,11.415,79.376,12.082Z" transform="translate(-46.735 -6.799)" fill="#6e6e6e"/>
          <path id="Path_55624" data-name="Path 55624" d="M79.147,12.332c.552.659-4.806,6.185-11.987,12.343S53.694,35.3,53.125,34.643,57.931,28.458,65.1,22.3s13.465-10.626,14.034-9.967Z" transform="translate(-46.764 -6.827)" fill="#6d6d6d"/>
          <path id="Path_55625" data-name="Path 55625" d="M78.93,12.571c.552.65-4.717,6.069-11.756,12.112S53.986,35.1,53.425,34.455s4.717-6.069,11.756-12.112S78.37,11.922,78.93,12.562Z" transform="translate(-46.797 -6.853)" fill="#6d6c6c"/>
          <path id="Path_55626" data-name="Path 55626" d="M78.713,12.822c.543.632-4.619,5.945-11.516,11.863S54.258,34.9,53.715,34.27s4.619-5.936,11.516-11.863S78.17,12.191,78.713,12.822Z" transform="translate(-46.829 -6.881)" fill="#6b6a6a"/>
          <path id="Path_55627" data-name="Path 55627" d="M78.486,13.063c.525.623-4.521,5.829-11.284,11.631S54.529,34.706,54,34.083s4.521-5.829,11.284-11.631S77.952,12.449,78.486,13.063Z" transform="translate(-46.86 -6.908)" fill="#696969"/>
          <path id="Path_55628" data-name="Path 55628" d="M78.26,13.3c.525.605-4.423,5.7-11.044,11.391s-12.415,9.8-12.931,9.184,4.423-5.7,11.044-11.382S77.744,12.688,78.26,13.3Z" transform="translate(-46.892 -6.934)" fill="#686868"/>
          <path id="Path_55629" data-name="Path 55629" d="M78.042,13.543c.516.6-4.325,5.589-10.813,11.151s-12.156,9.593-12.664,9S58.89,28.1,65.387,22.54C71.866,16.978,77.543,12.947,78.042,13.543Z" transform="translate(-46.923 -6.961)" fill="#686767"/>
          <path id="Path_55630" data-name="Path 55630" d="M77.824,13.793c.507.578-4.245,5.473-10.581,10.911s-11.889,9.389-12.388,8.8S59.1,28.041,65.436,22.6C71.782,17.148,77.326,13.205,77.824,13.793Z" transform="translate(-46.955 -6.988)" fill="#676666"/>
          <path id="Path_55631" data-name="Path 55631" d="M77.6,14.043c.489.57-4.147,5.34-10.35,10.67S55.625,33.9,55.136,33.328s4.147-5.348,10.35-10.679S77.108,13.464,77.6,14.043Z" transform="translate(-46.986 -7.016)" fill="#666565"/>
          <path id="Path_55632" data-name="Path 55632" d="M77.379,14.283c.481.561-4.049,5.224-10.119,10.43s-11.373,8.979-11.845,8.419,4.049-5.224,10.119-10.43S76.907,13.723,77.379,14.283Z" transform="translate(-47.017 -7.043)" fill="#646464"/>
          <path id="Path_55633" data-name="Path 55633" d="M77.162,14.514c.472.552-3.96,5.117-9.887,10.2s-11.106,8.775-11.569,8.232,3.969-5.108,9.9-10.2,11.106-8.766,11.569-8.232Z" transform="translate(-47.049 -7.068)" fill="#636363"/>
          <path id="Path_55634" data-name="Path 55634" d="M76.933,14.764c.454.525-3.871,4.993-9.665,9.949s-10.839,8.57-11.3,8.036,3.871-4.984,9.656-9.949,10.839-8.561,11.3-8.036Z" transform="translate(-47.077 -7.096)" fill="#636261"/>
          <path id="Path_55635" data-name="Path 55635" d="M76.716,15.014c.445.516-3.773,4.859-9.424,9.709s-10.59,8.356-11.026,7.84,3.773-4.868,9.424-9.718S76.28,14.489,76.716,15.014Z" transform="translate(-47.111 -7.123)" fill="#636261"/>
          <path id="Path_55636" data-name="Path 55636" d="M76.5,15.254c.436.5-3.684,4.743-9.184,9.469-5.518,4.726-10.332,8.152-10.768,7.645S60.23,27.624,65.73,22.9C71.248,18.173,76.062,14.747,76.5,15.254Z" transform="translate(-47.141 -7.15)" fill="#626160"/>
          <path id="Path_55637" data-name="Path 55637" d="M76.28,15.5c.427.489-3.586,4.619-8.962,9.229S57.253,32.68,56.826,32.19s3.586-4.628,8.962-9.237S75.853,15.006,76.28,15.5Z" transform="translate(-47.172 -7.178)" fill="#605f5f"/>
          <path id="Path_55638" data-name="Path 55638" d="M76.053,15.733c.409.481-3.489,4.5-8.73,8.988-5.224,4.494-9.8,7.742-10.216,7.262s3.5-4.5,8.73-9,9.8-7.742,10.208-7.262Z" transform="translate(-47.203 -7.202)" fill="#605f5f"/>
          <path id="Path_55639" data-name="Path 55639" d="M75.837,15.984c.4.463-3.408,4.378-8.49,8.748S57.8,32.27,57.406,31.807s3.408-4.387,8.49-8.757S75.445,15.513,75.837,15.984Z" transform="translate(-47.236 -7.231)" fill="#5f5f5e"/>
          <path id="Path_55640" data-name="Path 55640" d="M75.619,16.224c.383.454-3.311,4.263-8.259,8.508s-9.282,7.333-9.674,6.879S61,27.348,65.945,23.094s9.282-7.324,9.674-6.879Z" transform="translate(-47.267 -7.257)" fill="#5f5e5d"/>
          <path id="Path_55641" data-name="Path 55641" d="M75.4,16.474c.374.445-3.222,4.147-8.036,8.267s-9.024,7.128-9.407,6.683,3.222-4.147,8.036-8.276,9.024-7.119,9.407-6.683Z" transform="translate(-47.297 -7.284)" fill="#5f5e5d"/>
          <path id="Path_55642" data-name="Path 55642" d="M75.172,16.715c.365.427-3.133,4.031-7.8,8.045s-8.757,6.906-9.131,6.479,3.133-4.031,7.8-8.036S74.8,16.288,75.172,16.715Z" transform="translate(-47.328 -7.312)" fill="#5d5c5b"/>
          <path id="Path_55643" data-name="Path 55643" d="M74.955,16.955c.356.409-3.035,3.9-7.573,7.8s-8.49,6.7-8.855,6.283,3.035-3.9,7.573-7.787S74.59,16.537,74.955,16.955Z" transform="translate(-47.36 -7.338)" fill="#5d5c5b"/>
          <path id="Path_55644" data-name="Path 55644" d="M74.738,17.194c.338.4-2.946,3.782-7.333,7.556s-8.241,6.5-8.588,6.1,2.946-3.782,7.333-7.564c4.4-3.764,8.241-6.5,8.588-6.1Z" transform="translate(-47.392 -7.364)" fill="#5c5b5b"/>
          <path id="Path_55645" data-name="Path 55645" d="M74.509,17.445c.329.383-2.848,3.667-7.111,7.315s-7.974,6.292-8.312,5.909S61.935,27,66.2,23.354s7.974-6.3,8.321-5.909Z" transform="translate(-47.422 -7.393)" fill="#5c5b5b"/>
          <path id="Path_55646" data-name="Path 55646" d="M74.284,17.686c.32.374-2.75,3.551-6.87,7.084s-7.707,6.087-8.027,5.713,2.75-3.551,6.87-7.084,7.707-6.087,8.036-5.713Z" transform="translate(-47.455 -7.419)" fill="#5c5b5b"/>
          <path id="Path_55647" data-name="Path 55647" d="M74.067,17.936c.311.365-2.661,3.426-6.63,6.835s-7.458,5.882-7.76,5.518,2.661-3.426,6.63-6.835S73.765,17.58,74.067,17.936Z" transform="translate(-47.487 -7.447)" fill="#5b5a5a"/>
          <path id="Path_55648" data-name="Path 55648" d="M73.84,18.166c.311.356-2.563,3.3-6.4,6.6-3.827,3.284-7.191,5.678-7.484,5.322-.311-.356,2.563-3.3,6.4-6.6C70.182,20.2,73.546,17.819,73.84,18.166Z" transform="translate(-47.518 -7.472)" fill="#5b5a5a"/>
          <path id="Path_55649" data-name="Path 55649" d="M73.621,18.416c.294.338-2.474,3.186-6.167,6.354s-6.933,5.464-7.226,5.135c-.294-.347,2.474-3.186,6.167-6.363S73.327,18.078,73.621,18.416Z" transform="translate(-47.548 -7.5)" fill="#5b5a5a"/>
          <path id="Path_55650" data-name="Path 55650" d="M73.4,18.656c.276.329-2.376,3.07-5.945,6.123s-6.674,5.259-6.95,4.939,2.376-3.07,5.945-6.123S73.127,18.336,73.4,18.656Z" transform="translate(-47.579 -7.527)" fill="#5a5959"/>
          <path id="Path_55651" data-name="Path 55651" d="M73.185,18.906c.267.311-2.287,2.946-5.7,5.874s-6.416,5.055-6.683,4.743,2.287-2.946,5.7-5.874S72.918,18.595,73.185,18.906Z" transform="translate(-47.611 -7.554)" fill="#5a5959"/>
          <path id="Path_55652" data-name="Path 55652" d="M72.958,19.147c.258.3-2.189,2.821-5.473,5.642s-6.149,4.85-6.408,4.556,2.189-2.821,5.473-5.642,6.149-4.85,6.4-4.556Z" transform="translate(-47.642 -7.581)" fill="#5a5959"/>
          <path id="Path_55653" data-name="Path 55653" d="M72.741,19.387c.249.285-2.1,2.705-5.233,5.4s-5.891,4.645-6.141,4.361,2.1-2.7,5.233-5.4S72.492,19.1,72.741,19.387Z" transform="translate(-47.674 -7.607)" fill="#5a5959"/>
          <path id="Path_55654" data-name="Path 55654" d="M72.523,19.626c.24.276-2,2.59-5.01,5.162s-5.624,4.441-5.865,4.165,2-2.59,5.01-5.162,5.624-4.441,5.865-4.174Z" transform="translate(-47.705 -7.633)" fill="#5a5959"/>
          <path id="Path_55655" data-name="Path 55655" d="M72.3,19.877c.222.258-1.913,2.465-4.779,4.912-2.866,2.465-5.366,4.236-5.6,3.969s1.913-2.465,4.779-4.912S72.073,19.61,72.3,19.877Z" transform="translate(-47.736 -7.662)" fill="#595858"/>
          <path id="Path_55656" data-name="Path 55656" d="M72.078,20.127c.214.24-1.824,2.341-4.548,4.672s-5.108,4.031-5.313,3.782,1.824-2.341,4.548-4.681S71.874,19.869,72.078,20.127Z" transform="translate(-47.768 -7.689)" fill="#595858"/>
          <path id="Path_55657" data-name="Path 55657" d="M71.851,20.366c.2.231-1.726,2.225-4.307,4.441S62.7,28.625,62.5,28.384s1.726-2.225,4.307-4.441,4.841-3.827,5.046-3.586Z" transform="translate(-47.798 -7.715)" fill="#595858"/>
          <path id="Path_55658" data-name="Path 55658" d="M71.635,20.607c.2.231-1.629,2.109-4.076,4.209S62.985,28.43,62.8,28.207s1.629-2.109,4.076-4.2S71.448,20.385,71.635,20.607Z" transform="translate(-47.832 -7.743)" fill="#595858"/>
          <path id="Path_55659" data-name="Path 55659" d="M71.407,20.847c.187.214-1.54,1.985-3.836,3.969s-4.325,3.408-4.5,3.195,1.54-1.985,3.836-3.96S71.229,20.634,71.407,20.847Z" transform="translate(-47.861 -7.769)" fill="#595858"/>
          <path id="Path_55660" data-name="Path 55660" d="M71.189,21.1c.178.2-1.451,1.869-3.613,3.72s-4.058,3.2-4.227,3.008,1.451-1.86,3.613-3.72S71.02,20.893,71.189,21.1Z" transform="translate(-47.892 -7.797)" fill="#595858"/>
          <path id="Path_55661" data-name="Path 55661" d="M70.971,21.338c.16.187-1.353,1.744-3.382,3.489s-3.791,3-3.951,2.812,1.353-1.744,3.382-3.489C69.04,22.424,70.811,21.16,70.971,21.338Z" transform="translate(-47.924 -7.823)" fill="#595858"/>
          <path id="Path_55662" data-name="Path 55662" d="M70.753,21.578c.151.169-1.255,1.629-3.15,3.248s-3.533,2.794-3.684,2.616,1.255-1.629,3.15-3.248S70.6,21.409,70.753,21.578Z" transform="translate(-47.955 -7.85)" fill="#595858"/>
          <path id="Path_55663" data-name="Path 55663" d="M70.526,21.828c.142.16-1.166,1.5-2.91,3.008s-3.284,2.581-3.417,2.421,1.166-1.5,2.91-3.008S70.392,21.668,70.526,21.828Z" transform="translate(-47.986 -7.878)" fill="#595858"/>
          <path id="Path_55664" data-name="Path 55664" d="M70.308,22.068c.125.142-1.068,1.388-2.688,2.759-1.6,1.379-3.017,2.376-3.141,2.234s1.068-1.388,2.688-2.768C68.768,22.914,70.183,21.917,70.308,22.068Z" transform="translate(-48.017 -7.904)" fill="#595858"/>
          <path id="Path_55665" data-name="Path 55665" d="M70.08,22.308c.125.133-.979,1.264-2.456,2.527s-2.75,2.171-2.866,2.038.979-1.264,2.456-2.527S69.965,22.175,70.08,22.308Z" transform="translate(-48.048 -7.931)" fill="#595858"/>
          <path id="Path_55666" data-name="Path 55666" d="M69.863,22.56c.107.116-.89,1.139-2.216,2.287a9.1,9.1,0,0,1-2.6,1.851c-.107-.125.89-1.148,2.216-2.287a8.751,8.751,0,0,1,2.6-1.842Z" transform="translate(-48.08 -7.959)" fill="#595858"/>
          <path id="Path_55667" data-name="Path 55667" d="M69.645,22.8c.1.107-.792,1.023-1.985,2.047A8.111,8.111,0,0,1,65.329,26.5c-.1-.107.792-1.023,1.985-2.047A7.983,7.983,0,0,1,69.645,22.8Z" transform="translate(-48.111 -7.985)" fill="#595858"/>
          <path id="Path_55668" data-name="Path 55668" d="M69.428,23.048c.08.1-.7.908-1.753,1.8a6.666,6.666,0,0,1-2.056,1.459c-.08-.1.7-.908,1.753-1.807a6.857,6.857,0,0,1,2.056-1.459Z" transform="translate(-48.143 -8.012)" fill="#595858"/>
          <path id="Path_55669" data-name="Path 55669" d="M69.2,23.279c.071.089-.614.792-1.522,1.566a5.782,5.782,0,0,1-1.78,1.264c-.071-.089.614-.783,1.522-1.566A5.782,5.782,0,0,1,69.2,23.279Z" transform="translate(-48.174 -8.038)" fill="#595858"/>
          <path id="Path_55670" data-name="Path 55670" d="M68.983,23.53a5.628,5.628,0,0,1-1.29,1.326,5.336,5.336,0,0,1-1.513,1.077,5.248,5.248,0,0,1,1.29-1.326,5.192,5.192,0,0,1,1.513-1.068Z" transform="translate(-48.205 -8.067)" fill="#595858"/>
          <path id="Path_55671" data-name="Path 55671" d="M68.764,23.769c.044.062-.427.552-1.059,1.086a4.176,4.176,0,0,1-1.246.881,4.531,4.531,0,0,1,1.059-1.086A4.432,4.432,0,0,1,68.764,23.769Z" transform="translate(-48.236 -8.092)" fill="#595858"/>
          <path id="Path_55672" data-name="Path 55672" d="M68.547,24.019a3.384,3.384,0,0,1-.828.854,3.164,3.164,0,0,1-.97.676,3.437,3.437,0,0,1,.828-.845C68.076,24.278,68.494,23.975,68.547,24.019Z" transform="translate(-48.268 -8.12)" fill="#595858"/>
          <path id="Path_55673" data-name="Path 55673" d="M68.321,24.26a4.577,4.577,0,0,1-.6.614,2.444,2.444,0,0,1-.685.489,2.554,2.554,0,0,1,.6-.605A2.373,2.373,0,0,1,68.321,24.26Z" transform="translate(-48.3 -8.147)" fill="#595858"/>
          <path id="Path_55674" data-name="Path 55674" d="M68.094,24.51a3.73,3.73,0,0,1-.356.374,2.381,2.381,0,0,1-.418.3c-.027-.027.142-.187.356-.374A1.615,1.615,0,0,1,68.094,24.51Z" transform="translate(-48.33 -8.174)" fill="#595858"/>
        </g>
        <path id="Path_55752" data-name="Path 55752" d="M178.655,29.669C177.543,16.133,143.236,5.64,106.829,4.332a44.107,44.107,0,0,0-9.78-1.922h-.276A54,54,0,0,0,86.512,4.217c-23.049.828-45.093,6-58.362,12.6C41.267,10.4,63.08,5.551,86.681,4.759a54.592,54.592,0,0,1,9.736-2.02.173.173,0,0,0,.071-.009h.08c3.916.027,10.225,2.047,10.225,2.047,37.261,1.255,69.112,11.845,71.079,24.633.071.516,1.878,11.943-25.728,19.062-11.382,3.133-37.359,6.683-55.683,6.514-19.516-.178-38.828-3.435-53.894-5.918,6.728,1.557,17.282,3.7,22.613,4.387a231.456,231.456,0,0,0,31.441,2.1h.009c.3,0,8.081.614,31.432-2.1a208.176,208.176,0,0,0,25.034-4.61h-.018c27.428-6.817,25.648-18.092,25.55-19.187Z" transform="translate(-3.098 -0.265)" fill="#fff"/>
        <path id="Path_55753" data-name="Path 55753" d="M75.327,44.073c-.089-.267-.16-.489-.249-.7a22.032,22.032,0,0,1-1.362-2.91c-.543.863-18.475,6.728-18.626,7.324C55.357,47.686,69.124,45.782,75.327,44.073Z" transform="translate(-6.064 -4.453)" fill="#fff"/>
        <path id="Path_55754" data-name="Path 55754" d="M77.64,47.483c-.276.053-.187-.214-.979-.943-1.308.739-19.632,4.494-20.362,4.8a27.372,27.372,0,0,1,2.892.525c-4.654-.712,13.838-3.471,18.448-4.387Z" transform="translate(-6.197 -5.123)" fill="#585757"/>
        <path id="Path_55755" data-name="Path 55755" d="M59.149,40.995c.632-.392,12.762-8.321,15.921-8.917a25.218,25.218,0,0,1,6.7-10.145c3.15-2.607,8.757-6.861,9.015-7.013.018,0-6.087,3.72-17.852,13.945C71.2,30.334,62.673,37.533,59.14,40.995Z" transform="translate(-6.509 -1.642)" fill="url(#linear-gradient-15)"/>
        <path id="Path_55756" data-name="Path 55756" d="M87.213,10.36c-.107-.125-26.974,22.871-29,24.455,2.163-1.682,17.87-14.684,20.059-16.295A88.365,88.365,0,0,0,87.213,10.36Z" transform="translate(-6.407 -1.14)" fill="#fff"/>
        <path id="Path_55757" data-name="Path 55757" d="M26.013,30.06a7.154,7.154,0,0,0,3.124,5.811C16.215,39.306,20.718,43.6,20.718,43.6s-8.57-4.378-6.585-12.263c-.392,1.718-.142,3.026.917,2.99C18.841,34.207,26.013,31.751,26.013,30.06Z" transform="translate(-1.523 -3.309)" fill="url(#linear-gradient-16)"/>
        <path id="Path_55758" data-name="Path 55758" d="M96.99,5.636a13.065,13.065,0,0,1,7.164-2.456c3.9-.044,7.947,2.688,7.947,2.688s-4.45-2.67-7.947-2.581A14.625,14.625,0,0,0,96.99,5.636Z" transform="translate(-10.676 -0.35)" fill="#f6f6f6"/>
        <path id="Path_55759" data-name="Path 55759" d="M55.768,47.507s-.142-.32-.2-.258a3.1,3.1,0,0,0-.721.952,2.307,2.307,0,0,0,.169,1.468,4.161,4.161,0,0,0,.5,1.095,3.512,3.512,0,0,0,.338.472c-.133-.24-.427-1.237-.6-1.709a1.7,1.7,0,0,1-.107-1.237,2.113,2.113,0,0,1,.614-.783Z" transform="translate(-6.029 -5.2)" fill="#fff"/>
        <path id="Path_55760" data-name="Path 55760" d="M155.24,47.792s.142-.525.214-.463c.24.231.73.489.845.792a2.452,2.452,0,0,1-.285,1.513,2.968,2.968,0,0,1-.65.961,6.376,6.376,0,0,0,.445-1.05,1.946,1.946,0,0,0,.116-1.282c-.089-.294-.676-.463-.676-.463Z" transform="translate(-17.087 -5.209)" fill="#fff"/>
        <path id="Path_55761" data-name="Path 55761" d="M69.459,7s7.013-.926,11.631-1.344c2.705-.24,6.763-.392,8.917-.32a6.02,6.02,0,0,0,2.047-.222c1.415-.3,1.682-.516,5.384-1.344-1.468.258-5.153,1.78-6.354,3.088a38.475,38.475,0,0,1-5.366,3.052c1.006-1.353,1.477-2.652,1.219-2.946-.65-.748-1.78-.6-5.793-.685A84.365,84.365,0,0,0,69.45,7Z" transform="translate(-7.644 -0.415)" fill="url(#linear-gradient-17)"/>
        <path id="Path_55762" data-name="Path 55762" d="M137.888,7.166s-7.013-.926-11.631-1.344c-4.094-.365-6.995-.214-9.415-.347a7.493,7.493,0,0,1-1.967-.249A41.449,41.449,0,0,0,109.82,3.98c1.637.418,5.607,1.869,6.666,3.328a50.861,50.861,0,0,0,5.464,3.115c-1.2-1.157-1.842-3.088-1.566-3.391.641-.748,1.815-.489,5.82-.587a85.966,85.966,0,0,1,11.694.721Z" transform="translate(-12.088 -0.438)" fill="url(#linear-gradient-18)"/>
        <path id="Path_55763" data-name="Path 55763" d="M99.436,56.479A248.75,248.75,0,0,1,57.6,52.99c7.885,2.26,23.316,5.126,42.085,5.126s34.707-2.572,42.094-5.126A255.664,255.664,0,0,1,99.436,56.479Z" transform="translate(-6.34 -5.833)" fill="#fff"/>
        <path id="Path_55764" data-name="Path 55764" d="M42.713,39.814a25.124,25.124,0,0,1-12.059-4.361c-1.281-1.059-2.91-2.661-3.4-4.263-2.091-7.538,8.063-12.041,8.063-12.041-3.133,1.54-9.015,5.891-7.208,11.845a9.342,9.342,0,0,0,3.035,3.925,21.788,21.788,0,0,0,11.631,4.138c5.473.142,10.563-3.693,11.7-4.45,0,0-4,3.15-4.583,3.489a12.551,12.551,0,0,1-7.182,1.7Z" transform="translate(-2.969 -2.108)" fill="url(#linear-gradient-19)"/>
        <path id="Path_55765" data-name="Path 55765" d="M164.357,39.774a22.755,22.755,0,0,0,11.48-4.165c1.273-1.059,2.91-2.661,3.4-4.263,2.082-7.547-7.858-11.836-7.858-11.836,3.141,1.54,8.81,5.678,7,11.64a9.3,9.3,0,0,1-3.044,3.925,21.853,21.853,0,0,1-11.623,4.147c-7.022-.169-16.268-7.858-17.416-8.615,0,0,6.158,5.615,10.163,7.467a18.516,18.516,0,0,0,7.9,1.691Z" transform="translate(-16.103 -2.147)" fill="url(#linear-gradient-20)"/>
        <path id="Path_55766" data-name="Path 55766" d="M67.39,8a1.519,1.519,0,0,1,.97-.409A140.829,140.829,0,0,1,90.528,5.64l-.632.285c-9.211.027-20.468,1.5-22.506,2.082Z" transform="translate(-7.418 -0.621)" fill="#fff"/>
        <path id="Path_55767" data-name="Path 55767" d="M139.578,8a1.519,1.519,0,0,0-.97-.409A140.829,140.829,0,0,0,116.44,5.64l.632.285c9.211.027,20.459,1.5,22.5,2.082Z" transform="translate(-12.816 -0.621)" fill="#fff"/>
        <path id="Path_55768" data-name="Path 55768" d="M173.528,45.671c-15.974,9.051-45.769,15.867-79.907,15.867-30.7,0-57.623-5.455-74.407-13.029-11.089-5-17.9-12.094-17.9-17.3,0-7,10.323-15.6,26.894-21.082C44.924,4.592,68.356.819,93.959.819,128.6.819,158.212,7.547,174,16.811c7.458,4.378,11.925,9.745,11.925,14.39s-4.512,9.994-12.406,14.461Zm1.62-29.225C159.129,6.959,128.755,0,93.621,0,67.653,0,44.23,3.933,27.276,9.593,10.466,15.209,0,24.01,0,31.174,0,36.5,6.906,43.758,18.146,48.884c17.024,7.76,44.327,13.331,75.475,13.331,34.609,0,64.84-6.977,81.046-16.241,8.009-4.574,12.584-10.2,12.584-14.8s-4.548-10.252-12.1-14.737Z" fill="url(#linear-gradient-21)"/>
        <path id="Path_55769" data-name="Path 55769" d="M175.032,16.462C159.04,6.976,128.712.15,93.639.15,67.716.15,44.328,3.95,27.4,9.61,10.618,15.225.17,24.027.17,31.191c0,5.331,6.9,12.584,18.119,17.71,16.989,7.76,44.256,13.331,75.351,13.331,34.556,0,64.742-6.977,80.921-16.241,7.983-4.574,12.557-10.2,12.557-14.8s-4.539-10.252-12.085-14.737ZM39.567,36.7a22.684,22.684,0,0,1-11.649-3.827,9.926,9.926,0,0,1-3.23-4c-2.127-5.607,3.862-9.958,8.3-12.139a78.707,78.707,0,0,1,14.159-5.09c6.1-1.548,10.795-2.6,12.806-3.052.97-.222,4.156-.8,7.475-1.3,3.684-.552,7.191-1.015,9.852-1.2,1.13-.08,2.394-.036,1.548.659a59.308,59.308,0,0,1-8.143,7.6c-7.867,6.238-17.674,14.595-25.95,20.317a9.721,9.721,0,0,1-5.179,2.02Zm79.159-.926a12.552,12.552,0,0,1-1.21,2.3c-.534.854-.979,1.5-1.629,2.4a3.079,3.079,0,0,1-2.83,1.629s-2.252.249-5.366.445c-4.325.276-10.288.418-14.008.338-2.7.1-8.4.045-12.957-.2-3.658-.2-7.28-.685-7.28-.685a3.019,3.019,0,0,1-2.26-1.566,15.981,15.981,0,0,1-1.317-1.851,15.254,15.254,0,0,1-1.184-2.1A3.357,3.357,0,0,1,68.1,34.67c0-.614,1.184-1.566,1.184-1.566l7.111-5.963,7.093-5.411c3.9-2.83,6.327-4.138,8.036-4.592a8.807,8.807,0,0,1,2.18-.285,6.8,6.8,0,0,1,2.59.587c2.029.774,5.491,2.839,13.215,8.917l8.33,6.941s.934.623,1.068,1.281a1.768,1.768,0,0,1-.2,1.193Zm43.535-6.995a9.269,9.269,0,0,1-3.106,3.978c-1.771,1.468-7.467,3.773-11.427,3.764a9.537,9.537,0,0,1-5.384-1.735c-8.276-5.722-17.994-14.1-25.852-20.335a108.611,108.611,0,0,1-8.534-7.4c-.418-.463-.427-.694.623-.712a94.526,94.526,0,0,1,12.237,1.148c2.154.329,4.565.837,6.683,1.219A144.569,144.569,0,0,1,146.4,13.6a60.4,60.4,0,0,1,7.876,3.257c4.441,2.18,10.119,6.319,7.992,11.916Z" transform="translate(-0.019 -0.017)" fill="url(#linear-gradient)"/>
        <path id="Path_55770" data-name="Path 55770" d="M175.032,16.462C159.04,6.976,128.712.15,93.639.15,67.716.15,44.328,3.95,27.4,9.61,10.618,15.225.17,24.027.17,31.191c0,5.331,6.9,12.584,18.119,17.71,16.989,7.76,44.256,13.331,75.351,13.331,34.556,0,64.742-6.977,80.921-16.241,7.983-4.574,12.557-10.2,12.557-14.8s-4.539-10.252-12.085-14.737ZM39.567,36.673c-4.485-.027-9.869-2.323-11.649-3.791a9.926,9.926,0,0,1-3.23-4c-2.127-5.607,3.862-9.958,8.3-12.139a78.707,78.707,0,0,1,14.159-5.09c6.1-1.548,10.822-2.67,12.806-3.052,1.486-.285,3.506-.659,6.959-1.184,4.592-.7,7.022-1.077,9.86-1.29.756-.062,2.661-.445,2.074.952-.1.258-2.679,2.937-8.161,7.289C62.821,20.6,53.014,28.957,44.738,34.679a9.7,9.7,0,0,1-5.179,1.993Zm79.159-.9a12.764,12.764,0,0,1-1.2,2.3c-.534.854-.979,1.5-1.629,2.4a3.079,3.079,0,0,1-2.83,1.629s-2.252.249-5.366.445c-4.325.276-10.288.418-14.008.338-2.7.1-8.4.045-12.957-.2-3.667-.2-7.28-.685-7.28-.685-1.424.071-2.26-1.566-2.26-1.566a15.983,15.983,0,0,1-1.317-1.851,15.254,15.254,0,0,1-1.184-2.1,3.357,3.357,0,0,1-.587-1.807c0-.614,1.068-1.673,1.068-1.673l7.111-5.963,7.208-5.3c3.9-2.83,6.328-4.138,8.036-4.592a8.807,8.807,0,0,1,2.18-.285,6.858,6.858,0,0,1,2.6.587c2.029.774,5.491,2.839,13.215,8.917l8.33,6.941s.934.623,1.068,1.282a1.728,1.728,0,0,1-.2,1.193Zm43.544-6.995a9.27,9.27,0,0,1-3.106,3.978c-1.771,1.468-7.467,3.773-11.427,3.764a9.537,9.537,0,0,1-5.384-1.735c-8.276-5.722-19.605-15.485-25.808-20.335a106.771,106.771,0,0,1-8.365-7.128.55.55,0,0,1,.409-.988,102.022,102.022,0,0,1,12.237,1.148c2.26.365,4.556.792,6.683,1.219a168.974,168.974,0,0,1,18.9,4.895,58.087,58.087,0,0,1,7.876,3.257c4.441,2.18,10.119,6.319,7.992,11.916Z" transform="translate(-0.019 -0.017)" fill="url(#radial-gradient)" style="mix-blend-mode: overlay;isolation: isolate"/>
        <path id="Path_55771" data-name="Path 55771" d="M104.41,1.11c35.072,0,63.995,10.822,77.024,20.86,5.74,4.414,5.286,8.73,5.286,9.727,0,0-8.214-1.308-12.2-3.293-.383-6.594-3.346-10.163-6.318-12a38.3,38.3,0,0,0-9.113-3.942A152.843,152.843,0,0,0,140.951,8.31C138.619,7.9,135.54,7.393,132.79,7c-3.417-.489-12.183-1.557-13-.427-.267.365-.1,1.086.605,1.985.587.748,9.629,9.941,10.448,10.83-5.384-3.106-20.193-16.2-26.013-16.223l-.418-2.047Z" transform="translate(-11.492 -0.122)" fill="#fff"/>
        <path id="Path_55772" data-name="Path 55772" d="M161.46,12.68c9.513,1.344,21.75,6.621,27.036,11.062,5.544,4.654,4.859,9.157,4.859,10.154,0,0-7.983-.454-12.557-4.174a11.858,11.858,0,0,0-5.971-11.106C172.566,17.228,169.38,15.19,161.46,12.68Z" transform="translate(-17.772 -1.396)" fill="#fff"/>
        <path id="Path_55773" data-name="Path 55773" d="M161.46,12.68c9.513,1.344,21.75,6.621,27.036,11.062,5.544,4.654,4.859,9.157,4.859,10.154,0,0-7.983-.454-12.557-4.174a11.858,11.858,0,0,0-5.971-11.106C172.566,17.228,169.38,15.19,161.46,12.68Z" transform="translate(-17.772 -1.396)" fill="#fff"/>
        <path id="Path_55774" data-name="Path 55774" d="M96.22,1.11c-35.072,0-63.986,10.822-77.015,20.86-5.731,4.414-5.286,8.73-5.286,9.727,0,0,8.214-1.308,12.21-3.293.383-6.594,3.337-10.163,6.319-12a38.3,38.3,0,0,1,9.113-3.942A153.1,153.1,0,0,1,59.688,8.31C62.02,7.9,65.1,7.393,67.858,7c3.4-.489,12.13-1.282,13.037-.214.418.489.151,1.086-.561,1.976-.587.748-9.709,9.727-10.537,10.617,5.384-3.106,20.2-16.2,26-16.223Z" transform="translate(-1.531 -0.122)" fill="#fff"/>
        <path id="Path_55775" data-name="Path 55775" d="M46.262,11.24C36.74,12.584,23.8,18.4,18.567,22.916c-6.043,5.215-4.859,9.166-4.859,10.154,0,0,7.751-.552,12.326-4.263.383-6.594,3.23-9.193,6.2-11.017A92.319,92.319,0,0,1,46.262,11.24Z" transform="translate(-1.499 -1.237)" fill="#fff"/>
        <path id="Path_55776" data-name="Path 55776" d="M46.262,11.24C36.74,12.584,23.8,18.4,18.567,22.916c-6.043,5.215-4.859,9.166-4.859,10.154,0,0,7.751-.552,12.326-4.263.383-6.594,3.23-9.193,6.2-11.017A92.319,92.319,0,0,1,46.262,11.24Z" transform="translate(-1.499 -1.237)" fill="#fff"/>
        <path id="Path_55777" data-name="Path 55777" d="M174.155,16.771C158.368,7.5,128.76.77,94.124.77,68.53.77,45.107,4.543,28.385,10.079,11.814,15.561,1.5,24.157,1.5,31.161c0,5.215,6.808,12.3,17.9,17.3,16.775,7.573,43.7,13.029,74.4,13.029,34.12,0,63.915-6.826,79.88-15.876,7.885-4.467,12.406-9.967,12.406-14.461s-4.476-10.021-11.925-14.39Zm-9.665,25.968C150.732,49.974,122.459,55.18,93.813,55.18,68.058,55.18,40.96,50.553,28.029,45,18.24,40.79,12.366,35.709,12.366,29.853S21.488,16.9,36.136,12.286A182.11,182.11,0,0,1,83.747,4.374c.16,0,1.913-.463,2.661-.632C88.838,3.2,91.588,2.292,94,2.292c3.088,0,7.253,1.477,8.695,1.9a9.277,9.277,0,0,0,2.269.392C131.546,5.62,152,10.853,164.526,17.848c6.585,3.675,10.555,7.965,10.555,11.872,0,4.895-3.578,9.344-10.59,13.029Z" transform="translate(-0.165 -0.085)" fill="url(#linear-gradient-2)"/>
        <path id="Path_55778" data-name="Path 55778" d="M6.028,42.309a47.872,47.872,0,0,0,14.728,9.46c1.869.774,10.305,3.978,15.191,5.251,2.661.694,8.775,2.216,14.728,3.373,4.939.961,9.771,1.62,12.272,1.9,1.486.169,9.033,1.05,16.206,1.477,7.333.436,14.648.418,14.648.418V57.874a231.687,231.687,0,0,1-31.441-2.1,230.239,230.239,0,0,1-26.119-5.215c-6.763-1.9-13.3-4.886-17.1-7.707-4.156-3.07-5.544-5.509-5.856-6.31A9.23,9.23,0,0,1,14.313,27.2,26.99,26.99,0,0,1,16.6,24.617L10.228,21.28s-1.451,1.095-3.311,2.679a17.129,17.129,0,0,0-3.56,4c-.169.276-.427.694-.676,1.157a12.484,12.484,0,0,0-.667,1.513,8.4,8.4,0,0,0-.053,5.687,21.83,21.83,0,0,0,4.067,6.007Z" transform="translate(-0.163 -2.342)" fill="#fff"/>
        <path id="Path_55779" data-name="Path 55779" d="M193,42.175s-4.174,4.476-14.791,9.407a141.757,141.757,0,0,1-15.191,5.251c-2.67.685-8.775,2.207-14.728,3.373-4.939.97-9.78,1.62-12.281,1.9-1.486.169-9.024,1.05-16.206,1.477-7.333.436-14.648.418-14.648.418V57.687a231.034,231.034,0,0,0,31.441-2.109A232.05,232.05,0,0,0,162.7,50.363c6.755-1.9,13.3-4.895,17.1-7.707,4.147-3.07,5.553-5.5,5.874-6.31,1.531-3.836.489-6.8-1.335-9.353-.7-.979-1.949-2.492-1.949-2.492l6.577-3.141a34.846,34.846,0,0,1,3.168,2.581,18.405,18.405,0,0,1,3.524,4c.178.276.32.543.5.837a10.573,10.573,0,0,1,.721,1.637,8.16,8.16,0,0,1,.151,5.776,22.014,22.014,0,0,1-4.04,5.98Z" transform="translate(-11.574 -2.351)" fill="#fff"/>
        <path id="Path_55780" data-name="Path 55780" d="M74.357,39.339a2.966,2.966,0,0,0,.311,1.237c.24.463.516,1.05.783,1.5a30.6,30.6,0,0,0,2.688,3.9,2.078,2.078,0,0,0,.854.552s-22.489,4-22.845,3.969c-.605-.071-1.166-.881-1.3-3.177L74.357,39.33Z" transform="translate(-6.037 -4.329)" fill="#fff"/>
        <g id="Group_23749" data-name="Group 23749" transform="translate(83.876 2.491)" opacity="0.8">
          <path id="Path_55781" data-name="Path 55781" d="M96.413,5.71,94.25,4.936c2.2-.623,7.048-2.136,9.914-2.136,2.572-.036,7.555,1.726,9.834,2.26l-2.109.641a17.6,17.6,0,0,0-7.725-2.492A16.114,16.114,0,0,0,96.413,5.7Z" transform="translate(-94.25 -2.799)" fill="url(#linear-gradient-3)" style="mix-blend-mode: darken;isolation: isolate"/>
        </g>
        <path id="Path_55782" data-name="Path 55782" d="M133.16,39.26a2.888,2.888,0,0,1-.285,1.29c-.338.641-.578,1.175-.765,1.486a30.748,30.748,0,0,1-2.661,3.836,2.038,2.038,0,0,1-.819.578s22.284,3.978,22.64,3.942c.605-.071,1.789-.774,1.922-3.079L133.16,39.269Z" transform="translate(-14.158 -4.321)" fill="#fff"/>
        <path id="Path_55783" data-name="Path 55783" d="M50.909,37.175a45.525,45.525,0,0,0,8.659-5.535C78.256,17.294,84.148,8.8,93.5,4.764,95.966,3.7,97.185,3.18,99.179,3.18a14.708,14.708,0,0,1,6.069,1.7c7.831,3.56,20.184,15.867,31.5,24.687a37.778,37.778,0,0,0,12.53,6.737l-4.3,7.182s-2.207-2.225-5.856-5.446c-5.464-4.823-12.868-11.151-19.81-16.686a132.321,132.321,0,0,0-13.687-9.834c-1.637-.943-4.209-2.207-6.461-2.207a12.25,12.25,0,0,0-6.141,2.082c-3.115,1.931-6.612,4.37-11.053,7.689-3.435,2.572-6.55,5.678-9.949,8.49-9.2,7.645-17.211,14.613-17.211,14.613L50.9,37.175Z" transform="translate(-5.603 -0.35)" fill="url(#linear-gradient-4)"/>
        <path id="Path_55784" data-name="Path 55784" d="M148.977,42.164c-2.821-2.768-8.615-8.259-16.357-14.524-6.185-5-11.658-10.021-20.326-15.12-.943-.552-4.512-2.643-7.164-2.661v8.223a6.641,6.641,0,0,1,2.323.374,32.383,32.383,0,0,1,7.333,4.272c4.815,3.319,9.5,7.467,12.859,10.225l1.406,1.166a7.951,7.951,0,0,1,1.282,1.157c.32.409.2.623.2.623s13.411,5.375,17.941,7.2a10.2,10.2,0,0,0,2.127.765c.133-.089-.392-.5-1.611-1.7Z" transform="translate(-11.572 -1.085)" fill="url(#linear-gradient-5)"/>
        <path id="Path_55785" data-name="Path 55785" d="M55.955,42.164C58.767,39.4,64.569,33.906,72.3,27.641c6.185-5,11.658-10.021,20.326-15.12.943-.552,4.5-2.643,7.155-2.661v8.223a6.577,6.577,0,0,0-2.314.374,32.578,32.578,0,0,0-7.333,4.272c-4.806,3.319-9.487,7.467-12.868,10.225L75.863,34.12a7.95,7.95,0,0,0-1.282,1.157c-.32.409-.258.641-.258.641S60.974,41.266,56.444,43.09a10.381,10.381,0,0,1-2.127.765c-.133-.089.392-.5,1.62-1.7Z" transform="translate(-5.976 -1.085)" fill="url(#linear-gradient-6)"/>
        <path id="Path_55786" data-name="Path 55786" d="M53.815,44.17c-.133,0,.1-.231,0-.338-.2-.214.516-.392.685-.632C56.075,40.984,90.5,9.48,98.765,9.48H100.2c3.213,0,12.334,5.366,25.7,16.49,10.012,8.33,18.991,17.042,19.472,17.674.187.231.659.24.427.427a.548.548,0,0,1-.756-.1c-3-3.533-36.256-33.986-45.609-33.986h-.018C90.391,10.4,55.781,42,54.349,44.081c-.089.125-.392.107-.534.107Z" transform="translate(-5.919 -1.043)" fill="url(#linear-gradient-7)"/>
        <g id="Group_23750" data-name="Group 23750" transform="translate(48.343 42.699)" opacity="0.95" style="mix-blend-mode: lighten;isolation: isolate">
          <path id="Path_55787" data-name="Path 55787" d="M98.488,56.078c-13.545,0-30.249-1.112-42.227-4-1.308-.311-1.388-1.157-1.753-2.341-.169-.543-.338-1.344.062-1.762a1.057,1.057,0,0,0,.311,0,1.945,1.945,0,0,0-.1,1.041c.16.934.694,2.287,1.29,2.492,12.121,2.8,27.356,3.853,42.405,3.853h.009c12.69,0,27.205-.4,40.875-3.213,2.421-.561,4.77-.392,5.509-2.545.116-.329.454-1.077.3-1.415,0,0,.383-.151.392.383a4.86,4.86,0,0,1-.988,2.67c-1.2,1.015-3.871,1.4-5.224,1.673-11.7,2.332-23.663,3.168-40.874,3.168H98.47Z" transform="translate(-54.323 -47.98)" fill="url(#linear-gradient-8)"/>
        </g>
        <g id="Group_23751" data-name="Group 23751" transform="translate(67.279 34.832)" style="mix-blend-mode: darken;isolation: isolate">
          <path id="Path_55788" data-name="Path 55788" d="M79.587,46.7A46.241,46.241,0,0,1,75.6,39.576l1.077-.436s-.338.765,1.442,3.462c1.5,2.287,2.518,3.818,3.159,3.818l-1.682.267Z" transform="translate(-75.6 -39.14)" fill="url(#linear-gradient-9)"/>
        </g>
        <g id="Group_23752" data-name="Group 23752" transform="translate(114.472 34.921)" style="mix-blend-mode: darken;isolation: isolate">
          <path id="Path_55789" data-name="Path 55789" d="M130.321,46.707a34.929,34.929,0,0,0,3.667-7.111l-.819-.356c.133.1.107.7-1.362,3.239-1.175,2.029-2.527,3.96-3.177,3.96Z" transform="translate(-128.63 -39.24)" fill="url(#linear-gradient-10)"/>
        </g>
        <g id="Group_23753" data-name="Group 23753" transform="translate(48.048 35.278)" opacity="0.5">
          <path id="Path_55790" data-name="Path 55790" d="M54.969,47.694c-.2,0-.8.454-.89.258-.116-.267-.133-.5.045-.463l19.285-7.76c.623-.32.427.32.222.534-.169.187-.142.125-1.762.756L55.93,47.347c-.062.027-.89.356-.961.356Z" transform="translate(-53.991 -39.641)" fill="url(#linear-gradient-11)"/>
        </g>
        <path id="Path_55791" data-name="Path 55791" d="M164.6,28.543s-.694,7.369-13.144,9.273c-8.615,1.317-15.093-5.17-18-7.52C124.1,22.776,107.166,8.066,101.5,5A13.639,13.639,0,0,0,95.134,3.18c-1.54,0-3.141.8-5.678,1.709C83.1,7.167,74.5,15.781,59.519,28.525c-2.919,2.483-8.686,8.063-14.844,9.469-6.683,1.522-15.5-3.391-18.208-8.383-3.222,2.154-9.656,2.955-12.4,2.154.792,9.024,16.49,14.764,23.993,16.882C53.823,53.07,82.274,56,95.8,55.65c30.062-.765,38.587-3.026,47.682-4.868,2.269-.463,8.294-2.011,16.651-4.743C175.859,40.9,176.1,34.2,176.4,30.919c-3.951,2.074-11.809-2.367-11.809-2.367ZM95.356,50.96C75.4,51.388,51.83,47.151,51.83,47.151a3.165,3.165,0,0,1-1.566-1.726c-.383-1.228-.667-1.94-.356-2.287,2.527-4.485,12.05-10.421,18.083-15.431,3.391-2.812,6.505-5.918,9.949-8.49,4.441-3.328,7.938-5.758,11.053-7.689a12.128,12.128,0,0,1,6.141-2.082c2.314,0,4.815,1.264,6.461,2.207a131.23,131.23,0,0,1,13.687,9.843c6.941,5.535,14.346,11.863,19.8,16.677,1.29,1.13,4.031,3.506,5.491,4.966.534.525.926.507.018,2.465a3.143,3.143,0,0,1-.881,1.032c-5,2.679-25.354,3.925-44.345,4.325ZM50.05,43.138c2.9-4.111,11.907-10.43,17.941-15.44Z" transform="translate(-1.549 -0.35)" fill="#fff"/>
        <g id="Group_23754" data-name="Group 23754" transform="translate(118.823 34.931)" opacity="0.5">
          <path id="Path_55792" data-name="Path 55792" d="M152.378,47.3c.2,0,.81.454.89.258.116-.267.142-.5-.045-.472l-19.285-7.751c-.614-.32-.427.32-.223.534.169.187.142.125,1.771.756l15.93,6.327c.071.027.9.356.961.356Z" transform="translate(-133.52 -39.251)" fill="url(#linear-gradient-12)"/>
        </g>
        <path id="Path_55793" data-name="Path 55793" d="M55.4,43.688c-.142,0-.116-.231-.018-.338a7.1,7.1,0,0,0,.614-.7c1.575-2.216,35.081-32.589,42.85-32.687h1.424c3.23,0,12.326,5.731,25.7,16.864,10.012,8.33,19.374,16.873,19.133,17.051a5.807,5.807,0,0,1-2.527-1.13c-1.655-3.23-34.69-32.313-42.031-32.313h-1.8c-7.734,0-40.679,30.471-42.913,32.812-.1.107-.285.436-.427.436Z" transform="translate(-6.087 -1.096)" fill="#3d3a39"/>
        <path id="Path_55794" data-name="Path 55794" d="M150.769,51.542c1.468-.32,2.118-1.006,1.931-.979,0,0-21.118-3.177-21.581-3.044-.249.071,18.9,3.542,18.9,3.542.071.027,1.29.169.748.472Z" transform="translate(-14.432 -5.23)" fill="#fff"/>
        <path id="Path_55795" data-name="Path 55795" d="M175.409,38.97a20.092,20.092,0,0,1-5.526,5.624c-3.809,2.821-10.35,5.8-17.1,7.707a234.454,234.454,0,0,1-26.111,5.215,235.775,235.775,0,0,1-31.441,2.109h-.009a235.847,235.847,0,0,1-31.441-2.109c-6.915-.881-19.5-3.578-26.111-5.215a51.956,51.956,0,0,1-17.1-7.707,21.448,21.448,0,0,1-5.251-5.179C17.027,44.692,21.121,50.744,26.4,55.3a113.678,113.678,0,0,0,11.071,3.667c2.661.694,8.775,2.216,14.728,3.373,4.939.961,9.771,1.62,12.272,1.9,1.486.169,9.033,1.05,16.206,1.477,7.315.436,14.622.418,14.648.418s7.226-.187,14.533-.623c7.182-.427,14.719-1.308,16.215-1.477,2.5-.285,7.333-.934,12.272-1.9,5.945-1.166,12.067-2.688,14.728-3.373a76.475,76.475,0,0,0,9.14-2.928c5.847-4.654,11.489-11.453,13.18-16.864Z" transform="translate(-1.685 -4.289)" fill="url(#linear-gradient-13)"/>
        <path id="Path_55796" data-name="Path 55796" d="M133.1,35.077a6.81,6.81,0,0,0,.57,3.5c.409.32,20.077,8.588,20.184,8.17.045-.3-3.8-3.373-9.932-6.995-5.651-3.337-9.869-6.835-10.813-4.681Z" transform="translate(-14.644 -3.787)" fill="#fff"/>
        <path id="Path_55797" data-name="Path 55797" d="M74.655,34.124c-.329.854-.712,3.355-.133,4.058-.409.329-19.045,8.312-19.151,7.894-.053-.222,2.8-3.124,8.935-6.737,5.651-3.337,11.222-7.4,10.341-5.215Z" transform="translate(-6.094 -3.688)" fill="#fff"/>
        <path id="Path_55798" data-name="Path 55798" d="M111.272,22.227c-.917-.614-5.366-3.667-8.027-3.667s-5.393,1.851-7.164,2.955C93.367,23.205,85.5,29.933,85.5,29.933c1.477-1.166,5.66-4.316,7.093-5.446l.739-.561c3.916-2.83,6-3.933,7.627-4.432a9.106,9.106,0,0,1,2.252-.374,8.758,8.758,0,0,1,2.385.507,32.133,32.133,0,0,1,7.333,4.289c1.949,1.344,6.559,5.064,8.392,6.532a87.056,87.056,0,0,0-10.047-8.214Z" transform="translate(-9.411 -2.043)" fill="#888988"/>
        <path id="Path_55799" data-name="Path 55799" d="M182.8,30.059a6.98,6.98,0,0,1-2.892,5.811c12.922,3.435,8.419,7.734,8.419,7.734s7.947-5.838,5.971-12.415c.4,1.531.276,2.955-1.629,2.892-4.183-.125-9.869-2.332-9.869-4.031Z" transform="translate(-19.803 -3.308)" fill="url(#linear-gradient-14)"/>
        <path id="Path_55954" data-name="Path 55954" d="M178.655,29.669C177.543,16.133,143.236,5.64,106.829,4.332a44.107,44.107,0,0,0-9.78-1.922h-.276A54,54,0,0,0,86.512,4.217c-23.049.828-45.093,6-58.362,12.6C41.267,10.4,63.08,5.551,86.681,4.759a54.592,54.592,0,0,1,9.736-2.02.173.173,0,0,0,.071-.009h.08c3.916.027,10.225,2.047,10.225,2.047,37.261,1.255,69.112,11.845,71.079,24.633.071.516,1.878,11.943-25.728,19.062-11.382,3.133-37.359,6.683-55.683,6.514-19.516-.178-38.828-3.435-53.894-5.918,6.728,1.557,17.282,3.7,22.613,4.387a231.456,231.456,0,0,0,31.441,2.1h.009c.3,0,8.081.614,31.432-2.1a208.176,208.176,0,0,0,25.034-4.61h-.018c27.428-6.817,25.648-18.092,25.55-19.187Z" transform="translate(-3.098 -0.265)" fill="#fff"/>
        <path id="Path_55955" data-name="Path 55955" d="M75.327,44.073c-.089-.267-.16-.489-.249-.7a22.032,22.032,0,0,1-1.362-2.91c-.543.863-18.475,6.728-18.626,7.324C55.357,47.686,69.124,45.782,75.327,44.073Z" transform="translate(-6.064 -4.453)" fill="#fff"/>
        <path id="Path_55956" data-name="Path 55956" d="M77.64,47.483c-.276.053-.187-.214-.979-.943-1.308.739-19.632,4.494-20.362,4.8a27.372,27.372,0,0,1,2.892.525c-4.654-.712,13.838-3.471,18.448-4.387Z" transform="translate(-6.197 -5.123)" fill="#585757"/>
        <path id="Path_55957" data-name="Path 55957" d="M59.149,40.995c.632-.392,12.762-8.321,15.921-8.917a25.218,25.218,0,0,1,6.7-10.145c3.15-2.607,8.757-6.861,9.015-7.013.018,0-6.087,3.72-17.852,13.945C71.2,30.334,62.673,37.533,59.14,40.995Z" transform="translate(-6.509 -1.642)" fill="url(#linear-gradient-15)"/>
        <path id="Path_55958" data-name="Path 55958" d="M87.213,10.36c-.107-.125-26.974,22.871-29,24.455,2.163-1.682,17.87-14.684,20.059-16.295A88.365,88.365,0,0,0,87.213,10.36Z" transform="translate(-6.407 -1.14)" fill="#fff"/>
        <path id="Path_55959" data-name="Path 55959" d="M26.013,30.06a7.154,7.154,0,0,0,3.124,5.811C16.215,39.306,20.718,43.6,20.718,43.6s-8.57-4.378-6.585-12.263c-.392,1.718-.142,3.026.917,2.99C18.841,34.207,26.013,31.751,26.013,30.06Z" transform="translate(-1.523 -3.309)" fill="url(#linear-gradient-16)"/>
        <path id="Path_55960" data-name="Path 55960" d="M96.99,5.636a13.065,13.065,0,0,1,7.164-2.456c3.9-.044,7.947,2.688,7.947,2.688s-4.45-2.67-7.947-2.581A14.625,14.625,0,0,0,96.99,5.636Z" transform="translate(-10.676 -0.35)" fill="#f6f6f6"/>
        <path id="Path_55961" data-name="Path 55961" d="M55.768,47.507s-.142-.32-.2-.258a3.1,3.1,0,0,0-.721.952,2.307,2.307,0,0,0,.169,1.468,4.161,4.161,0,0,0,.5,1.095,3.512,3.512,0,0,0,.338.472c-.133-.24-.427-1.237-.6-1.709a1.7,1.7,0,0,1-.107-1.237,2.113,2.113,0,0,1,.614-.783Z" transform="translate(-6.029 -5.2)" fill="#fff"/>
        <path id="Path_55962" data-name="Path 55962" d="M155.24,47.792s.142-.525.214-.463c.24.231.73.489.845.792a2.452,2.452,0,0,1-.285,1.513,2.968,2.968,0,0,1-.65.961,6.376,6.376,0,0,0,.445-1.05,1.946,1.946,0,0,0,.116-1.282c-.089-.294-.676-.463-.676-.463Z" transform="translate(-17.087 -5.209)" fill="#fff"/>
        <path id="Path_55963" data-name="Path 55963" d="M69.459,7s7.013-.926,11.631-1.344c2.705-.24,6.763-.392,8.917-.32a6.02,6.02,0,0,0,2.047-.222c1.415-.3,1.682-.516,5.384-1.344-1.468.258-5.153,1.78-6.354,3.088a38.475,38.475,0,0,1-5.366,3.052c1.006-1.353,1.477-2.652,1.219-2.946-.65-.748-1.78-.6-5.793-.685A84.365,84.365,0,0,0,69.45,7Z" transform="translate(-7.644 -0.415)" fill="url(#linear-gradient-17)"/>
        <path id="Path_55964" data-name="Path 55964" d="M137.888,7.166s-7.013-.926-11.631-1.344c-4.094-.365-6.995-.214-9.415-.347a7.493,7.493,0,0,1-1.967-.249A41.449,41.449,0,0,0,109.82,3.98c1.637.418,5.607,1.869,6.666,3.328a50.861,50.861,0,0,0,5.464,3.115c-1.2-1.157-1.842-3.088-1.566-3.391.641-.748,1.815-.489,5.82-.587a85.966,85.966,0,0,1,11.694.721Z" transform="translate(-12.088 -0.438)" fill="url(#linear-gradient-18)"/>
        <path id="Path_55965" data-name="Path 55965" d="M99.436,56.479A248.75,248.75,0,0,1,57.6,52.99c7.885,2.26,23.316,5.126,42.085,5.126s34.707-2.572,42.094-5.126A255.664,255.664,0,0,1,99.436,56.479Z" transform="translate(-6.34 -5.833)" fill="#fff"/>
        <path id="Path_55966" data-name="Path 55966" d="M42.713,39.814a25.124,25.124,0,0,1-12.059-4.361c-1.281-1.059-2.91-2.661-3.4-4.263-2.091-7.538,8.063-12.041,8.063-12.041-3.133,1.54-9.015,5.891-7.208,11.845a9.342,9.342,0,0,0,3.035,3.925,21.788,21.788,0,0,0,11.631,4.138c5.473.142,10.563-3.693,11.7-4.45,0,0-4,3.15-4.583,3.489a12.551,12.551,0,0,1-7.182,1.7Z" transform="translate(-2.969 -2.108)" fill="url(#linear-gradient-19)"/>
        <path id="Path_55967" data-name="Path 55967" d="M164.357,39.774a22.755,22.755,0,0,0,11.48-4.165c1.273-1.059,2.91-2.661,3.4-4.263,2.082-7.547-7.858-11.836-7.858-11.836,3.141,1.54,8.81,5.678,7,11.64a9.3,9.3,0,0,1-3.044,3.925,21.853,21.853,0,0,1-11.623,4.147c-7.022-.169-16.268-7.858-17.416-8.615,0,0,6.158,5.615,10.163,7.467a18.516,18.516,0,0,0,7.9,1.691Z" transform="translate(-16.103 -2.147)" fill="url(#linear-gradient-20)"/>
        <path id="Path_55968" data-name="Path 55968" d="M67.39,8a1.519,1.519,0,0,1,.97-.409A140.829,140.829,0,0,1,90.528,5.64l-.632.285c-9.211.027-20.468,1.5-22.506,2.082Z" transform="translate(-7.418 -0.621)" fill="#fff"/>
        <path id="Path_55969" data-name="Path 55969" d="M139.578,8a1.519,1.519,0,0,0-.97-.409A140.829,140.829,0,0,0,116.44,5.64l.632.285c9.211.027,20.459,1.5,22.5,2.082Z" transform="translate(-12.816 -0.621)" fill="#fff"/>
        <path id="Path_55970" data-name="Path 55970" d="M173.528,45.671c-15.974,9.051-45.769,15.867-79.907,15.867-30.7,0-57.623-5.455-74.407-13.029-11.089-5-17.9-12.094-17.9-17.3,0-7,10.323-15.6,26.894-21.082C44.924,4.592,68.356.819,93.959.819,128.6.819,158.212,7.547,174,16.811c7.458,4.378,11.925,9.745,11.925,14.39s-4.512,9.994-12.406,14.461Zm1.62-29.225C159.129,6.959,128.755,0,93.621,0,67.653,0,44.23,3.933,27.276,9.593,10.466,15.209,0,24.01,0,31.174,0,36.5,6.906,43.758,18.146,48.884c17.024,7.76,44.327,13.331,75.475,13.331,34.609,0,64.84-6.977,81.046-16.241,8.009-4.574,12.584-10.2,12.584-14.8s-4.548-10.252-12.1-14.737Z" fill="url(#linear-gradient-21)"/>
        <path id="Path_55971" data-name="Path 55971" d="M376.647,20.692h42.485V12.3H373.906a7.636,7.636,0,0,0-7.636,7.645V44.088a7.636,7.636,0,0,0,7.636,7.645h45.226v-8.4H376.647a1.493,1.493,0,0,1-1.424-1.691V36.2h39.887V27.811H375.223V22.374A1.489,1.489,0,0,1,376.647,20.692Z" transform="translate(-40.315 -1.354)" fill="#b91b23"/>
        <path id="Path_55972" data-name="Path 55972" d="M307.761,12.29v14.9h35.2V12.29h8.793V51.714h-8.793V36.487h-35.2V51.714h-8.8V12.29Z" transform="translate(-32.906 -1.353)" fill="#b91b23"/>
        <path id="Path_55973" data-name="Path 55973" d="M232.37,44.078a7.642,7.642,0,0,0,7.636,7.645H284.52V42.592H242.738a1.428,1.428,0,0,1-1.424-1.424V22.853a1.428,1.428,0,0,1,1.424-1.424H284.52V12.29H240.006a7.636,7.636,0,0,0-7.636,7.645Z" transform="translate(-25.577 -1.353)" fill="#b91b23"/>
        <path id="Path_55974" data-name="Path 55974" d="M477.881,28.175a1.417,1.417,0,0,0,1.424-1.424V22.1a1.415,1.415,0,0,0-1.424-1.415H442.47V51.705h-8.81V12.29h45.867a7.649,7.649,0,0,1,7.644,7.645V27.7a7.643,7.643,0,0,1-7.644,7.645H465.11L487.35,51.714H472.416L442.4,28.175h35.482Z" transform="translate(-47.733 -1.353)" fill="#b91b23"/>
        <path id="Path_55975" data-name="Path 55975" d="M527.971,30.614,546.74,12.29h12.9L533.079,38.027v13.7H522.213V38.089L495.56,12.29h12.931Z" transform="translate(-54.546 -1.353)" fill="#b91b23"/>
      </g>
    </g>
  </g>
</svg>
