<svg xmlns="http://www.w3.org/2000/svg" xmlns:xlink="http://www.w3.org/1999/xlink" width="197" height="150" viewBox="0 0 197 150">
  <defs>
    <linearGradient id="linear-gradient" y1="1.244" x2="1" y2="1.244" gradientUnits="objectBoundingBox">
      <stop offset="0.1" stop-color="#e5a923"/>
      <stop offset="0.6" stop-color="#edc365"/>
      <stop offset="0.9" stop-color="#e5a923"/>
    </linearGradient>
    <linearGradient id="linear-gradient-2" x1="0.006" y1="1.28" x2="0.993" y2="1.386" gradientUnits="objectBoundingBox">
      <stop offset="0.05" stop-color="#6e1e6f"/>
      <stop offset="0.18" stop-color="#8b4b8c"/>
      <stop offset="0.4" stop-color="#6e1e6f"/>
      <stop offset="0.6" stop-color="#6e1e6f"/>
      <stop offset="0.8" stop-color="#8b4b8c"/>
      <stop offset="1" stop-color="#9a629a"/>
    </linearGradient>
    <linearGradient id="linear-gradient-3" x1="0.465" y1="0.118" x2="0.642" y2="-0.639" gradientUnits="objectBoundingBox">
      <stop offset="0" stop-color="#a878a9"/>
      <stop offset="0.4" stop-color="#925693"/>
      <stop offset="0.9" stop-color="#6e1e6f"/>
    </linearGradient>
  </defs>
  <g id="Group_23768" data-name="Group 23768" transform="translate(0.044 -0.212)">
    <rect id="Rectangle_6744" data-name="Rectangle 6744" width="197" height="150" transform="translate(-0.044 0.212)" fill="none"/>
    <g id="Layer_2_2_" transform="translate(5.561 29.856)">
      <g id="content_1_" transform="translate(0 0)">
        <path id="Path_55501" data-name="Path 55501" d="M0,47.457C.105,33.479,11.456,13.509,34.579,9.83c19.444-3.153,29.639,6.411,32.162,11.982,4.414,9.775-8.093,16.4-15.871,18.288,5.465-2,13.033-6.937,11.036-15.661-1.051-4.2-7.042-12.823-25.225-10.826C23.438,15.085,5.045,25.281,10.51,53.554A26.959,26.959,0,0,0,0,47.457Z" transform="translate(0 0.461)" fill="url(#linear-gradient)"/>
        <path id="Path_55502" data-name="Path 55502" d="M21.008,2.5C4.612,4.184,2.615,43.913,37.3,43.073c12.612-.315,34.789-9.459,28.273-22.6,7.883,12.612-4.519,30.8-27.958,32.267C10.077,54.424,2.4,29.935,8.29,11.857,10.287,5.761,15.753,1.977,21.008,2.5Z" transform="translate(0.328 0.116)" fill="url(#linear-gradient-2)"/>
        <path id="Path_55503" data-name="Path 55503" d="M8.3,11.666C11.874.84,21.753-3.469,30.477,3.153c19.97,15.24,13.453,73.678,3.679,91.861a26.544,26.544,0,0,0-7.567-7.357,34.759,34.759,0,0,0-8.513-3.889s1.892-1.787,2.522-2.417C44.035,57.6,39.621,1.471,20.7,2.627,16.078,2.942,10.4,5.885,8.3,11.666Z" transform="translate(0.424 -0.009)" fill="url(#linear-gradient-3)"/>
        <path id="Path_55504" data-name="Path 55504" d="M85.564,14.931a23.134,23.134,0,0,1-3.889.736v1.051h4.309v.841H81.676v2.207h2.733v5.15h-.946v-.631H78.838v.631H78.1V20.081c-.526.21-.946.42-1.471.631L76,19.976a7.721,7.721,0,0,0,3.889-2.417H76.631v-.841H80.94v-.946c-1.051.105-2.312.21-3.468.21l-.631-.841a31.724,31.724,0,0,0,8.2-.841Zm-4.73,2.838a6.07,6.07,0,0,1-2.1,1.892h2.1Zm2.733,2.838H78.943v.946h4.625Zm0,2.838V22.393H78.943v1.051Zm-1.051-5.886a9.985,9.985,0,0,1,3.994,2.207l-.631.736a8.687,8.687,0,0,0-4.1-2.207Z" transform="translate(3.879 0.721)" fill="#6e1e6f"/>
        <path id="Path_55505" data-name="Path 55505" d="M90.692,19.345A2.972,2.972,0,0,0,88.8,17.874l.526-.631a3.764,3.764,0,0,1,2,1.577Zm.841,1.156a9.9,9.9,0,0,1-1.682,4.414l-.841-.526A11.424,11.424,0,0,0,90.8,20.081l.841.315a4.738,4.738,0,0,0,2-1.787H91.743v-.841H93.53V16.507H92.163v-.841H93.53V14.3h.946v1.366h2V14.3h.946v1.366h1.366v.841H97.419v1.261h1.787v.841H97.313a6.341,6.341,0,0,0,2.417,2l-.631.736a4,4,0,0,1-1.366-.946v2.1H94.055v.736c0,.21,0,.42.315.42h3.153c.42,0,.42-.42.526-1.156h.841c0,.946-.105,2-1.261,2H93.95A.858.858,0,0,1,93,23.654V20.5a4.34,4.34,0,0,1-1.156.736Zm-.42-3.889a3.26,3.26,0,0,0-1.892-1.471l.736-.631a3.26,3.26,0,0,1,1.892,1.471ZM94.476,18.5a2.181,2.181,0,0,1-.631,1.051H97a3.774,3.774,0,0,1-.736-1.051Zm-.42,3.048h2.733V20.5H94.055Zm.315-5.15v1.261h2V16.4Z" transform="translate(4.532 0.721)" fill="#6e1e6f"/>
        <path id="Path_55506" data-name="Path 55506" d="M102.5,21.767v-5.36h3.994V14.2h.946v2.207h3.994v5.36h-1.051v-.841H107.44v4.1h-.946v-4.1h-2.943v.841Zm3.994-4.519h-2.943v2.733H106.6Zm3.889,0H107.44v2.733h2.943Z" transform="translate(5.232 0.716)" fill="#6e1e6f"/>
        <path id="Path_55507" data-name="Path 55507" d="M114.6,24.2a13.26,13.26,0,0,0,4.73-2.312,8.968,8.968,0,0,1-2.207-4.73h-2v-.946h4.835a4.336,4.336,0,0,0-1.787-1.577l.736-.631a4.881,4.881,0,0,1,1.892,1.682l-.631.526h4.519v.946H122.8a8.82,8.82,0,0,1-2.1,4.73,14.674,14.674,0,0,0,4.625,2.312l-.631.736a14.431,14.431,0,0,1-4.73-2.417,16.107,16.107,0,0,1-4.73,2.522Zm3.363-7.042a7.406,7.406,0,0,0,1.892,4.1,8.641,8.641,0,0,0,1.892-4.1Z" transform="translate(5.849 0.705)" fill="#6e1e6f"/>
        <path id="Path_55508" data-name="Path 55508" d="M128.236,17.994v-.946h3.784A29.528,29.528,0,0,0,132.125,14a3.242,3.242,0,0,0,.946.105,28.528,28.528,0,0,1-.105,2.943h4.309v.946H133.7a7.716,7.716,0,0,0,4.1,5.886l-.631.736a8.035,8.035,0,0,1-4.309-6.622c-.631,3.363-1.892,5.15-4.625,6.622l-.736-.841a7.661,7.661,0,0,0,4.309-5.781Z" transform="translate(6.508 0.705)" fill="#6e1e6f"/>
        <path id="Path_55509" data-name="Path 55509" d="M144.819,23.99a.385.385,0,0,0,.42-.42v-.631H140.3V22.1h4.94v-.526l1.261-.42h-4.309v-.841h6.516v.736a12.324,12.324,0,0,1-2.522.946h4.625v.841h-4.73v1.051a.818.818,0,0,1-.736.946h0a3.981,3.981,0,0,1-1.577,0l-.736-.946h1.787Zm1.682-4.94c-.315-.315-.631-.526-.946-.841a5.663,5.663,0,0,1-1.366.736l-.631-.526a4.339,4.339,0,0,0,1.156-.736c-.315-.105-.736-.21-1.051-.315l.526-.631a5.924,5.924,0,0,1,1.261.42l.736-.736.631.526c-.21.21-.315.42-.526.631a3.626,3.626,0,0,1,.946.841l-.526.526h2l.105-.841h-1.682v-.841h1.682l.105-.631h-1.787v-.841h1.892l.105-.526h-2.1v-.841h3.153l-.42,4.414h.736v1.787h-.841v-.946h-8.093v1.051h-.946V18.84h.841l-.42-3.994a4.524,4.524,0,0,0,2.417-.946l.526.631a6.971,6.971,0,0,1-2,.946v.42h1.892c.315-.21.631-.315.946-.526-.315-.105-.736-.21-1.051-.315l.42-.736a10.785,10.785,0,0,0,1.471.42,5.264,5.264,0,0,0,.736-.841l.631.526a4.571,4.571,0,0,1-.631.736c.315.21.526.42.841.631l-.526.736a6.8,6.8,0,0,0-.946-.841,11.076,11.076,0,0,1-1.156.736l-.526-.42v.736h-2l.105.631h1.787v.841H142.3l.105.736h4.1Z" transform="translate(7.161 0.7)" fill="#6e1e6f"/>
        <path id="Path_55510" data-name="Path 55510" d="M163.731,20.381h-3.889V20.7h2.943v4.2h-.946v-.526H154.9v.631h-.946V20.7h2.838v-.315H152.8V19.54h10.826Zm-5.465-3.889c.841-.105,1.051-.526,1.051-1.156V14.6h2.943v.946c0,.21,0,.315.315.315h.946V16.6h-1.366a.664.664,0,0,1-.736-.736v-.42h-1.261a2,2,0,0,1-.526,1.366h2.943v.631a6.8,6.8,0,0,1-.841.946,6.12,6.12,0,0,0,2,.315l-.42.736A5.728,5.728,0,0,1,161,18.909a6.22,6.22,0,0,1-2,.526l-.315-.42v.21h-5.045V14.705h5.045v.736h-2.522a.367.367,0,0,1-.105.21h2.1v.631h-.946v.42h1.261Zm-3.153.315-.42-.42a6.8,6.8,0,0,0,.946-.841h-1.051v3.048h.21l-.21-.736c.631,0,1.471-.105,1.682-.42H154.8v-.631Zm-.105,5.15c.631,0,1.471-.105,1.682-.526h-1.682v2.1h6.832v-2.1h-2v.21c0,.105.105.105.21.105h1.577v.736h-1.682a1.494,1.494,0,0,1-.631-.21,1.193,1.193,0,0,1-.315-.841H157.74a2.2,2.2,0,0,1-1.577,1.156H161v.841h-5.15V22.8h-.42Zm1.366-5.255v-.42h-.631a1.452,1.452,0,0,1-.42.315Zm1.577,1.787a7.741,7.741,0,0,0-1.471-.42,1.868,1.868,0,0,1-1.051.42Zm-.841-1.051h0a8.855,8.855,0,0,1,1.471.631l-.21.526h.42v.315c.526-.105,1.051-.21,1.471-.315a2.833,2.833,0,0,1-.736-.841h-.315v-.631l-.42.105-.105-.315v.42h-1.577Zm.631,3.258H158.9v-.315H157.74Zm2.628-3.153a1.049,1.049,0,0,0,.526.42,1.267,1.267,0,0,0,.526-.526Z" transform="translate(7.799 0.736)" fill="#6e1e6f"/>
        <path id="Path_55511" data-name="Path 55511" d="M166.2,25.036v-10.3h3.153v.736l-.946,2.628a4.339,4.339,0,0,1,.736,1.156,2.067,2.067,0,0,1-.105,2.312c-.315.42-.841.631-1.892.315l-.105-.526v3.679Zm.841-4.1c.42.21.946.42,1.261.105a1.992,1.992,0,0,0-.526-2.207l-.526-.526,1.051-2.733h-1.261Zm2.522-1.366h5.886v.841h-1.682v2.838a.279.279,0,0,0,.315.315h.631c.315,0,.42-.42.631-1.787l.841.42c-.315,1.366-.42,2.1-1.471,2.207h-.946c-.841,0-.946-.526-.946-1.051V20.411h-.841c-.105,1.366-.105,3.679-3.468,4.625l-.631-.841c2.628-.631,3.153-2.1,3.153-3.889h-1.471v-.736Zm5.255-2.207V16.312h-4.625v1.156h-.946v-2h2.733a2.8,2.8,0,0,0-1.471-.736l.736-.736a3.383,3.383,0,0,1,1.892,1.261l-.21.105h2.838v1.892Zm0,.21v.841H170.3v-.841Z" transform="translate(8.483 0.705)" fill="#6e1e6f"/>
        <path id="Path_55512" data-name="Path 55512" d="M86.69,74.672H85.113V64.582l-3.048,6.832h-.946l-3.048-6.832v10.09H76.6V62.9h2.1l2.943,6.516L84.483,62.9H86.69Z" transform="translate(3.91 3.201)" fill="#6e1e6f"/>
        <path id="Path_55513" data-name="Path 55513" d="M92.315,74.749a4.552,4.552,0,0,1-3.258-1.156A4.646,4.646,0,0,1,87.9,70.23a4.8,4.8,0,0,1,1.156-3.468A3.817,3.817,0,0,1,92,65.5a7.1,7.1,0,0,1,1.471.21,1.928,1.928,0,0,1,1.051.736,3.635,3.635,0,0,1,.736,1.261,3.374,3.374,0,0,1,.21,1.787v.841h-6.1a3.077,3.077,0,0,0,.736,2.312,3.125,3.125,0,0,0,2.1.841,2.91,2.91,0,0,0,.946-.105c.315-.105.526-.21.841-.315l.631-.315a1.451,1.451,0,0,0,.42-.315h.105v1.577l-.631.21a1.519,1.519,0,0,1-.736.21c-.315.105-.526.105-.841.21C92.841,74.749,92.525,74.749,92.315,74.749ZM94,69.179a3.576,3.576,0,0,0-.105-1.051,5.124,5.124,0,0,0-.315-.736,2.787,2.787,0,0,0-.631-.526,3.11,3.11,0,0,0-1.051-.21,1.9,1.9,0,0,0-1.051.21,2.462,2.462,0,0,0-1.261,1.261,3.069,3.069,0,0,0-.21.946H94Z" transform="translate(4.486 3.334)" fill="#6e1e6f"/>
        <path id="Path_55514" data-name="Path 55514" d="M103.557,74.692h-1.471v-.841c-.21.21-.42.315-.631.526a7.063,7.063,0,0,1-1.261.631,1.789,1.789,0,0,1-.736.105,3.236,3.236,0,0,1-1.366-.315,4.115,4.115,0,0,1-1.051-.841,3.685,3.685,0,0,1-.631-1.471,7.727,7.727,0,0,1,.105-3.994,4.124,4.124,0,0,1,.841-1.471,3.286,3.286,0,0,1,1.156-.946,3.357,3.357,0,0,1,1.471-.315,4.312,4.312,0,0,1,1.156.105,4.392,4.392,0,0,1,1.051.42V62.5h1.471Zm-1.471-2.207V67.44a3.734,3.734,0,0,0-.946-.42,2.91,2.91,0,0,0-.946-.105,2.245,2.245,0,0,0-1.787.841,3.524,3.524,0,0,0-.631,2.522A4.791,4.791,0,0,0,98.3,72.7a1.853,1.853,0,0,0,1.577.841,2.119,2.119,0,0,0,1.156-.315A6.381,6.381,0,0,0,102.086,72.485Z" transform="translate(4.91 3.181)" fill="#6e1e6f"/>
        <path id="Path_55515" data-name="Path 55515" d="M106.782,64.377H105.1V62.8h1.682Zm-.105,10.3h-1.471V65.848h1.471Z" transform="translate(5.364 3.196)" fill="#6e1e6f"/>
        <path id="Path_55516" data-name="Path 55516" d="M112.3,74.744a4.76,4.76,0,0,1-1.682-.315,2.68,2.68,0,0,1-1.261-.841,4.123,4.123,0,0,1-.841-1.471,6.6,6.6,0,0,1-.315-2,6.119,6.119,0,0,1,.315-2,3.018,3.018,0,0,1,.841-1.366,2.445,2.445,0,0,1,1.261-.841A4.357,4.357,0,0,1,112.3,65.6a6.151,6.151,0,0,1,1.366.21c.42.105.841.315,1.261.42v1.682h-.105a1.45,1.45,0,0,0-.42-.315l-.631-.315c-.21-.105-.526-.21-.736-.315a2.049,2.049,0,0,0-.841-.105,2.632,2.632,0,0,0-1.892.841,4.653,4.653,0,0,0,0,4.94,1.935,1.935,0,0,0,1.892.841,2.909,2.909,0,0,0,1.366-.315,4.34,4.34,0,0,0,1.156-.736h.105v1.682l-.526.21a1.494,1.494,0,0,1-.631.21c-.21.105-.526.105-.631.21Z" transform="translate(5.523 3.339)" fill="#6e1e6f"/>
        <path id="Path_55517" data-name="Path 55517" d="M121.071,73.593c-.105.105-.315.21-.526.42-.21.105-.42.315-.631.42s-.526.21-.736.315a3.24,3.24,0,0,1-1.051.105,3.022,3.022,0,0,1-1.892-.736,2.032,2.032,0,0,1-.526-.946,3.779,3.779,0,0,1-.21-1.156,2.966,2.966,0,0,1,.42-1.577,3.09,3.09,0,0,1,1.261-1.051,4.951,4.951,0,0,1,1.787-.42c.631-.105,1.366-.105,2.207-.21v-.315a2.314,2.314,0,0,0-.105-.841,1.049,1.049,0,0,0-.42-.526,1.519,1.519,0,0,0-.736-.21c-.315,0-.526-.105-.841-.105-.42,0-.841.105-1.261.105a5.2,5.2,0,0,0-1.366.42h-.105V65.815a3.244,3.244,0,0,1,1.156-.21,7.446,7.446,0,0,1,1.471-.105,6.464,6.464,0,0,1,1.471.105,5.633,5.633,0,0,1,1.156.526,2.289,2.289,0,0,1,.736.946,3.1,3.1,0,0,1,.21,1.366v5.991h-1.471Zm0-1.261V69.914l-1.366.105a5.276,5.276,0,0,0-1.261.21,2.756,2.756,0,0,0-.946.526,1.349,1.349,0,0,0-.42,1.051,1.581,1.581,0,0,0,.42,1.156,1.835,1.835,0,0,0,1.261.42,2.8,2.8,0,0,0,1.261-.315c.315-.21.631-.42,1.051-.736Z" transform="translate(5.895 3.334)" fill="#6e1e6f"/>
        <path id="Path_55518" data-name="Path 55518" d="M125.571,74.7H124.1V62.4h1.471Z" transform="translate(6.334 3.176)" fill="#6e1e6f"/>
        <path id="Path_55519" data-name="Path 55519" d="M137.755,74.892a4.706,4.706,0,0,1-2.1-.42,4.4,4.4,0,0,1-1.682-1.156,4.2,4.2,0,0,1-1.051-1.892,7.256,7.256,0,0,1-.42-2.628,6.7,6.7,0,0,1,.42-2.523,5.511,5.511,0,0,1,1.051-1.892,5.059,5.059,0,0,1,1.682-1.261,4.705,4.705,0,0,1,2.1-.42,4.311,4.311,0,0,1,1.156.105c.315.105.631.105.946.21a5.123,5.123,0,0,1,.736.315,1.694,1.694,0,0,1,.736.42v1.892h-.105a2.293,2.293,0,0,0-.526-.42,5.843,5.843,0,0,0-1.787-.946,2.588,2.588,0,0,0-1.261-.105,2.909,2.909,0,0,0-1.366.315,3.286,3.286,0,0,0-1.156.946,3.883,3.883,0,0,0-.736,1.471,6.6,6.6,0,0,0-.315,2,7.283,7.283,0,0,0,.315,2.1,4.124,4.124,0,0,0,.841,1.471,2.981,2.981,0,0,0,1.156.841,3.237,3.237,0,0,0,1.366.315,2.666,2.666,0,0,0,1.261-.21,4.392,4.392,0,0,0,1.051-.42,1.885,1.885,0,0,0,.736-.526c.21-.21.42-.315.526-.42h.105v1.892l-.736.315c-.315.105-.526.21-.841.315a3.069,3.069,0,0,1-.946.21A4.311,4.311,0,0,1,137.755,74.892Z" transform="translate(6.763 3.191)" fill="#6e1e6f"/>
        <path id="Path_55520" data-name="Path 55520" d="M146.315,74.749a4.553,4.553,0,0,1-3.258-1.156A4.646,4.646,0,0,1,141.9,70.23a4.8,4.8,0,0,1,1.156-3.468A3.817,3.817,0,0,1,146,65.5a7.1,7.1,0,0,1,1.471.21,1.927,1.927,0,0,1,1.051.736,3.634,3.634,0,0,1,.736,1.261,3.374,3.374,0,0,1,.21,1.787v.841h-6.1a3.077,3.077,0,0,0,.736,2.312,3.125,3.125,0,0,0,2.1.841,2.91,2.91,0,0,0,.946-.105c.315-.105.526-.21.841-.315l.631-.315a1.45,1.45,0,0,0,.42-.315h.105v1.577l-.631.21a1.519,1.519,0,0,1-.736.21,6.7,6.7,0,0,0-.736.21A1.558,1.558,0,0,1,146.315,74.749ZM148,69.179c0-.315-.105-.736-.105-1.051a5.12,5.12,0,0,0-.315-.736,2.786,2.786,0,0,0-.631-.526,3.109,3.109,0,0,0-1.051-.21,2.354,2.354,0,0,0-1.787.736,3.2,3.2,0,0,0-.526.736,3.069,3.069,0,0,0-.21.946H148Z" transform="translate(7.242 3.334)" fill="#6e1e6f"/>
        <path id="Path_55521" data-name="Path 55521" d="M157.637,74.554h-1.471V69.509a4.311,4.311,0,0,0-.105-1.156,2.474,2.474,0,0,0-.21-.841,1.267,1.267,0,0,0-.526-.526,2.474,2.474,0,0,0-.841-.21,2.4,2.4,0,0,0-1.156.315,4.34,4.34,0,0,0-1.156.736v6.516H150.7V65.515h1.471v.946l1.261-.946A2.909,2.909,0,0,1,154.8,65.2a2.871,2.871,0,0,1,2,.841,3.589,3.589,0,0,1,.736,2.522Z" transform="translate(7.692 3.319)" fill="#6e1e6f"/>
        <path id="Path_55522" data-name="Path 55522" d="M161.874,74.861a2.533,2.533,0,0,1-1.892-.736,3.077,3.077,0,0,1-.631-2.207V67.084H158.3V65.823h1.051V63.3h1.471v2.523h2.733v1.261h-2.733v5.255a1.494,1.494,0,0,0,.21.631.821.821,0,0,0,.42.42,3,3,0,0,0,1.577,0c.21,0,.315-.105.525-.21h.105v1.366c-.315.105-.526.105-.841.21C162.4,74.756,162.189,74.861,161.874,74.861Z" transform="translate(8.08 3.222)" fill="#6e1e6f"/>
        <path id="Path_55523" data-name="Path 55523" d="M169.025,67.287h0c-.21,0-.315-.105-.42-.105h-.42a3.779,3.779,0,0,0-1.156.21,4.34,4.34,0,0,0-1.156.736v6.2H164.4V65.5h1.471v1.577a11.894,11.894,0,0,1,1.366-1.051,2.119,2.119,0,0,1,1.156-.315h.525Z" transform="translate(8.391 3.334)" fill="#6e1e6f"/>
        <path id="Path_55524" data-name="Path 55524" d="M173.815,74.749a4.552,4.552,0,0,1-3.258-1.156A4.646,4.646,0,0,1,169.4,70.23a4.8,4.8,0,0,1,1.156-3.468A3.817,3.817,0,0,1,173.5,65.5a7.1,7.1,0,0,1,1.471.21,1.927,1.927,0,0,1,1.051.736,3.635,3.635,0,0,1,.736,1.261,3.374,3.374,0,0,1,.21,1.787v.841h-6.1a3.077,3.077,0,0,0,.736,2.312,3.125,3.125,0,0,0,2.1.841,2.91,2.91,0,0,0,.946-.105c.315-.105.526-.21.841-.315l.631-.315a1.45,1.45,0,0,0,.42-.315h.105v1.577l-.631.21a1.519,1.519,0,0,1-.736.21,6.7,6.7,0,0,0-.736.21C174.446,74.749,174.13,74.749,173.815,74.749Zm1.787-5.571c0-.315-.105-.736-.105-1.051a5.123,5.123,0,0,0-.315-.736,2.787,2.787,0,0,0-.631-.526,3.11,3.11,0,0,0-1.051-.21,2.354,2.354,0,0,0-1.787.736,3.194,3.194,0,0,0-.526.736,3.069,3.069,0,0,0-.21.946H175.6Z" transform="translate(8.645 3.334)" fill="#6e1e6f"/>
        <path id="Path_55525" data-name="Path 55525" d="M89.558,29.3a12.617,12.617,0,0,0-9.88,4.1C77.261,36.132,76,39.916,76,44.54c0,4.835,1.261,8.619,3.679,11.246a12.746,12.746,0,0,0,9.88,3.994,15.91,15.91,0,0,0,3.153-.21c.841-.21,1.682-.42,2.417-.631a17.523,17.523,0,0,0,2.1-.841l1.471-.736v-6.1a6.8,6.8,0,0,0-.946.841,11.474,11.474,0,0,1-1.787,1.366,9.523,9.523,0,0,1-2.312,1.156,8.124,8.124,0,0,1-5.886,0,8.219,8.219,0,0,1-2.733-1.787,8.437,8.437,0,0,1-2-3.363,15.633,15.633,0,0,1-.736-4.94,14.992,14.992,0,0,1,.736-4.835,9.623,9.623,0,0,1,1.892-3.363,7.365,7.365,0,0,1,2.733-2,7.459,7.459,0,0,1,3.048-.526,7.9,7.9,0,0,1,2.733.526A15.822,15.822,0,0,1,95.76,35.5a21.314,21.314,0,0,1,1.892,1.366c.42.42.841.736,1.051.946v-6.2c-.42-.21-.946-.42-1.577-.736a12.526,12.526,0,0,0-2.1-.841A21.526,21.526,0,0,0,92.5,29.51,25.838,25.838,0,0,0,89.558,29.3Z" transform="translate(3.879 1.486)" fill="#6e1e6f"/>
        <path id="Path_55526" data-name="Path 55526" d="M101.2,29.9V48.714c0,3.679.946,6.411,2.943,8.2q3,2.838,8.513,2.838c3.784,0,6.727-.946,8.619-2.838s2.838-4.625,2.838-8.2V29.9h-6.1V48.293a8.65,8.65,0,0,1-1.261,5.15,4.826,4.826,0,0,1-4.1,1.682,4.886,4.886,0,0,1-4.1-1.787,8.734,8.734,0,0,1-1.261-5.045V29.9Z" transform="translate(5.165 1.517)" fill="#6e1e6f"/>
        <path id="Path_55527" data-name="Path 55527" d="M144.332,59.119h6.1V29.9h-6.1V41.041H133.3V29.9h-6.1V59.119h6.1V45.666h11.036Z" transform="translate(6.492 1.517)" fill="#6e1e6f"/>
        <path id="Path_55528" data-name="Path 55528" d="M169.791,59.124h7.357l-10.3-15.766L176.623,29.8h-6.937L159.6,44.62V29.905h-6.1V59.124h6.1v-9.88l2-2.943Z" transform="translate(7.835 1.512)" fill="#6e1e6f"/>
      </g>
    </g>
  </g>
</svg>
