<svg xmlns="http://www.w3.org/2000/svg" width="287" height="150" viewBox="0 0 287 150">
  <g id="Group_23759" data-name="Group 23759" transform="translate(0.057 -0.212)">
    <rect id="Rectangle_6733" data-name="Rectangle 6733" width="287" height="150" transform="translate(-0.057 0.212)" fill="none"/>
    <g id="圖層_2" data-name="圖層 2" transform="translate(0 29.893)">
      <g id="navi" transform="translate(0 0)">
        <path id="Path_55362" data-name="Path 55362" d="M129.325,45.76a21.594,21.594,0,0,1-5.336-.9,11.623,11.623,0,0,0,2.883-2.51,1.391,1.391,0,0,0,.136-1.436,1.21,1.21,0,0,0-1.131-.7h-8.728a.758.758,0,0,0-.8.633v-.068a.78.78,0,0,0-.577-.215h-4a9.656,9.656,0,0,0,.192-1.685h3.177a.712.712,0,0,0,.769-.712.7.7,0,0,0-.769-.69H109.4c.113-.373.2-.757.283-1.131h6.083a.7.7,0,1,0,0-1.4h-9.542a1.956,1.956,0,0,0-1.967,1.786v8.231a1.82,1.82,0,0,0,1.933,1.809h9.271a.7.7,0,1,0,0-1.4h-8.886c-.633,0-.882-.226-.882-.8V37.145c0-.6.249-.825.916-.825h1.7a4.647,4.647,0,0,1-1.673,2.849A.69.69,0,1,0,107.5,40.2a7.292,7.292,0,0,0,1.232-1.323h1.877a7.914,7.914,0,0,1-.249,1.685h-3.641a.7.7,0,0,0-.735.712.69.69,0,0,0,.735.69H109.8a5.257,5.257,0,0,1-2.623,2,.746.746,0,0,0-.5.588.656.656,0,0,0,.249.588.837.837,0,0,0,.837,0A6.648,6.648,0,0,0,111,42.662c1.131.769,2.024,1.492,3.064,2.34a.78.78,0,0,0,.791.158.712.712,0,0,0,.441-.565.814.814,0,0,0-.339-.757c-.554-.418-1.583-1.187-2.657-1.922h3.392a.724.724,0,0,0,.769-.644.147.147,0,0,0,.068.079.769.769,0,0,0,.565.2h1.244a.633.633,0,0,0-.339.384.769.769,0,0,0,.26.78,11.431,11.431,0,0,0,2.487,2.1,17.423,17.423,0,0,1-3.844.893.712.712,0,0,0-.69.735.724.724,0,0,0,.837.6,16.88,16.88,0,0,0,5.246-1.436,22.612,22.612,0,0,0,6.931,1.492h.079a.78.78,0,0,0,.667-.328.678.678,0,0,0,0-.656A.8.8,0,0,0,129.325,45.76Zm-3.878-3.968a11.374,11.374,0,0,1-3.188,2.34,9.667,9.667,0,0,1-3.007-2.261,1.131,1.131,0,0,0-.35-.26h6.546a.351.351,0,0,1,.17,0A.313.313,0,0,1,125.447,41.791Z" transform="translate(13.593 4.574)" fill="#02457a"/>
        <path id="Path_55363" data-name="Path 55363" d="M129.452,46.4H103.607a.735.735,0,0,0-.837.69.757.757,0,0,0,.837.712h9.35a10.174,10.174,0,0,1-.26,2.1h-5.291a1.8,1.8,0,0,0-1.786,1.752v6.207a1.707,1.707,0,0,0,1.843,1.73h18.09a1.8,1.8,0,0,0,1.9-1.73V51.692a1.786,1.786,0,0,0-1.809-1.786h-5.936V47.8h9.746a.712.712,0,0,0,.712-.724A.7.7,0,0,0,129.452,46.4ZM126.06,56.859v.622c0,.52-.181.678-.746.678H107.79c-.633,0-.8-.147-.8-.7v-.6Zm-18.09-3.471a.791.791,0,0,0-.667.486.622.622,0,0,0,.09.644.7.7,0,0,0,.735.226c3.166-.5,4.749-1.458,5.653-3.392h4.59v1.481a1.7,1.7,0,0,0,1.843,1.7h2.849a2.035,2.035,0,0,0,1.73-.961,9.99,9.99,0,0,0,.464-.916.678.678,0,0,0-.09-.7.712.712,0,0,0-.667-.249.69.69,0,0,0-.531.464,2.72,2.72,0,0,1-.124.26l-.1.181a.837.837,0,0,1-.825.5h-2.465c-.486,0-.678-.181-.678-.633V51.342h5.585a.678.678,0,0,1,.746.735v3.392H106.987V52.02a.656.656,0,0,1,.746-.712h4.421c-.735,1.357-2.058,1.786-4.206,2.08Zm6.173-3.482a14.324,14.324,0,0,0,.2-2.1h3.98v2.1Z" transform="translate(13.399 6.069)" fill="#02457a"/>
        <path id="Path_55364" data-name="Path 55364" d="M114.354,39.55a.644.644,0,0,0,.633.43.916.916,0,0,0,.283,0c1.865-.565,2.883-1.572,3.132-3.053.079-.5.283-.678.746-.678h2.431c.418,0,.622.215.622.656v.916a1.639,1.639,0,0,0,1.673,1.549h1.865a1.888,1.888,0,0,0,1.843-1.4,11.2,11.2,0,0,0,.158-1.425.7.7,0,0,0-.678-.746.644.644,0,0,0-.633.69,3.5,3.5,0,0,1-.124.916.656.656,0,0,1-.712.6h-1.334c-.486,0-.678-.181-.678-.622v-.927a1.594,1.594,0,0,0-1.707-1.662h-3.166a1.5,1.5,0,0,0-1.605,1.436,2.815,2.815,0,0,1-2.261,2.431.69.69,0,0,0-.486.893Z" transform="translate(14.907 4.554)" fill="#02457a"/>
        <path id="Path_55365" data-name="Path 55365" d="M155.663,47.631a.78.78,0,0,0-.079,1.131,50.368,50.368,0,0,1,4.149,6.931.825.825,0,0,0,.678.531h0a.7.7,0,0,0,.588-.305.791.791,0,0,0,0-.825,40.473,40.473,0,0,0-4.262-7.179.825.825,0,0,0-1.074-.283Z" transform="translate(20.269 6.219)" fill="#02457a"/>
        <path id="Path_55366" data-name="Path 55366" d="M163.687,48.3a.859.859,0,0,0-1.221-.226.825.825,0,0,0,0,1.131,43.618,43.618,0,0,1,6.015,9.045.825.825,0,0,0,.746.531.758.758,0,0,0,.317-.068.848.848,0,0,0,.339-1.131,41.458,41.458,0,0,0-6.2-9.282Z" transform="translate(21.165 6.268)" fill="#02457a"/>
        <path id="Path_55367" data-name="Path 55367" d="M165.42,52.712a.837.837,0,0,0-.893.78,16.112,16.112,0,0,1-.588,2.589,2.51,2.51,0,0,1-1.967,1.956,16.111,16.111,0,0,1-7.236-.305c-1.413-.362-1.967-1.3-1.967-3.324v-5.89a.871.871,0,0,0-.215-.622.644.644,0,0,0-.5-.226.78.78,0,0,0-.746.848v5.823c0,1.8.271,3.934,2.4,4.635a18.519,18.519,0,0,0,5.506.8,12.923,12.923,0,0,0,3.279-.362,3.833,3.833,0,0,0,2.8-2.8,19.322,19.322,0,0,0,.656-2.872C166.065,53.119,165.759,52.78,165.42,52.712Z" transform="translate(19.737 6.236)" fill="#02457a"/>
        <path id="Path_55368" data-name="Path 55368" d="M149.051,48.649h17.728a2.1,2.1,0,0,0,2.329-2.046V37.366a1.967,1.967,0,0,0-2.2-2.024h-17.8a2.058,2.058,0,0,0-2.318,2.08V46.6a2.046,2.046,0,0,0,2.261,2.046ZM157.4,42.5v4.692h-8.344c-.52,0-.825-.271-.825-.746V42.5Zm-8.457-5.653H157.4v4.183h-9.169v-3.5a.633.633,0,0,1,.712-.69Zm9.915,4.183V36.846h8.016c.565,0,.837.26.837.791v3.392Zm0,6.173V42.5h8.853v3.889a.8.8,0,0,1-.837.8Z" transform="translate(19.147 4.624)" fill="#02457a"/>
        <path id="Path_55369" data-name="Path 55369" d="M149.379,47.921a.735.735,0,0,0-.837.69,18.089,18.089,0,0,1-3.923,8.819.927.927,0,0,0-.215.893.667.667,0,0,0,.543.43h.136a.972.972,0,0,0,.757-.407h0a19.367,19.367,0,0,0,4.127-9.452.78.78,0,0,0-.588-.972Z" transform="translate(18.831 6.268)" fill="#02457a"/>
        <path id="Path_55370" data-name="Path 55370" d="M212.727,40.9h-1.7v-1.99a2.092,2.092,0,0,0-2.171-2.046h-4.127V34.841a.7.7,0,0,0-1.4,0v2.024h-5.02a.746.746,0,0,0-.543.192.633.633,0,0,0-.192.452.7.7,0,0,0,.735.69h5.02v2.7h-7.564a.678.678,0,1,0,0,1.345h7.564v2.872h-5.37a.667.667,0,0,0,0,1.334h5.37v2.77h-5.314a.667.667,0,0,0,0,1.334h5.314v2.759h-6.15a.678.678,0,0,0-.7.69.656.656,0,0,0,.181.452.7.7,0,0,0,.52.2h6.15v3.912a.7.7,0,1,0,1.4,0V54.66h7.1a.678.678,0,1,0,0-1.345h-7.1V50.556h6.207a.668.668,0,1,0,0-1.334h-6.207v-2.8h4.07a2.329,2.329,0,0,0,2.261-2.193V42.246h1.7a.667.667,0,0,0,.69-.678.656.656,0,0,0-.724-.667Zm-7.993,0V38.2h3.833a.972.972,0,0,1,1.131.984V40.9Zm4.9,1.345v1.719a1.131,1.131,0,0,1-1.21,1.131h-3.686V42.246Z" transform="translate(25.444 4.469)" fill="#02457a"/>
        <path id="Path_55371" data-name="Path 55371" d="M191.125,35.22a.633.633,0,0,0-.622-.69.678.678,0,0,0-.746.6v.52c-.339,3.81-.769,8.547-3.087,13.16a.633.633,0,0,0,0,.644.791.791,0,0,0,.69.328.656.656,0,0,0,.543-.407c.339-.712.735-1.639,1.029-2.419V61.5a.644.644,0,0,0,.678.667.656.656,0,0,0,.69-.667V42.772C190.639,40.285,190.978,37.662,191.125,35.22Z" transform="translate(24.344 4.52)" fill="#02457a"/>
        <path id="Path_55372" data-name="Path 55372" d="M213.063,59.218H210.8a49.463,49.463,0,0,1-10.288-.577,8.423,8.423,0,0,1-4.635-2.657,19.854,19.854,0,0,0,1.221-8.231,1.786,1.786,0,0,0-1.752-1.8h-2.08c-.113,0-.26,0-.305-.113a.486.486,0,0,1,.079-.441c.859-1.5,3.12-5.653,3.957-7.247a1.752,1.752,0,0,0,0-1.685,1.312,1.312,0,0,0-1.131-.611h-4.24a.667.667,0,1,0,0,1.334h3.765a.351.351,0,0,1,.328.136.283.283,0,0,1,0,.294c-1.131,2.058-2.906,5.4-3.98,7.3a1.7,1.7,0,0,0-.124,1.673,1.639,1.639,0,0,0,1.5.69h1.9c.543,0,.69.305.746.882a17.015,17.015,0,0,1-.882,6.557,18.666,18.666,0,0,1-2.668-6.275.712.712,0,0,0-.871-.6.667.667,0,0,0-.486.848,18.757,18.757,0,0,0,3.245,7.541,14.416,14.416,0,0,1-3.5,4.647.6.6,0,0,0-.226.6.735.735,0,0,0,.486.543h.192a.69.69,0,0,0,.43-.17,18.611,18.611,0,0,0,3.674-4.522,10.175,10.175,0,0,0,4.522,2.51c2.8.825,8,.769,12.188.735h1.255a.667.667,0,0,0,.7-.678.656.656,0,0,0-.757-.69Z" transform="translate(24.837 4.694)" fill="#02457a"/>
        <path id="Path_55373" data-name="Path 55373" d="M252.436,48.364a.735.735,0,0,0-.724.17,42.77,42.77,0,0,1-5.416,3.946.8.8,0,0,0-.407.724.7.7,0,0,0,.362.6.871.871,0,0,0,.294.068.8.8,0,0,0,.441-.158,56.873,56.873,0,0,0,5.653-4.07.7.7,0,0,0,.271-.667A.712.712,0,0,0,252.436,48.364Z" transform="translate(32.09 6.322)" fill="#02457a"/>
        <path id="Path_55374" data-name="Path 55374" d="M256.688,45.988a.758.758,0,0,0-.52-1.232h-2.883V42.4a1.786,1.786,0,0,0-1.82-1.7H244.4V38.662h10.876a.735.735,0,1,0,0-1.458H243.969V34.942a.712.712,0,0,0-1.425,0V37.2h-8.977a2.34,2.34,0,0,0-2.3,2.533v8.016a31.443,31.443,0,0,1-2.261,12.086.678.678,0,1,0,1.221.577,30.346,30.346,0,0,0,2.51-12.663V46.214h10.277v2.691h-8.253a.667.667,0,0,0-.531.226.724.724,0,0,0,.531,1.21h8.253v8.253a1.752,1.752,0,0,1-1.413,1.933,6.942,6.942,0,0,1-3.72-.814.724.724,0,0,0-.724,0,.69.69,0,0,0-.305.611.8.8,0,0,0,.475.667,8.751,8.751,0,0,0,3.742.961,5.064,5.064,0,0,0,1.131-.124,2.917,2.917,0,0,0,2.261-3.03V53.755a26.5,26.5,0,0,0,11.148,7.914.656.656,0,0,0,.893-.384.678.678,0,0,0-.4-.9c-5.314-2.171-9.124-5.11-11.645-9.045V50.205h7.1a1.9,1.9,0,0,0,1.786-1.9V46.045h2.793A.667.667,0,0,0,256.688,45.988ZM244.4,44.756V42.144h6.863c.407,0,.656.215.656.588v2.024Zm7.518,1.458v1.979c0,.328-.113.712-.622.712h-6.9V46.214Zm-17.931-4.794a.656.656,0,0,0,.611.724h8.378v2.612H232.7V40.086c0-1.018.35-1.425,1.244-1.425h9.045v2.092h-8.378a.633.633,0,0,0-.622.667Z" transform="translate(29.873 4.481)" fill="#02457a"/>
        <path id="Path_55375" data-name="Path 55375" d="M235.977,51.578l2.261,1.515a.826.826,0,0,0,.452.147.667.667,0,0,0,.543-.294.712.712,0,0,0-.17-1.018h0c-.938-.656-2.126-1.425-3.177-2.092l-1.572-1.029a.78.78,0,0,0-.78-.09.678.678,0,0,0-.384.554.712.712,0,0,0,.4.667Z" transform="translate(30.426 6.364)" fill="#02457a"/>
        <path id="Path_55376" data-name="Path 55376" d="M241.667,52.5a.633.633,0,0,0-.927-.147,49.227,49.227,0,0,1-8.061,4.613.769.769,0,0,0-.452,1.006.622.622,0,0,0,.588.362,1.13,1.13,0,0,0,.464-.113,49.1,49.1,0,0,0,8.231-4.737.7.7,0,0,0,.158-.984Z" transform="translate(30.298 6.83)" fill="#02457a"/>
        <path id="Path_55377" data-name="Path 55377" d="M74.979,43.855a22.725,22.725,0,0,0-9.407,2.1h0A14.11,14.11,0,0,1,45.56,31.984h0a12.436,12.436,0,0,0,.09-1.967A22.815,22.815,0,1,0,22.9,52.911a23.143,23.143,0,0,0,9.452-2.126h0A14.1,14.1,0,0,1,52.333,64.771h0a16.824,16.824,0,0,0-.1,2A22.8,22.8,0,1,0,74.979,43.855ZM42.5,45.257l-5.653.984a7.168,7.168,0,1,1,5.834-8.31l.984,5.653A1.458,1.458,0,0,1,42.5,45.257ZM72.582,76.145A12.991,12.991,0,0,1,57.556,65.619L55.77,55.387a2.578,2.578,0,0,1,2.08-3.007l10.243-1.8h0a12.98,12.98,0,0,1,4.522,25.563Z" transform="translate(-0.02 0.961)" fill="#02457a"/>
        <path id="Path_55378" data-name="Path 55378" d="M49.2.39H64.915V4.471H53.971v6.9H62.8v4.1h-8.83v7.089H65.5v4.1H49.2Z" transform="translate(6.403 0.062)" fill="#02457a"/>
        <path id="Path_55379" data-name="Path 55379" d="M78.95,0a13.567,13.567,0,0,1,9.734,3.584l-2.261,3.55a11.532,11.532,0,0,0-7.168-2.77c-5.54,0-8.8,4.138-8.8,9.045s3.392,9.384,8.83,9.384a11.306,11.306,0,0,0,7.62-3.324l2.51,3.392a14.11,14.11,0,0,1-10.4,4.274,13.205,13.205,0,0,1-13.567-13.68A13.194,13.194,0,0,1,78.95,0Z" transform="translate(8.524 0.009)" fill="#02457a"/>
        <path id="Path_55380" data-name="Path 55380" d="M96.77.39h4.782V11.515h12.007V.39h4.771V26.642h-4.771V15.619H101.552V26.642H96.77Z" transform="translate(12.615 0.062)" fill="#02457a"/>
        <path id="Path_55381" data-name="Path 55381" d="M128.656,6.54c5.427,0,8.344,3.957,8.344,8.943,0,.554-.1,1.809-.1,1.809H123.884a5.37,5.37,0,0,0,5.653,5,9.339,9.339,0,0,0,5.438-2.069l1.809,3.392a11.769,11.769,0,0,1-7.609,2.668A9.655,9.655,0,0,1,119,16.41C119.079,10.61,123.037,6.54,128.656,6.54Zm3.618,7.541a3.641,3.641,0,0,0-3.731-3.923,4.387,4.387,0,0,0-4.522,3.923Z" transform="translate(15.518 0.865)" fill="#02457a"/>
        <path id="Path_55382" data-name="Path 55382" d="M147.289,14.006h.622v-.26c0-2.476-1.549-3.324-3.618-3.324a10.1,10.1,0,0,0-5.178,1.809L137.34,8.839a12.708,12.708,0,0,1,7.394-2.329c4.952,0,7.835,2.736,7.835,7.507V25.843H148.25v-1.56a12.857,12.857,0,0,1,.068-1.323h-.068a6.117,6.117,0,0,1-5.721,3.324c-3.392,0-6.4-2.114-6.4-5.879C136.13,14.413,144.225,14.006,147.289,14.006Zm-3.584,8.615c2.476,0,4.251-2.657,4.251-4.952v-.43h-.814c-2.408,0-6.286.328-6.286,2.951a2.51,2.51,0,0,0,2.86,2.431Z" transform="translate(17.755 0.861)" fill="#02457a"/>
        <path id="Path_55383" data-name="Path 55383" d="M154,.39h4.658V20.062c0,2.069.7,2.578,1.922,2.578h.7v4.1a10.491,10.491,0,0,1-1.481.113c-2.589,0-5.8-.667-5.8-6.06Z" transform="translate(20.089 0.062)" fill="#02457a"/>
        <path id="Path_55384" data-name="Path 55384" d="M163.552,11.548H161.11V7.817h2.555V2.39h4.522V7.817h4.285v3.731h-4.285v7.36c0,3.109,2.442,3.55,3.731,3.55a3.98,3.98,0,0,0,.848-.079v4.1a7.914,7.914,0,0,1-1.436.113c-2.623,0-7.835-.78-7.835-7.1Z" transform="translate(21.018 0.323)" fill="#02457a"/>
        <path id="Path_55385" data-name="Path 55385" d="M174.06.39h4.692V9.435a14.893,14.893,0,0,1-.079,1.583h.079A7.258,7.258,0,0,1,185.3,7.343c4.183,0,6.546,2.182,6.546,7.168V26.642h-4.658V15.472c0-2.261-.588-3.844-3-3.844a5.3,5.3,0,0,0-5.1,3.923,8.287,8.287,0,0,0-.294,2.431v8.66h-4.692Z" transform="translate(22.709 0.062)" fill="#02457a"/>
        <path id="Path_55386" data-name="Path 55386" d="M202.313,6.541a9.61,9.61,0,0,1,7.247,2.781l-2.08,3.222a7.372,7.372,0,0,0-4.907-2.035,5.653,5.653,0,0,0-5.732,5.845,5.743,5.743,0,0,0,5.879,5.913,8.649,8.649,0,0,0,5.54-2.408l1.809,3.324a10.7,10.7,0,0,1-7.756,3.1c-6.252,0-10.243-4.4-10.243-9.87a9.757,9.757,0,0,1,10.243-9.87Z" transform="translate(25.061 0.863)" fill="#02457a"/>
        <path id="Path_55387" data-name="Path 55387" d="M220.04,14h.622v-.26c0-2.476-1.549-3.324-3.618-3.324a10.1,10.1,0,0,0-5.178,1.809l-1.718-3.358a12.742,12.742,0,0,1,7.394-2.329c4.952,0,7.835,2.736,7.835,7.507V25.839H221v-1.56a12.87,12.87,0,0,1,.068-1.323H221a6.117,6.117,0,0,1-5.732,3.324c-3.392,0-6.4-2.114-6.4-5.879C208.87,14.409,216.931,14,220.04,14Zm-3.584,8.615c2.476,0,4.251-2.657,4.251-4.952v-.43h-.814c-2.408,0-6.286.328-6.286,2.951a2.51,2.51,0,0,0,2.849,2.431Z" transform="translate(27.255 0.865)" fill="#02457a"/>
        <path id="Path_55388" data-name="Path 55388" d="M226.921,6.96h4.522v3.256a12.143,12.143,0,0,1-.079,1.334h.079a6.49,6.49,0,0,1,5.992-4.85,5.032,5.032,0,0,1,.848.079v4.613a8.921,8.921,0,0,0-1.131-.068,5.336,5.336,0,0,0-5.144,3.957,10.175,10.175,0,0,0-.407,3.064v7.473H226.91Z" transform="translate(29.611 0.886)" fill="#02457a"/>
        <path id="Path_55389" data-name="Path 55389" d="M247.345,6.54c5.438,0,8.355,3.957,8.355,8.943,0,.554-.113,1.809-.113,1.809H242.551a5.359,5.359,0,0,0,5.653,5,9.282,9.282,0,0,0,5.427-2.069l1.82,3.392A11.781,11.781,0,0,1,247.9,26.28a9.655,9.655,0,0,1-10.119-9.87C237.78,10.61,241.726,6.54,247.345,6.54Zm3.629,7.541a3.641,3.641,0,0,0-3.742-3.923,4.387,4.387,0,0,0-4.522,3.923Z" transform="translate(31.03 0.865)" fill="#02457a"/>
        <path id="Path_55390" data-name="Path 55390" d="M129.31,68.2h1.3v4.07h4.805V68.2h1.3v9.271h-1.3V73.4H130.61v4.07h-1.3Z" transform="translate(16.865 8.917)" fill="#02457a"/>
        <path id="Path_55391" data-name="Path 55391" d="M138.09,68.2h1.3v3.9h1.379l2.34-3.9h1.436l-2.7,4.4h0l2.928,4.873H143.3l-2.476-4.251h-1.379v4.251h-1.3Z" transform="translate(18.011 8.917)" fill="#02457a"/>
        <path id="Path_55392" data-name="Path 55392" d="M145.335,68.2h5.382v1.131h-4.081v2.906h3.324v1.131h-3.324V76.34h4.308v1.131H145.29Z" transform="translate(18.952 8.917)" fill="#02457a"/>
        <path id="Path_55393" data-name="Path 55393" d="M154.16,74.57s-.1.215-.192.373L152.577,77.2H151.13l2.261-3.392-2.148-3.222H152.7l1.244,2.012.215.4h0l.215-.4,1.244-2.012h1.458l-2.148,3.222L157.19,77.2h-1.447l-1.391-2.261c-.09-.158-.192-.373-.192-.373Z" transform="translate(19.714 9.229)" fill="#02457a"/>
        <path id="Path_55394" data-name="Path 55394" d="M160.985,75.444a3.663,3.663,0,0,0,2.363.995,1.425,1.425,0,0,0,1.605-1.357c0-2.012-4.522-1.583-4.522-4.432a2.736,2.736,0,0,1,2.985-2.589A3.788,3.788,0,0,1,166.05,69l-.588,1.131a3.29,3.29,0,0,0-2.046-.8,1.515,1.515,0,0,0-1.673,1.357c0,1.911,4.522,1.4,4.522,4.409a2.668,2.668,0,0,1-2.94,2.612,4.353,4.353,0,0,1-3.075-1.221Z" transform="translate(20.905 8.898)" fill="#02457a"/>
        <path id="Path_55395" data-name="Path 55395" d="M167.3,71.85h-.871V70.832h.9V68.91h1.244v1.922h1.594V71.85h-1.594v2.962a1.311,1.311,0,0,0,1.413,1.492,1.89,1.89,0,0,0,.305,0v1.131a4.3,4.3,0,0,1-.452,0,2.261,2.261,0,0,1-2.544-2.487Z" transform="translate(21.712 9.01)" fill="#02457a"/>
        <path id="Path_55396" data-name="Path 55396" d="M174.275,70.39a3.471,3.471,0,1,1-2.531.968A3.482,3.482,0,0,1,174.275,70.39Zm0,5.856a2.386,2.386,0,1,0-2.261-2.4,2.261,2.261,0,0,0,2.261,2.4Z" transform="translate(22.267 9.203)" fill="#02457a"/>
        <path id="Path_55397" data-name="Path 55397" d="M181.51,70.391a3.392,3.392,0,0,1,2.5.972l-.6.893a2.691,2.691,0,0,0-1.843-.769,2.38,2.38,0,1,0,.09,4.76,3.007,3.007,0,0,0,2.046-.893l.509.927a3.641,3.641,0,0,1-2.657,1.063,3.482,3.482,0,1,1,0-6.953Z" transform="translate(23.207 9.203)" fill="#02457a"/>
        <path id="Path_55398" data-name="Path 55398" d="M184.727,68.2H186v5.076h.927l1.809-2.442h1.447l-2.261,2.928h0l2.453,3.686H188.9l-2-3.12h-.95v3.143H184.67Z" transform="translate(24.095 8.917)" fill="#02457a"/>
        <path id="Path_55399" data-name="Path 55399" d="M198.21,68.06a4.782,4.782,0,0,1,3.392,1.221l-.644.972a4.229,4.229,0,0,0-2.68-1.006,3.392,3.392,0,0,0-3.392,3.539,3.482,3.482,0,0,0,3.392,3.674,4.172,4.172,0,0,0,2.86-1.21l.7.927a4.975,4.975,0,0,1-3.6,1.47,4.794,4.794,0,1,1,0-9.587Z" transform="translate(25.241 8.899)" fill="#02457a"/>
        <path id="Path_55400" data-name="Path 55400" d="M205.414,70.39a3.471,3.471,0,1,1-2.524.972A3.482,3.482,0,0,1,205.414,70.39Zm0,5.856a2.386,2.386,0,1,0-2.261-2.4,2.261,2.261,0,0,0,2.261,2.4Z" transform="translate(26.336 9.203)" fill="#02457a"/>
        <path id="Path_55401" data-name="Path 55401" d="M212.076,70.676a2.261,2.261,0,0,1,2.058,1.051h0V68.2H215.4v9.271h-1.21v-.622a4.05,4.05,0,0,1,0-.452h0a2.261,2.261,0,0,1-2.182,1.232c-1.8,0-2.928-1.413-2.928-3.482S210.324,70.676,212.076,70.676Zm.17,5.856c.995,0,1.922-.7,1.922-2.4,0-1.131-.611-2.363-1.877-2.363-1.051,0-1.922.871-1.922,2.374s.78,2.386,1.877,2.386Z" transform="translate(27.282 8.917)" fill="#02457a"/>
        <path id="Path_55402" data-name="Path 55402" d="M219.393,70.39a2.838,2.838,0,0,1,2.883,3.109c0,.17,0,.554,0,.554h-4.918a2.159,2.159,0,0,0,2.261,2.193,3.154,3.154,0,0,0,1.967-.78l.52.938a3.957,3.957,0,0,1-2.566.938A3.392,3.392,0,0,1,216,73.861a3.256,3.256,0,0,1,3.392-3.471Zm1.583,2.7a1.583,1.583,0,0,0-1.605-1.7,1.9,1.9,0,0,0-1.945,1.7Z" transform="translate(28.185 9.203)" fill="#02457a"/>
        <path id="Path_55403" data-name="Path 55403" d="M223.11,70.53h1.334v1.345H223.11Zm0,5.291h1.334v1.345H223.11Z" transform="translate(29.115 9.222)" fill="#02457a"/>
        <path id="Path_55404" data-name="Path 55404" d="M229,76.8c0-3.313,4.522-3.787,4.522-5.97a1.526,1.526,0,0,0-1.662-1.538,2.363,2.363,0,0,0-1.877,1.131l-.961-.644a3.324,3.324,0,0,1,2.928-1.764,2.679,2.679,0,0,1,2.928,2.668c0,3.053-4.432,3.516-4.455,5.653h4.6v1.131h-5.981A5.406,5.406,0,0,1,229,76.8Z" transform="translate(29.884 8.891)" fill="#02457a"/>
        <path id="Path_55405" data-name="Path 55405" d="M235.687,76.34h2.046V69.783h0a2.263,2.263,0,0,1-.441.531l-.871.859-.791-.814,2.261-2.159h1.131v8.14h2.024v1.131h-5.336Z" transform="translate(30.75 8.917)" fill="#02457a"/>
        <path id="Path_55406" data-name="Path 55406" d="M241.88,75.392a3.392,3.392,0,0,0,2.261,1.006,1.752,1.752,0,0,0,1.888-1.7c0-1.131-1.006-1.707-2.148-1.707h-.644l-.305-.69,2.024-2.386a8.253,8.253,0,0,1,.577-.6h0a7,7,0,0,1-.78,0h-3.143V68.19h5.54v.825l-2.521,2.906a2.793,2.793,0,0,1,2.725,2.725,3.007,3.007,0,0,1-3.154,2.973,4.24,4.24,0,0,1-3.007-1.255Z" transform="translate(31.476 8.916)" fill="#02457a"/>
        <path id="Path_55407" data-name="Path 55407" d="M249.447,72.345a2.171,2.171,0,0,1-1.04-1.854c0-1.232.927-2.431,2.883-2.431,1.73,0,2.917.961,2.917,2.487a4.047,4.047,0,0,1-1.131,2.419,2.261,2.261,0,0,1,1.255,1.967,2.894,2.894,0,0,1-3.177,2.713A2.94,2.94,0,0,1,248,74.776,3.188,3.188,0,0,1,249.447,72.345Zm.95.554a2.363,2.363,0,0,0-1.131,1.832,1.809,1.809,0,0,0,1.9,1.752,1.707,1.707,0,0,0,1.843-1.594C253.031,73.894,251.652,73.5,250.4,72.9Zm1.73-.452a2.781,2.781,0,0,0,.814-1.82c0-.859-.69-1.391-1.662-1.391s-1.583.577-1.583,1.289c0,1.018,1.232,1.413,2.431,1.922Z" transform="translate(32.365 8.899)" fill="#02457a"/>
        <path id="Path_55408" data-name="Path 55408" d="M254.235,2.555a2.555,2.555,0,1,1-.768-1.827,2.566,2.566,0,0,1,.768,1.827Zm-4.59,0A1.967,1.967,0,1,0,251.612.588a1.967,1.967,0,0,0-1.967,1.967ZM251.261,3.9h-.6V1.345a4.522,4.522,0,0,1,.984-.079,1.7,1.7,0,0,1,.893.181.735.735,0,0,1,.249.565.644.644,0,0,1-.531.588h0a.758.758,0,0,1,.464.622,1.967,1.967,0,0,0,.192.644h-.644a2.363,2.363,0,0,1-.192-.633c-.057-.271-.2-.4-.531-.4h-.283Zm0-1.458h.283c.328,0,.588-.1.588-.373s-.17-.384-.543-.384a1.131,1.131,0,0,0-.328,0Z" transform="translate(32.496 0.011)" fill="#02457a"/>
      </g>
    </g>
  </g>
</svg>
