<svg xmlns="http://www.w3.org/2000/svg" xmlns:xlink="http://www.w3.org/1999/xlink" width="347.712" height="245.524" viewBox="0 0 347.712 245.524">
  <defs>
    <clipPath id="clip-path">
      <rect id="Rectangle_16" data-name="Rectangle 16" width="275.937" height="46.191" fill="#1d1d1b"/>
    </clipPath>
  </defs>
  <g id="Group_16280" data-name="Group 16280" transform="translate(2.5 2.5)">
    <g id="Group_39" data-name="Group 39" transform="translate(0)">
      <g id="Group_87" data-name="Group 87">
        <path id="Rectangle_5" data-name="Rectangle 5" d="M12.356,0H320.581c6.824,0,12.356,4.907,12.356,10.959V219.79c0,6.053-5.532,10.959-12.356,10.959H12.356C5.532,230.749,0,225.842,0,219.79V10.959C0,4.907,5.532,0,12.356,0Z" transform="translate(12.275 12.275)" fill="#e3f5ff"/>
        <rect id="Rectangle_5_copy" data-name="Rectangle 5 copy" width="333.726" height="231.516" rx="18" fill="none" stroke="#1d1d1b" stroke-width="5"/>
      </g>
    </g>
    <g id="Group_16283" data-name="Group 16283" transform="translate(34.637 98.417)">
      <g id="Group_16282" data-name="Group 16282" clip-path="url(#clip-path)">
        <path id="Path_239" data-name="Path 239" d="M164.2,0V28.1c1.527-1.213,2.928-2.33,4.333-3.442,2.916-2.309,5.827-4.626,8.758-6.915a6.345,6.345,0,0,1,1.69-.992,2.531,2.531,0,0,1,1.657-.141,17.017,17.017,0,0,1,2.817,1.664.912.912,0,0,1,.195.84c-.417,1.067-.913,2.1-1.4,3.193-.621-.293-1.205-.574-1.794-.845a3.315,3.315,0,0,0-3.634.351l-7.8,5.924c.9.888,1.747,1.73,2.6,2.565,2.317,2.266,4.626,4.539,6.959,6.787,1.323,1.275,2.682,2.516,4.038,3.756a4.275,4.275,0,0,0,3.8,1.328c.33-.059.749.382,1.126.592-.243.28-.434.657-.74.822a19.541,19.541,0,0,1-2.386,1.085c-2.409.91-4.514.122-6.346-1.4-1.684-1.4-3.231-2.97-4.809-4.5-2.7-2.613-5.387-5.249-8.072-7.87a1.294,1.294,0,0,0-1.007,1.474c.046,2.719.014,5.44.019,8.161a2.58,2.58,0,0,0,1.954,2.86,1.718,1.718,0,0,1,.749.481,1.309,1.309,0,0,1,.259.935c-.049.192-.5.4-.766.4q-5.028.04-10.057,0c-.271,0-.738-.219-.766-.392a1.171,1.171,0,0,1,.324-.918,4.837,4.837,0,0,1,1.326-.8,2.125,2.125,0,0,0,1.291-1.856,9.558,9.558,0,0,0,.058-1.233q0-16.487,0-32.974a9.439,9.439,0,0,0-.05-1.151A2.417,2.417,0,0,0,157.021,3.8a3.816,3.816,0,0,1-1.237-.77c-.532-.547-.293-1.2.462-1.25A30.93,30.93,0,0,0,163.762.065,3.353,3.353,0,0,1,164.2,0" transform="translate(-104.215)" fill="#1d1d1b"/>
        <path id="Path_240" data-name="Path 240" d="M764.055,74.359c-2.309.851-4.51,1.591-6.654,2.47a10.482,10.482,0,0,1-7.055.61,11.8,11.8,0,0,1-6.9-5.373c-2.077-3.295-2.269-6.958-1.995-10.706a13.288,13.288,0,0,1,1.879-5.885,10.269,10.269,0,0,1,5.53-4.541c2.857-1.038,5.712-2.084,8.548-3.179a6.1,6.1,0,0,1,3.795-.007A36.952,36.952,0,0,1,765.272,49a2.138,2.138,0,0,0,2.765-.664.8.8,0,0,1,1.048-.368.994.994,0,0,1,.636,1.1q-.016,11.331-.007,22.663c0,.275,0,.549,0,.824a2.52,2.52,0,0,0,1.675,2.562,3.125,3.125,0,0,1,1.2.812.624.624,0,0,1-.5,1.089c-2.472.027-4.944.009-7.417.013-.464,0-.628-.241-.621-.674.01-.621,0-1.243,0-2m0-11.516c0-2.968.021-5.936-.025-8.9a1.583,1.583,0,0,0-.559-1.145,27.716,27.716,0,0,0-3.622-2.1,5.62,5.62,0,0,0-5.079-.109,10.052,10.052,0,0,1-1.927.7,6.409,6.409,0,0,0-4.7,4.519,22.378,22.378,0,0,0-1.07,5.114c-.27,4,.456,7.794,3.377,10.8,2.428,2.5,5.357,3.576,8.818,2.523,1.439-.438,2.827-1.044,4.248-1.545.5-.175.545-.515.544-.962-.012-2.967-.006-5.935-.006-8.9" transform="translate(-496.858 -31.799)" fill="#1d1d1b"/>
        <path id="Path_241" data-name="Path 241" d="M340.912,74.45c-2.277.837-4.442,1.676-6.639,2.422a13.69,13.69,0,0,1-3.865,1.008c-4.627.124-8.037-2.114-10.282-6.04-2.359-4.127-2.482-8.62-1.326-13.088a10.783,10.783,0,0,1,7.473-7.95c2.418-.789,4.811-1.68,7.153-2.672a7.753,7.753,0,0,1,5.376-.122c1.154.33,2.3.693,3.425,1.121a2.015,2.015,0,0,0,2.566-.609c.3-.385.626-.685,1.183-.453.58.241.587.71.586,1.226-.006,7.635.007,15.27-.013,22.905,0,1.531.433,2.681,2.052,3.132a1.556,1.556,0,0,1,.768.584.969.969,0,0,1,.155.8.918.918,0,0,1-.706.393c-2.417.029-4.833.011-7.25.022-.512,0-.672-.241-.66-.711.017-.622,0-1.244,0-1.967m0-11.53c0-2.828-.032-5.657.02-8.485A1.762,1.762,0,0,0,340,52.618c-.839-.459-1.627-1.012-2.471-1.46a6.629,6.629,0,0,0-6.519-.241,8.94,8.94,0,0,1-1.921.725,5.561,5.561,0,0,0-3.445,2.843,14.144,14.144,0,0,0-1.757,6.763c-.151,3.561.446,6.963,2.743,9.827,2.193,2.734,5.056,4.165,8.594,3.493a38.843,38.843,0,0,0,4.955-1.71.921.921,0,0,0,.753-1.042c-.037-2.965-.016-5.931-.016-8.9" transform="translate(-213.184 -31.894)" fill="#1d1d1b"/>
        <path id="Path_242" data-name="Path 242" d="M6.24,61.934A14.439,14.439,0,0,0,7.056,67a10.811,10.811,0,0,0,5.287,6.348,10.654,10.654,0,0,0,9.667-.025c.921-.42,1.822-.885,2.756-1.271a3.261,3.261,0,0,1,1-.079,4.383,4.383,0,0,1-.1.926A5.132,5.132,0,0,1,23.32,75.65a15.25,15.25,0,0,1-9.409,1.993,15.3,15.3,0,0,1-7.693-2.357A13.558,13.558,0,0,1,.128,65.039a18.785,18.785,0,0,1,1.5-9.969,12.906,12.906,0,0,1,10.713-7.885,15.927,15.927,0,0,1,8.009.823,10.4,10.4,0,0,1,6.136,6.663,15,15,0,0,1,.721,6.079c-.078,1.09-.168,1.182-1.3,1.183q-9.313,0-18.626,0Zm16.249-2.3a29.88,29.88,0,0,0-.469-3.444,9.674,9.674,0,0,0-2.358-4.8c-2.185-2.147-7.5-2.023-9.864-.187a9.51,9.51,0,0,0-3.063,5.211,30.053,30.053,0,0,0-.578,3.22Z" transform="translate(0 -31.51)" fill="#1d1d1b"/>
        <path id="Path_243" data-name="Path 243" d="M489.214,28.932c0-1.771,0-3.582,0-5.393a2.6,2.6,0,0,1,1.491-2.533c.93-.462,1.841-.975,2.8-1.351s1.325-.065,1.327.96c.006,2.444,0,4.889,0,7.333v.9c1.632,0,3.187.008,4.741,0,.8-.006,1.6-.107,2.382-.04.262.023.7.439.7.671a6.08,6.08,0,0,1-.348,1.91,1.248,1.248,0,0,1-1.347.735c-1.7-.015-3.405-.005-5.108-.005H494.84v1.01c0,5.877.018,11.755-.007,17.631-.015,3.572,1.266,4.979,4.65,6.3.707.275.73.575.544,1.357-2.069-.229-4.156-.446-6.238-.7a7.372,7.372,0,0,1-1.588-.393c-2.04-.737-2.548-2.511-2.817-4.375a23.569,23.569,0,0,1-.182-3.281c-.017-5.493-.008-10.985-.008-16.478v-.989c-1.063.047-2.041.136-3.016.111a4.368,4.368,0,0,1-1.217-.4c.237-.381.385-.91.727-1.116,1.1-.662,2.266-1.205,3.526-1.855" transform="translate(-325.024 -13.071)" fill="#1d1d1b"/>
        <path id="Path_244" data-name="Path 244" d="M620.158,44.74v3.805c1.2-.447,2.32-.865,3.441-1.278,1.439-.531,2.871-1.08,4.32-1.58a5.619,5.619,0,0,1,3.776.346.7.7,0,0,1,.3.579c-.2,2.4-.43,4.8-.65,7.177-1.307.311-1.364.281-1.811-.927-1.043-2.819-3-3.936-5.761-3.224a4.177,4.177,0,0,0-2.947,3.339,17.363,17.363,0,0,0-.635,4.04c-.078,4.478-.025,8.959-.032,13.438a2.666,2.666,0,0,0,1.893,2.92,1.079,1.079,0,0,1,.561.324,8.726,8.726,0,0,1,.543,1.089,2.872,2.872,0,0,1-.967.408q-4.905.046-9.811,0c-.312,0-.831-.252-.878-.468a1.274,1.274,0,0,1,.427-.951A3.343,3.343,0,0,1,613,73.184a2.37,2.37,0,0,0,1.495-2.252c.016-.219.019-.439.019-.659,0-6.321-.008-12.642.007-18.962,0-1.487-.437-2.616-1.994-3.105a2.035,2.035,0,0,1-.94-.748.662.662,0,0,1,.478-1.1c2.677-.54,5.356-1.073,8.1-1.62" transform="translate(-409.778 -29.985)" fill="#1d1d1b"/>
      </g>
    </g>
  </g>
</svg>
