<svg xmlns="http://www.w3.org/2000/svg" width="32.398" height="24.299" viewBox="0 0 32.398 24.299">
  <path id="bars-progress-solid" d="M28.348,70.075h-8.1V68.05h8.1ZM3.037,64A3.038,3.038,0,0,0,0,67.037v4.05a3.038,3.038,0,0,0,3.037,3.037H29.361A3.038,3.038,0,0,0,32.4,71.087v-4.05A3.038,3.038,0,0,0,29.361,64ZM28.348,82.224v2.025h-16.2V82.224ZM3.037,78.174A3.038,3.038,0,0,0,0,81.212v4.05A3.038,3.038,0,0,0,3.037,88.3H29.361A3.038,3.038,0,0,0,32.4,85.261v-4.05a3.038,3.038,0,0,0-3.037-3.037Z" transform="translate(0 -64)" fill="#69e48e"/>
</svg>
