<svg xmlns="http://www.w3.org/2000/svg" width="23.5" height="23.501" viewBox="0 0 23.5 23.501">
  <path id="link-svgrepo-com" d="M12.867,17.189a1.281,1.281,0,0,0,0-1.812,3.6,3.6,0,0,1,0-5.091l4.315-4.314a3.6,3.6,0,1,1,5.091,5.091L20.939,12.4a1.281,1.281,0,1,0,1.812,1.812l1.334-1.333A6.163,6.163,0,1,0,15.37,4.159L11.054,8.473a6.163,6.163,0,0,0,0,8.716A1.282,1.282,0,0,0,12.867,17.189Zm2.5-6.126a1.281,1.281,0,0,0,0,1.812,3.6,3.6,0,0,1,0,5.091L11.1,22.237a3.6,3.6,0,1,1-5.09-5.092L7.258,15.9a1.281,1.281,0,1,0-1.812-1.812L4.2,15.334a6.163,6.163,0,0,0,8.716,8.716l4.271-4.271a6.163,6.163,0,0,0,0-8.716,1.281,1.281,0,0,0-1.812,0Z" transform="translate(-2.391 -2.354)" fill="#4fc3ff" fill-rule="evenodd"/>
</svg>
