<svg xmlns="http://www.w3.org/2000/svg" width="86.436" height="82.409" viewBox="0 0 86.436 82.409">
  <g id="Group_26297" data-name="Group 26297" transform="translate(19076 1609.409)">
    <g id="Group_26295" data-name="Group 26295" transform="translate(394.436 676.755)">
      <path id="Path_1" data-name="Path 1" d="M79.164,36.815l-6.6-20.794h7.152l3.917,15.1-2.128.045,4.6-15.14H92.75l4.64,15.14-2.128-.045,3.962-15.1h7.152l-6.6,20.794H93.093l-4.43-14.329h1.66L85.767,36.815h-6.6Z" transform="translate(-19543 -2241)" fill="#1d1d1b"/>
      <path id="Path_2" data-name="Path 2" d="M116.976,37.243a9.522,9.522,0,0,1-5.173-1.4A9.986,9.986,0,0,1,108.269,32a11.712,11.712,0,0,1-1.3-5.589,11.565,11.565,0,0,1,1.3-5.549,9.922,9.922,0,0,1,3.553-3.847,9.48,9.48,0,0,1,5.108-1.4,8.988,8.988,0,0,1,3.618.7,7.073,7.073,0,0,1,2.661,1.956,5.53,5.53,0,0,1,1.256,2.912V31.634a5.942,5.942,0,0,1-1.3,2.931,6.963,6.963,0,0,1-2.661,1.976,8.8,8.8,0,0,1-3.534.7Zm1.575-6.589a3.822,3.822,0,0,0,2.935-1.189,4.31,4.31,0,0,0,1.106-3.061,4.446,4.446,0,0,0-.513-2.145,3.806,3.806,0,0,0-3.494-2.06,3.942,3.942,0,0,0-3.558,2.06,4.348,4.348,0,0,0-.533,2.145,4.681,4.681,0,0,0,.508,2.19,3.792,3.792,0,0,0,1.445,1.508,4.03,4.03,0,0,0,2.088.552Zm3.788,6.166V31.206l1.067-5.017-1.067-5.062v-5.1h7.326V36.82Z" transform="translate(-19543 -2241)" fill="#1d1d1b"/>
      <path id="Path_3" data-name="Path 3" d="M132.217,16.021h16.606v6.166H132.217Zm4.555-8.59h7.451V36.815h-7.451Z" transform="translate(-19543 -2241)" fill="#1d1d1b"/>
      <path id="Path_4" data-name="Path 4" d="M155.128,13.642a3.7,3.7,0,0,1-2.811-1.17,3.968,3.968,0,0,1-1.106-2.827,3.9,3.9,0,0,1,1.106-2.807,3.733,3.733,0,0,1,2.811-1.15,3.635,3.635,0,0,1,2.766,1.15A3.9,3.9,0,0,1,159,9.645a3.959,3.959,0,0,1-1.106,2.827,3.644,3.644,0,0,1-2.766,1.17m-3.788,2.379h7.451V36.815H151.34Z" transform="translate(-19543 -2241)" fill="#1d1d1b"/>
    </g>
    <g id="Group_26296" data-name="Group 26296" transform="translate(478.999 631.591)">
      <path id="Path_5" data-name="Path 5" d="M18.221,42.966H36.726L47.785,54V42.966H52.51A10.269,10.269,0,0,0,62.757,32.733V18.2A10.269,10.269,0,0,0,52.51,7.968H18.221A10.269,10.269,0,0,0,7.974,18.2V32.733A10.269,10.269,0,0,0,18.221,42.966" transform="translate(-19543 -2241)" fill="#00e785"/>
      <path id="Path_6" data-name="Path 6" d="M41.815,50.85,29.923,38.985H12.24A12.247,12.247,0,0,1,0,26.761V12.223A12.247,12.247,0,0,1,12.24,0H46.529A12.247,12.247,0,0,1,58.77,12.223V26.756A12.247,12.247,0,0,1,46.529,38.98H41.8V35h4.725a8.258,8.258,0,0,0,8.253-8.242V12.223a8.258,8.258,0,0,0-8.253-8.242H12.24a8.258,8.258,0,0,0-8.253,8.242V26.756A8.258,8.258,0,0,0,12.24,35H31.573L41.849,45.251l-.035,5.594Z" transform="translate(-19543 -2241)" fill="#1d1d1b"/>
    </g>
  </g>
</svg>
