<svg xmlns="http://www.w3.org/2000/svg" width="185" height="150" viewBox="0 0 185 150">
  <g id="Group_23761" data-name="Group 23761" transform="translate(-0.197 -0.212)">
    <rect id="Rectangle_6737" data-name="Rectangle 6737" width="185" height="150" transform="translate(0.197 0.212)" fill="none"/>
    <g id="Layer_1-2" data-name="Layer 1-2" transform="translate(10.808 26.746)">
      <g id="Group_23739" data-name="Group 23739">
        <g id="Group_23737" data-name="Group 23737">
          <path id="Path_55416" data-name="Path 55416" d="M41.224,19.47v36.4h-8.87V34.039L24.213,55.87H17.057L8.865,33.989V55.87H0V19.47H10.473l10.217,25.2L30.8,19.47H41.224Z" transform="translate(0 -10.55)" fill="#244880"/>
          <path id="Path_55417" data-name="Path 55417" d="M156.37,53.232a17.829,17.829,0,0,1-6.794-6.661,18.608,18.608,0,0,1-2.515-9.617,18.49,18.49,0,0,1,2.515-9.594,17.9,17.9,0,0,1,6.794-6.639,19.777,19.777,0,0,1,18.821,0,17.5,17.5,0,0,1,6.739,6.639,18.813,18.813,0,0,1,2.465,9.594,18.768,18.768,0,0,1-2.488,9.617,17.654,17.654,0,0,1-6.739,6.661,19.7,19.7,0,0,1-18.8,0h0Zm16.383-8.6a11.029,11.029,0,0,0,2.621-7.674,11.048,11.048,0,0,0-2.621-7.7,8.97,8.97,0,0,0-6.973-2.877,9.142,9.142,0,0,0-7.028,2.85,10.981,10.981,0,0,0-2.621,7.724,10.932,10.932,0,0,0,2.621,7.7,9.045,9.045,0,0,0,7.028,2.877,8.87,8.87,0,0,0,6.973-2.9h0Z" transform="translate(-79.685 -9.938)" fill="#244880"/>
          <path id="Path_55418" data-name="Path 55418" d="M118.346,0V54.235H116.11V0Z" transform="translate(-62.915)" fill="#54ae47"/>
          <path id="Path_55419" data-name="Path 55419" d="M256.816,0V54.235H254.58V0Z" transform="translate(-137.945)" fill="#fdb913"/>
          <path id="Path_55420" data-name="Path 55420" d="M287.532,27.513a16.652,16.652,0,0,1,6.506-6.584A18.9,18.9,0,0,1,303.5,18.57a18.112,18.112,0,0,1,11.1,3.422,16.462,16.462,0,0,1,6.171,9.332h-9.749a7.88,7.88,0,0,0-3.083-3.473,8.663,8.663,0,0,0-4.536-1.191,8.487,8.487,0,0,0-6.639,2.85,11.033,11.033,0,0,0-2.538,7.624,11.055,11.055,0,0,0,2.538,7.624,8.472,8.472,0,0,0,6.639,2.85,8.655,8.655,0,0,0,4.536-1.2,7.853,7.853,0,0,0,3.083-3.473h9.749a16.335,16.335,0,0,1-6.171,9.3,18.213,18.213,0,0,1-11.1,3.395,18.889,18.889,0,0,1-9.461-2.359,16.653,16.653,0,0,1-6.506-6.561,19.393,19.393,0,0,1-2.332-9.594,19.531,19.531,0,0,1,2.332-9.617h0Z" transform="translate(-154.536 -10.062)" fill="#244880"/>
        </g>
        <g id="Group_23738" data-name="Group 23738" transform="translate(0 61.978)">
          <path id="Path_55421" data-name="Path 55421" d="M.958,139.125a7,7,0,0,1,2.611-2.657,7.219,7.219,0,0,1,3.674-.958,7.474,7.474,0,0,1,4.142,1.145,6.555,6.555,0,0,1,2.579,3.248H11.7a4.558,4.558,0,0,0-1.736-2.02,5.031,5.031,0,0,0-2.717-.706,5.186,5.186,0,0,0-2.726.706,4.924,4.924,0,0,0-1.892,2.011,6.434,6.434,0,0,0-.687,3.051,6.341,6.341,0,0,0,.687,3.028,4.941,4.941,0,0,0,1.892,2.007,5.29,5.29,0,0,0,2.726.706,5.168,5.168,0,0,0,2.717-.7,4.482,4.482,0,0,0,1.736-2.011h2.268a6.515,6.515,0,0,1-2.579,3.216,7.5,7.5,0,0,1-4.142,1.132,7.3,7.3,0,0,1-3.674-.944,6.87,6.87,0,0,1-2.611-2.634,8.084,8.084,0,0,1,0-7.633Z" transform="translate(0 -135.405)"/>
          <path id="Path_55422" data-name="Path 55422" d="M34.87,145.066a5.117,5.117,0,0,1,1.947-2.048,5.337,5.337,0,0,1,2.758-.728,5.03,5.03,0,0,1,2.6.646,4.3,4.3,0,0,1,1.645,1.622v-2.08h1.915v11.408H43.822v-2.121a4.439,4.439,0,0,1-1.677,1.654,5.036,5.036,0,0,1-2.593.655,5.142,5.142,0,0,1-4.682-2.85,6.546,6.546,0,0,1-.71-3.079,6.391,6.391,0,0,1,.71-3.07Zm8.43.843a3.678,3.678,0,0,0-1.407-1.466,3.84,3.84,0,0,0-1.947-.513,3.8,3.8,0,0,0-1.933.5,3.623,3.623,0,0,0-1.393,1.457,4.623,4.623,0,0,0-.522,2.25,4.746,4.746,0,0,0,.522,2.277,3.716,3.716,0,0,0,1.393,1.48,3.774,3.774,0,0,0,1.933.509,3.848,3.848,0,0,0,1.947-.509,3.657,3.657,0,0,0,1.407-1.48,4.685,4.685,0,0,0,.522-2.259A4.635,4.635,0,0,0,43.3,145.9h0Z" transform="translate(-18.51 -139.078)"/>
          <path id="Path_55423" data-name="Path 55423" d="M74.455,143.5a4.846,4.846,0,0,1,1.292,3.633v6.726H73.873V147.4a3.674,3.674,0,0,0-.852-2.611,3.047,3.047,0,0,0-2.332-.907,3.147,3.147,0,0,0-2.382.935,3.825,3.825,0,0,0-.884,2.731v6.3H65.53V142.446h1.892v1.622a3.778,3.778,0,0,1,1.53-1.352,4.788,4.788,0,0,1,2.135-.476,4.628,4.628,0,0,1,3.372,1.26Z" transform="translate(-35.508 -139.051)"/>
          <path id="Path_55424" data-name="Path 55424" d="M92.845,145.066a5.1,5.1,0,0,1,1.965-2.048,6.235,6.235,0,0,1,6.345.293,4.834,4.834,0,0,1,1.8,2.831h-2.039a2.941,2.941,0,0,0-1.132-1.645,3.5,3.5,0,0,0-2.094-.6,3.351,3.351,0,0,0-2.621,1.113,4.578,4.578,0,0,0-1,3.157,4.661,4.661,0,0,0,1,3.184,3.332,3.332,0,0,0,2.621,1.127,3.528,3.528,0,0,0,2.08-.586,2.977,2.977,0,0,0,1.145-1.663h2.039a4.992,4.992,0,0,1-1.833,2.8,5.489,5.489,0,0,1-3.436,1.049,5.648,5.648,0,0,1-2.882-.728,5.078,5.078,0,0,1-1.965-2.062,6.559,6.559,0,0,1-.71-3.12,6.382,6.382,0,0,1,.71-3.092h0Z" transform="translate(-49.921 -139.078)"/>
          <path id="Path_55425" data-name="Path 55425" d="M129.86,148.887h-9.117a3.586,3.586,0,0,0,3.7,3.583,3.521,3.521,0,0,0,2.052-.573,2.991,2.991,0,0,0,1.155-1.53h2.039a4.9,4.9,0,0,1-1.833,2.676,5.525,5.525,0,0,1-3.413,1.031,5.782,5.782,0,0,1-2.9-.728,5.21,5.21,0,0,1-2.011-2.071,6.421,6.421,0,0,1-.728-3.111,6.522,6.522,0,0,1,.706-3.1,4.993,4.993,0,0,1,1.988-2.053,5.932,5.932,0,0,1,2.946-.719,5.6,5.6,0,0,1,2.873.71,4.886,4.886,0,0,1,1.924,1.947,5.765,5.765,0,0,1,.678,2.8,11.286,11.286,0,0,1-.064,1.145h.009Zm-2.373-3.4a3.129,3.129,0,0,0-1.3-1.187,4.066,4.066,0,0,0-1.823-.4,3.519,3.519,0,0,0-2.447.916,3.722,3.722,0,0,0-1.155,2.538h7.2a3.5,3.5,0,0,0-.481-1.865h0Z" transform="translate(-64.372 -139.078)"/>
          <path id="Path_55426" data-name="Path 55426" d="M150.937,142.791a4.4,4.4,0,0,1,2.259-.541v1.956h-.5q-3.182,0-3.184,3.459v6.2H147.62V142.461h1.892v1.851A3.656,3.656,0,0,1,150.937,142.791Z" transform="translate(-79.988 -139.057)"/>
          <path id="Path_55427" data-name="Path 55427" d="M174.288,139.125a6.962,6.962,0,0,1,2.611-2.657,7.219,7.219,0,0,1,3.674-.958,7.474,7.474,0,0,1,4.142,1.145A6.588,6.588,0,0,1,187.3,139.9h-2.268a4.558,4.558,0,0,0-1.736-2.02,5.031,5.031,0,0,0-2.717-.706,5.175,5.175,0,0,0-2.726.706,4.924,4.924,0,0,0-1.892,2.011,6.434,6.434,0,0,0-.687,3.051,6.34,6.34,0,0,0,.687,3.028,4.941,4.941,0,0,0,1.892,2.007,5.29,5.29,0,0,0,2.726.706,5.168,5.168,0,0,0,2.717-.7,4.482,4.482,0,0,0,1.736-2.011H187.3a6.5,6.5,0,0,1-2.584,3.216,7.5,7.5,0,0,1-4.142,1.132,7.3,7.3,0,0,1-3.674-.944,6.87,6.87,0,0,1-2.611-2.634,8.084,8.084,0,0,1,0-7.633Z" transform="translate(-93.919 -135.405)"/>
          <path id="Path_55428" data-name="Path 55428" d="M208.206,145.066a5.148,5.148,0,0,1,1.947-2.048,5.338,5.338,0,0,1,2.758-.728,5.03,5.03,0,0,1,2.6.646,4.3,4.3,0,0,1,1.645,1.622v-2.08h1.915v11.408h-1.915v-2.121a4.439,4.439,0,0,1-1.677,1.654,5.036,5.036,0,0,1-2.593.655,5.142,5.142,0,0,1-4.682-2.85,6.544,6.544,0,0,1-.706-3.079,6.442,6.442,0,0,1,.706-3.07Zm8.43.843a3.678,3.678,0,0,0-1.406-1.466,3.84,3.84,0,0,0-1.947-.513,3.8,3.8,0,0,0-1.933.5,3.622,3.622,0,0,0-1.393,1.457,4.622,4.622,0,0,0-.518,2.25,4.8,4.8,0,0,0,.518,2.277,3.716,3.716,0,0,0,1.393,1.48,3.774,3.774,0,0,0,1.933.509,3.848,3.848,0,0,0,1.947-.509,3.657,3.657,0,0,0,1.406-1.48,4.685,4.685,0,0,0,.522-2.259,4.635,4.635,0,0,0-.522-2.249h0Z" transform="translate(-112.434 -139.078)"/>
          <path id="Path_55429" data-name="Path 55429" d="M242.177,142.791a4.4,4.4,0,0,1,2.259-.541v1.956h-.5q-3.182,0-3.184,3.459v6.2H238.86V142.461h1.892v1.851A3.627,3.627,0,0,1,242.177,142.791Z" transform="translate(-129.427 -139.057)"/>
          <path id="Path_55430" data-name="Path 55430" d="M264.39,148.887h-9.117a3.586,3.586,0,0,0,3.706,3.583,3.5,3.5,0,0,0,2.048-.573,2.991,2.991,0,0,0,1.155-1.53h2.039a4.9,4.9,0,0,1-1.833,2.676,5.525,5.525,0,0,1-3.413,1.031,5.782,5.782,0,0,1-2.9-.728,5.18,5.18,0,0,1-2.011-2.071,6.421,6.421,0,0,1-.728-3.111,6.521,6.521,0,0,1,.706-3.1,4.993,4.993,0,0,1,1.988-2.053,5.945,5.945,0,0,1,2.946-.719,5.614,5.614,0,0,1,2.873.71,4.886,4.886,0,0,1,1.924,1.947,5.765,5.765,0,0,1,.678,2.8,11.286,11.286,0,0,1-.064,1.145h.009Zm-2.373-3.4a3.13,3.13,0,0,0-1.3-1.187,4.06,4.06,0,0,0-1.819-.4,3.519,3.519,0,0,0-2.446.916,3.722,3.722,0,0,0-1.155,2.538h7.2a3.5,3.5,0,0,0-.481-1.865Z" transform="translate(-137.268 -139.078)"/>
          <path id="Path_55431" data-name="Path 55431" d="M303.532,150.083l-1.892-1.915a7.186,7.186,0,0,1-2.268,1.631,6.729,6.729,0,0,1-2.726.531,6.191,6.191,0,0,1-2.653-.541,4.186,4.186,0,0,1-1.791-1.539,4.263,4.263,0,0,1-.632-2.332,4.366,4.366,0,0,1,.861-2.676,5.7,5.7,0,0,1,2.552-1.823,6.259,6.259,0,0,1-.958-1.457,3.629,3.629,0,0,1-.293-1.457,3.026,3.026,0,0,1,.467-1.654,3.109,3.109,0,0,1,1.342-1.155,4.681,4.681,0,0,1,2.02-.417,4.138,4.138,0,0,1,1.956.435,2.922,2.922,0,0,1,1.251,1.219,3.355,3.355,0,0,1,.376,1.741h-1.892a1.726,1.726,0,0,0-.481-1.342,1.777,1.777,0,0,0-1.292-.49,1.909,1.909,0,0,0-1.342.467,1.552,1.552,0,0,0-.509,1.2,2.354,2.354,0,0,0,.344,1.21,8.7,8.7,0,0,0,1.154,1.439l4.329,4.348.376-.582,1.416-2.373h2.039l-1.709,2.955c-.238.417-.513.852-.834,1.315l3.267,3.267h-2.479Zm-4.861-1.81a5.568,5.568,0,0,0,1.718-1.352l-4.27-4.288q-2.666,1.024-2.666,3.225a2.642,2.642,0,0,0,.884,2.039,3.272,3.272,0,0,0,2.3.811,4.644,4.644,0,0,0,2.03-.435Z" transform="translate(-157.988 -135.28)"/>
          <path id="Path_55432" data-name="Path 55432" d="M9.182,200.66l-3.454-5.933H3.437v5.933H1.54V186.15H6.222A6.229,6.229,0,0,1,9,186.714a3.882,3.882,0,0,1,1.7,1.521,4.208,4.208,0,0,1-2.9,6.35l3.642,6.08H9.182Zm-5.745-7.454h2.79a3.153,3.153,0,0,0,2.309-.76,2.718,2.718,0,0,0,.77-2.03,2.607,2.607,0,0,0-.761-2,3.308,3.308,0,0,0-2.323-.706H3.432v5.493h0Z" transform="translate(-0.834 -162.844)"/>
          <path id="Path_55433" data-name="Path 55433" d="M37.765,199.117H28.648a3.586,3.586,0,0,0,3.706,3.583,3.5,3.5,0,0,0,2.048-.573,2.991,2.991,0,0,0,1.155-1.53H37.6a4.9,4.9,0,0,1-1.833,2.676A5.525,5.525,0,0,1,32.35,204.3a5.769,5.769,0,0,1-2.9-.728,5.17,5.17,0,0,1-2.007-2.071,6.421,6.421,0,0,1-.728-3.111,6.522,6.522,0,0,1,.706-3.1,4.992,4.992,0,0,1,1.988-2.052,5.944,5.944,0,0,1,2.946-.719,5.614,5.614,0,0,1,2.873.71,4.886,4.886,0,0,1,1.924,1.947,5.765,5.765,0,0,1,.678,2.8,11.285,11.285,0,0,1-.064,1.145h0Zm-2.373-3.4a3.129,3.129,0,0,0-1.3-1.187,4.066,4.066,0,0,0-1.823-.4,3.5,3.5,0,0,0-2.447.916,3.722,3.722,0,0,0-1.155,2.538h7.2a3.537,3.537,0,0,0-.476-1.865Z" transform="translate(-14.473 -166.296)"/>
          <path id="Path_55434" data-name="Path 55434" d="M56.469,203.834a3.941,3.941,0,0,1-1.645-1.251,3.322,3.322,0,0,1-.664-1.842h1.956a1.9,1.9,0,0,0,.8,1.393,3.05,3.05,0,0,0,1.883.541,2.744,2.744,0,0,0,1.709-.481,1.464,1.464,0,0,0,.623-1.2,1.207,1.207,0,0,0-.664-1.113,9.47,9.47,0,0,0-2.062-.719,14.845,14.845,0,0,1-2.071-.678,3.666,3.666,0,0,1-1.374-1.022,2.677,2.677,0,0,1-.573-1.782,2.721,2.721,0,0,1,.518-1.6,3.518,3.518,0,0,1,1.48-1.155,5.314,5.314,0,0,1,2.185-.426,4.677,4.677,0,0,1,3.06.958,3.442,3.442,0,0,1,1.251,2.625H60.991a1.957,1.957,0,0,0-.719-1.439,2.665,2.665,0,0,0-1.759-.541,2.723,2.723,0,0,0-1.622.435,1.353,1.353,0,0,0-.6,1.145,1.268,1.268,0,0,0,.362.925,2.687,2.687,0,0,0,.916.582,15.1,15.1,0,0,0,1.53.49,15.968,15.968,0,0,1,2,.655,3.474,3.474,0,0,1,1.319.967,2.59,2.59,0,0,1,.573,1.686,2.882,2.882,0,0,1-.522,1.686A3.5,3.5,0,0,1,61,203.843a5.255,5.255,0,0,1-2.176.426,5.813,5.813,0,0,1-2.35-.449v.014Z" transform="translate(-29.347 -166.279)"/>
          <path id="Path_55435" data-name="Path 55435" d="M87.835,199.117H78.718a3.586,3.586,0,0,0,3.706,3.583,3.5,3.5,0,0,0,2.048-.573,2.991,2.991,0,0,0,1.155-1.53h2.039a4.9,4.9,0,0,1-1.833,2.676A5.525,5.525,0,0,1,82.42,204.3a5.769,5.769,0,0,1-2.9-.728,5.17,5.17,0,0,1-2.007-2.071,6.421,6.421,0,0,1-.728-3.111,6.522,6.522,0,0,1,.706-3.1,4.992,4.992,0,0,1,1.988-2.052,5.945,5.945,0,0,1,2.946-.719,5.614,5.614,0,0,1,2.873.71,4.886,4.886,0,0,1,1.924,1.947,5.765,5.765,0,0,1,.678,2.8,11.285,11.285,0,0,1-.064,1.145h0Zm-2.373-3.4a3.129,3.129,0,0,0-1.3-1.187,4.066,4.066,0,0,0-1.823-.4,3.5,3.5,0,0,0-2.447.916,3.722,3.722,0,0,0-1.155,2.538h7.2a3.537,3.537,0,0,0-.476-1.865Z" transform="translate(-41.603 -166.296)"/>
          <path id="Path_55436" data-name="Path 55436" d="M104.75,195.291a5.159,5.159,0,0,1,1.947-2.053,5.337,5.337,0,0,1,2.758-.728,5.03,5.03,0,0,1,2.6.646,4.3,4.3,0,0,1,1.645,1.622V192.7h1.915v11.408H113.7v-2.121a4.439,4.439,0,0,1-1.677,1.654,5.037,5.037,0,0,1-2.593.655,5.157,5.157,0,0,1-4.682-2.854,6.552,6.552,0,0,1-.71-3.083,6.378,6.378,0,0,1,.71-3.07h0Zm8.43.843a3.678,3.678,0,0,0-1.407-1.466,3.987,3.987,0,0,0-3.881-.009,3.623,3.623,0,0,0-1.393,1.457,4.623,4.623,0,0,0-.522,2.25,4.777,4.777,0,0,0,.522,2.282,3.674,3.674,0,0,0,1.393,1.475,3.925,3.925,0,0,0,3.881,0,3.645,3.645,0,0,0,1.407-1.475,4.685,4.685,0,0,0,.522-2.259,4.635,4.635,0,0,0-.522-2.249h0Z" transform="translate(-56.374 -166.29)"/>
          <path id="Path_55437" data-name="Path 55437" d="M138.717,193.011a4.4,4.4,0,0,1,2.259-.541v1.956h-.5q-3.182,0-3.184,3.459v6.2H135.4V192.681h1.892v1.851A3.656,3.656,0,0,1,138.717,193.011Z" transform="translate(-73.367 -166.269)"/>
          <path id="Path_55438" data-name="Path 55438" d="M150.585,195.291a5.141,5.141,0,0,1,1.965-2.053,6.248,6.248,0,0,1,6.345.289,4.834,4.834,0,0,1,1.8,2.831h-2.039a2.948,2.948,0,0,0-1.136-1.645,3.5,3.5,0,0,0-2.094-.6,3.367,3.367,0,0,0-2.625,1.113,4.578,4.578,0,0,0-1,3.157,4.662,4.662,0,0,0,1,3.184,3.346,3.346,0,0,0,2.625,1.122,3.529,3.529,0,0,0,2.08-.586,2.978,2.978,0,0,0,1.145-1.663h2.039a5.016,5.016,0,0,1-1.833,2.8,5.489,5.489,0,0,1-3.436,1.049,5.648,5.648,0,0,1-2.882-.728,5.048,5.048,0,0,1-1.965-2.062,6.559,6.559,0,0,1-.706-3.12,6.434,6.434,0,0,1,.706-3.092Z" transform="translate(-81.207 -166.29)"/>
          <path id="Path_55439" data-name="Path 55439" d="M186.1,188.533a3.955,3.955,0,0,1,1.636,1.654,5.628,5.628,0,0,1,.591,2.685V199.6h-1.874v-6.455a3.674,3.674,0,0,0-.852-2.611,3.047,3.047,0,0,0-2.332-.907,3.14,3.14,0,0,0-2.382.935,3.825,3.825,0,0,0-.884,2.731v6.3H178.11v-15.4H180v5.621a3.755,3.755,0,0,1,1.553-1.352,5,5,0,0,1,2.217-.481,4.87,4.87,0,0,1,2.332.554h0Z" transform="translate(-96.509 -161.782)"/>
          <path id="Path_55440" data-name="Path 55440" d="M216.908,189.36a6.918,6.918,0,0,1,2.611-2.653,7.219,7.219,0,0,1,3.674-.958,7.463,7.463,0,0,1,4.142,1.145,6.575,6.575,0,0,1,2.579,3.248h-2.268a4.558,4.558,0,0,0-1.736-2.02,5.03,5.03,0,0,0-2.717-.706,5.229,5.229,0,0,0-2.726.706,4.894,4.894,0,0,0-1.892,2.011,6.435,6.435,0,0,0-.687,3.051,6.341,6.341,0,0,0,.687,3.028,4.97,4.97,0,0,0,1.892,2.007,5.29,5.29,0,0,0,2.726.706,5.211,5.211,0,0,0,2.717-.7,4.482,4.482,0,0,0,1.736-2.011h2.268a6.515,6.515,0,0,1-2.579,3.216,7.5,7.5,0,0,1-4.142,1.132,7.258,7.258,0,0,1-3.674-.948,6.87,6.87,0,0,1-2.611-2.634,8.084,8.084,0,0,1,0-7.633Z" transform="translate(-117.013 -162.627)"/>
          <path id="Path_55441" data-name="Path 55441" d="M261.165,199.117h-9.117a3.586,3.586,0,0,0,3.7,3.583,3.521,3.521,0,0,0,2.053-.573,2.991,2.991,0,0,0,1.155-1.53H261a4.9,4.9,0,0,1-1.833,2.676,5.525,5.525,0,0,1-3.413,1.031,5.782,5.782,0,0,1-2.9-.728,5.21,5.21,0,0,1-2.011-2.071,7.067,7.067,0,0,1-.018-6.212,4.993,4.993,0,0,1,1.988-2.052,5.932,5.932,0,0,1,2.946-.719,5.6,5.6,0,0,1,2.873.71,4.886,4.886,0,0,1,1.924,1.947,5.765,5.765,0,0,1,.678,2.8,11.278,11.278,0,0,1-.064,1.145h0Zm-2.373-3.4a3.129,3.129,0,0,0-1.3-1.187,4.06,4.06,0,0,0-1.819-.4,3.5,3.5,0,0,0-2.447.916,3.722,3.722,0,0,0-1.155,2.538h7.2a3.5,3.5,0,0,0-.481-1.865Z" transform="translate(-135.523 -166.296)"/>
          <path id="Path_55442" data-name="Path 55442" d="M287.849,193.724a4.846,4.846,0,0,1,1.292,3.633v6.726h-1.874v-6.455a3.674,3.674,0,0,0-.852-2.611,3.047,3.047,0,0,0-2.332-.907,3.14,3.14,0,0,0-2.382.935,3.825,3.825,0,0,0-.884,2.731v6.3h-1.9V192.671h1.9v1.622a3.778,3.778,0,0,1,1.53-1.352,4.729,4.729,0,0,1,2.135-.481,4.629,4.629,0,0,1,3.372,1.26h0Z" transform="translate(-151.134 -166.263)"/>
          <path id="Path_55443" data-name="Path 55443" d="M308.141,191.09v6.726a1.622,1.622,0,0,0,.353,1.177,1.741,1.741,0,0,0,1.228.344h1.393v1.6h-1.709a3.4,3.4,0,0,1-2.373-.728,3.125,3.125,0,0,1-.793-2.392v-6.726h-1.48v-1.562h1.48V186.66h1.892v2.873h2.978v1.562h-2.969Z" transform="translate(-165.135 -163.12)"/>
          <path id="Path_55444" data-name="Path 55444" d="M326.047,193.011a4.4,4.4,0,0,1,2.259-.541v1.956h-.5q-3.182,0-3.184,3.459v6.2H322.73V192.681h1.892v1.851a3.656,3.656,0,0,1,1.425-1.521Z" transform="translate(-174.872 -166.269)"/>
          <path id="Path_55445" data-name="Path 55445" d="M348.26,199.117h-9.117a3.586,3.586,0,0,0,3.706,3.583,3.5,3.5,0,0,0,2.048-.573,2.991,2.991,0,0,0,1.154-1.53h2.039a4.9,4.9,0,0,1-1.833,2.676,5.524,5.524,0,0,1-3.413,1.031,5.769,5.769,0,0,1-2.9-.728,5.211,5.211,0,0,1-2.011-2.071,6.421,6.421,0,0,1-.728-3.111,6.521,6.521,0,0,1,.706-3.1,4.993,4.993,0,0,1,1.988-2.052,5.932,5.932,0,0,1,2.946-.719,5.6,5.6,0,0,1,2.873.71,4.886,4.886,0,0,1,1.924,1.947,5.715,5.715,0,0,1,.678,2.8,11.3,11.3,0,0,1-.064,1.145h.009Zm-2.373-3.4a3.13,3.13,0,0,0-1.3-1.187,4.066,4.066,0,0,0-1.823-.4,3.5,3.5,0,0,0-2.447.916,3.722,3.722,0,0,0-1.155,2.538h7.2a3.5,3.5,0,0,0-.481-1.865h0Z" transform="translate(-182.713 -166.296)"/>
        </g>
      </g>
    </g>
  </g>
</svg>
