<svg xmlns="http://www.w3.org/2000/svg" width="425" height="150" viewBox="0 0 425 150">
  <g id="Group_23771" data-name="Group 23771" transform="translate(-0.202)">
    <rect id="Rectangle_6747" data-name="Rectangle 6747" width="425" height="150" transform="translate(0.202)" fill="none"/>
    <g id="magicdecor-logo-svg" transform="translate(3.757 36.359)">
      <path id="Path_55529" data-name="Path 55529" d="M97.288,29.241c.469,1.591.869,2.811,1.171,4.05a1.6,1.6,0,0,0,1.259,1.366c1.23.322,2.42.781,3.923,1.278-1.5.478-2.674.9-3.874,1.21a1.586,1.586,0,0,0-1.3,1.327c-.293,1.259-.7,2.479-1.181,4.118-.488-1.63-.917-2.889-1.229-4.187a1.457,1.457,0,0,0-1.142-1.21c-1.239-.351-2.45-.761-4.021-1.249,1.522-.507,2.742-.966,3.982-1.3a1.466,1.466,0,0,0,1.161-1.191C96.39,32.149,96.809,30.861,97.288,29.241Z" transform="translate(-47.35 -15.232)" fill="#9f1127"/>
      <path id="Path_55530" data-name="Path 55530" d="M64.694,27.429c.468,1.591.869,2.811,1.171,4.05a1.6,1.6,0,0,0,1.259,1.366c1.23.322,2.42.781,3.923,1.278-1.5.478-2.674.9-3.874,1.21a1.586,1.586,0,0,0-1.3,1.327c-.293,1.259-.7,2.479-1.181,4.118-.488-1.63-.917-2.889-1.23-4.187a1.456,1.456,0,0,0-1.142-1.21c-1.239-.351-2.45-.761-4.021-1.249,1.522-.507,2.742-.966,3.982-1.3a1.466,1.466,0,0,0,1.161-1.191C63.8,30.337,64.206,29.049,64.694,27.429Z" transform="translate(-30.371 -14.289)" fill="#9f1127"/>
      <path id="Path_55531" data-name="Path 55531" d="M85.844,25.189c-.342-1.161-.634-2.049-.859-2.967a1.174,1.174,0,0,0-.917-1c-.9-.234-1.776-.576-2.869-.937,1.093-.351,1.952-.654,2.83-.888a1.161,1.161,0,0,0,.947-.966c.215-.917.517-1.815.869-3.006.361,1.191.625,1.942.859,2.879a1.362,1.362,0,0,0,.878,1.064c.9.254,1.8.556,2.937.908-1.112.371-2,.7-2.908.947a1.059,1.059,0,0,0-.849.869C86.508,23.072,86.205,24.009,85.844,25.189Z" transform="translate(-42.298 -8.038)" fill="#9f1127"/>
      <path id="Path_55532" data-name="Path 55532" d="M119.32,45.273c.127.429.234.751.312,1.083a.415.415,0,0,0,.342.361c.332.088.644.2,1.044.342-.4.127-.712.244-1.034.322a.414.414,0,0,0-.342.351c-.078.332-.185.664-.312,1.1-.127-.439-.244-.771-.332-1.122a.4.4,0,0,0-.3-.322c-.332-.1-.654-.2-1.074-.332.41-.137.732-.254,1.064-.351a.4.4,0,0,0,.312-.322C119.086,46.054,119.193,45.713,119.32,45.273Z" transform="translate(-61.272 -23.584)" fill="#9f1127"/>
      <path id="Path_55533" data-name="Path 55533" d="M113.9,20.115c.244.839.458,1.474.615,2.128a.83.83,0,0,0,.664.712c.644.166,1.269.41,2.059.673-.79.254-1.405.468-2.03.634a.829.829,0,0,0-.683.693c-.156.654-.371,1.3-.624,2.157-.254-.859-.479-1.522-.644-2.2a.759.759,0,0,0-.6-.634c-.644-.185-1.288-.4-2.108-.654.8-.263,1.415-.5,2.069-.673a.815.815,0,0,0,.634-.634C113.432,21.638,113.647,20.964,113.9,20.115Z" transform="translate(-57.59 -10.478)" fill="#9f1127"/>
      <path id="Path_55534" data-name="Path 55534" d="M79.27,51.649c.351,1.181.644,2.088.869,3.016a1.183,1.183,0,0,0,.937,1.015c.917.234,1.805.586,2.918.956-1.113.351-1.991.664-2.879.9a1.181,1.181,0,0,0-.966.986c-.215.937-.527,1.845-.878,3.064-.361-1.21-.683-2.147-.917-3.113a1.093,1.093,0,0,0-.849-.908c-.917-.263-1.825-.566-2.986-.927,1.132-.381,2.04-.722,2.967-.966a1.1,1.1,0,0,0,.869-.888C78.606,53.806,78.909,52.86,79.27,51.649Z" transform="translate(-38.818 -26.905)" fill="#9f1127"/>
      <path id="Path_55535" data-name="Path 55535" d="M57.9,52.729c.234.79.439,1.405.586,2.02a.8.8,0,0,0,.625.683c.615.156,1.21.39,1.962.644-.751.234-1.337.449-1.932.605a.788.788,0,0,0-.644.664c-.146.625-.351,1.239-.6,2.049-.244-.82-.459-1.444-.615-2.088a.741.741,0,0,0-.566-.605c-.615-.176-1.22-.381-2-.625.761-.254,1.366-.478,1.991-.644a.727.727,0,0,0,.576-.6C57.449,54.174,57.654,53.54,57.9,52.729Z" transform="translate(-28.503 -27.468)" fill="#9f1127"/>
      <path id="Path_55536" data-name="Path 55536" d="M52.085,50.214l-.01-1.152a2.414,2.414,0,0,0-.605-1.805,1.738,1.738,0,0,0-1.328-.449c-.674.02-1.806.342-1.806,2.235,0,.459,0,.917-.01,1.376-.01,1.1-.02,2.235.02,3.357.01.361-.02.576-.107.654a.9.9,0,0,1-.566.117h-.01c-13.5-.029-27.628-.029-43.214,0-.361,0-.566-.039-.664-.137a1.091,1.091,0,0,1-.146-.7c.029-8.452.029-16.952,0-25.257a1,1,0,0,1,.127-.634.9.9,0,0,1,.6-.107c1.971.029,3.982.02,5.924.02h6.285q5.2,0,10.394-.01a2.4,2.4,0,0,0,2.079-.937,1.777,1.777,0,0,0,.1-1.718,2.174,2.174,0,0,0-2.3-1.2q-7.027.015-14.063,0H4.255C1.317,23.864,0,25.211,0,28.227v25.8c0,2.986,1.278,4.323,4.138,4.323H38.4c3.289,0,6.568,0,9.857-.01a3.582,3.582,0,0,0,3.816-3.855C52.1,53.054,52.095,51.61,52.085,50.214Z" transform="translate(0 -12.431)" fill="#9f1127"/>
      <path id="Path_55537" data-name="Path 55537" d="M173.581,57.379V34.044l-.137-.029c-.371.751-.751,1.5-1.112,2.254q-2.943,6.061-5.856,12.121a1,1,0,0,1-1.074.664c-1.444-.039-2.888-.029-4.343,0a.7.7,0,0,1-.761-.478c-2.215-4.567-4.46-9.135-6.695-13.692a1.62,1.62,0,0,0-.439-.6V57.418H146.3V24.178c.215-.01.4-.029.6-.029,2.733,0,5.475.01,8.208-.01a.788.788,0,0,1,.82.488q3.528,6.822,7.086,13.634c.078.156.166.3.312.546.449-.859.859-1.63,1.249-2.42,1.991-3.913,3.992-7.817,5.963-11.74a.788.788,0,0,1,.81-.517c2.811.02,5.631.02,8.442,0,.43,0,.586.107.586.566q-.015,16.1-.01,32.2c0,.322.01.576-.449.566-2-.02-4-.01-6-.01C173.835,57.437,173.767,57.418,173.581,57.379Z" transform="translate(-76.213 -12.569)" fill="#9f1127"/>
      <path id="Path_55538" data-name="Path 55538" d="M336.331,31.711c-2.117,1.083-4.206,2.157-6.343,3.25a9.958,9.958,0,0,0-13.439-3.63,10.145,10.145,0,0,0-4.792,11.5,10,10,0,0,0,9.994,7.407c3.718-.1,7.729-2.508,8.276-5.016h-8.588V39.089h16.835c-.058.956-.088,1.854-.166,2.752a15.772,15.772,0,0,1-1.21,5.66,16.761,16.761,0,0,1-12.433,9.6,17.21,17.21,0,1,1,11.653-25.745A2.506,2.506,0,0,1,336.331,31.711Z" transform="translate(-158.537 -11.963)" fill="#9f1127"/>
      <path id="Path_55539" data-name="Path 55539" d="M262.558,57.553c-2.3,0-4.5.01-6.7-.02-.156,0-.371-.254-.459-.429-.957-2.128-1.9-4.265-2.82-6.4a.727.727,0,0,0-.791-.517q-7.788.015-15.585,0a.761.761,0,0,0-.81.507c-.985,2.137-1.991,4.265-3,6.392-.137.283-.253.488-.634.488-1.942-.02-3.884-.01-5.826-.01a1.9,1.9,0,0,1-.312-.049c.088-.225.156-.42.244-.605q7.217-16.03,14.434-32.069a.725.725,0,0,1,.79-.507c2.079.02,4.167.02,6.246,0a.686.686,0,0,1,.742.5q7.129,16.1,14.277,32.206A2.059,2.059,0,0,1,262.558,57.553ZM249.7,43.382c-1.8-4.314-3.552-8.52-5.377-12.892-1.893,4.392-3.709,8.6-5.553,12.892Z" transform="translate(-117.536 -12.675)" fill="#9f1127"/>
      <path id="Path_55540" data-name="Path 55540" d="M433.365,45.019c2.059,1.074,4.079,2.118,6.1,3.162a16.3,16.3,0,0,1-16.483,8.871,16.726,16.726,0,0,1-14.863-15.01A16.9,16.9,0,0,1,420.3,24.027a16.5,16.5,0,0,1,18.962,8.012c-.976.517-1.942,1.034-2.918,1.542-.917.468-1.844.917-2.752,1.4-.332.176-.517.176-.761-.185a9.6,9.6,0,0,0-10.169-4.167,9.949,9.949,0,0,0-7.554,8.032,9.821,9.821,0,0,0,8.364,11.418,9.417,9.417,0,0,0,9.623-4.567C433.169,45.361,433.257,45.2,433.365,45.019Z" transform="translate(-212.552 -12.194)" fill="#9f1127"/>
      <path id="Path_55541" data-name="Path 55541" d="M782.118,44.112V56.643h-3.376v-34c.2-.01.41-.029.615-.029,4.772,0,9.554-.019,14.327,0a11.419,11.419,0,0,1,7.251,2.206,10.483,10.483,0,0,1,4.06,10.189c-.674,5.124-4.177,8.354-9.33,8.861-.215.019-.429.059-.791.107,3.923,4.255,7.768,8.422,11.72,12.716-1.083,0-2.049-.078-3.005.02a2.743,2.743,0,0,1-2.528-1.083c-3.318-3.728-6.714-7.378-10.072-11.067a1.2,1.2,0,0,0-1.015-.449c-2.4.019-4.792.01-7.193.01C782.587,44.112,782.392,44.112,782.118,44.112Zm.02-3.24h.7c3.406,0,6.812.01,10.218,0a17.217,17.217,0,0,0,2.01-.107,7.2,7.2,0,0,0,4.333-1.884,8.19,8.19,0,0,0,1.337-8.949c-1.425-2.908-3.914-4.07-7.017-4.1-3.669-.039-7.329-.01-11-.01h-.6C782.138,30.859,782.138,35.827,782.138,40.872Z" transform="translate(-405.665 -11.775)" fill="#4b4b4b"/>
      <path id="Path_55542" data-name="Path 55542" d="M497.276,22.617c1.4,0,2.723-.01,4.05,0,3.152.029,6.3-.029,9.447.117a15.96,15.96,0,0,1,15.185,13.8,18.542,18.542,0,0,1-1.766,11.643,15.416,15.416,0,0,1-11.9,8.276,24.238,24.238,0,0,1-3.67.244c-3.543.029-7.1.01-10.637.01H497.3C497.276,45.337,497.276,34.006,497.276,22.617Zm3.367,30.771c1.5,0,2.947.02,4.392,0,2.079-.029,4.167.039,6.236-.166a11.984,11.984,0,0,0,7.915-3.913,14.022,14.022,0,0,0,3.464-11.838A12.78,12.78,0,0,0,509.9,25.935c-2.987-.1-5.983-.029-8.979-.029a1.368,1.368,0,0,0-.273.059C500.643,35.1,500.643,44.2,500.643,53.388Z" transform="translate(-259.043 -11.78)" fill="#4b4b4b"/>
      <path id="Path_55543" data-name="Path 55543" d="M730.2,38.245c-.1,4.9-1.132,8.744-3.641,12.1a15.412,15.412,0,0,1-10.413,6.129,19.163,19.163,0,0,1-9.779-.878,15.4,15.4,0,0,1-9.388-9.7,19.279,19.279,0,0,1,1.1-16.191c2.655-4.909,6.978-7.407,12.453-8.022a19,19,0,0,1,10.062,1.376,15.541,15.541,0,0,1,8.979,11.126A38.837,38.837,0,0,1,730.2,38.245ZM699.1,39.533a30.566,30.566,0,0,0,.429,3.094,13.258,13.258,0,0,0,6.773,9.34,14.4,14.4,0,0,0,8.529,1.435,12.334,12.334,0,0,0,9.027-5,15.555,15.555,0,0,0,2.43-13.595,12.511,12.511,0,0,0-7.183-8.842,15.414,15.414,0,0,0-8.842-1,12.305,12.305,0,0,0-7.417,3.777C700.177,31.608,699.171,35.092,699.1,39.533Z" transform="translate(-362.409 -11.216)" fill="#4b4b4b"/>
      <path id="Path_55544" data-name="Path 55544" d="M568.1,56.7V22.683H591.82v3.25H571.453V38.014h19.43v3.142H571.462V53.424h20.953v3.289C584.315,56.7,576.234,56.7,568.1,56.7Z" transform="translate(-295.939 -11.816)" fill="#4b4b4b"/>
      <path id="Path_55545" data-name="Path 55545" d="M655.526,27.269c-.8.693-1.571,1.357-2.332,2.02-.742-.605-1.425-1.23-2.176-1.766-5.182-3.689-13.165-3.377-17.821.683a13.506,13.506,0,0,0-4.5,9.018,15.9,15.9,0,0,0,1.425,9.076,12.479,12.479,0,0,0,9.047,6.753,14.538,14.538,0,0,0,13.868-3.816,1.4,1.4,0,0,1,.2-.137c.742.7,1.493,1.415,2.274,2.157a15.321,15.321,0,0,1-5.045,3.66c-6.519,2.811-12.843,2.459-18.718-1.64a15.225,15.225,0,0,1-6.1-10.052,18.884,18.884,0,0,1,1.512-12.375c2.587-5.124,6.851-7.944,12.482-8.793a18.192,18.192,0,0,1,10.833,1.513A17.527,17.527,0,0,1,655.526,27.269Z" transform="translate(-325.703 -11.366)" fill="#4b4b4b"/>
      <path id="Path_55546" data-name="Path 55546" d="M383.207,23.416h7.2v.722q0,16.088.01,32.186c0,.586-.127.781-.752.761-1.981-.049-3.962-.029-5.943-.01-.449.01-.566-.137-.566-.576q.014-16.293.01-32.6C383.168,23.757,383.2,23.6,383.207,23.416Z" transform="translate(-199.596 -12.198)" fill="#9f1127"/>
      <path id="Path_55547" data-name="Path 55547" d="M588.6,6.6a6.852,6.852,0,0,1-1.084-.3,1.385,1.385,0,0,1-.439-2.4,5.083,5.083,0,0,1,1.59-1c2.391-.937,4.792-1.854,7.212-2.7a3.175,3.175,0,0,1,1.786-.039,1.327,1.327,0,0,1,.634,2.2,3.355,3.355,0,0,1-1.259.947c-2.41,1.034-4.85,2.02-7.28,3.006A7.235,7.235,0,0,1,588.6,6.6Z" transform="translate(-305.548 -0.024)" fill="#4b4b4b"/>
      <path id="Path_55548" data-name="Path 55548" d="M345.053,141.279v4.246c0,1.005-1.659,1.005-1.659.02v-12.56a.761.761,0,0,1,.839-.761h5.377c3.933,0,5.924,2.147,5.924,4.7,0,2.215-1.249,3.806-4.04,4.265l3.679,3.835c.858.829-.39,1.8-1.132,1.054l-4.587-4.792h-4.4Zm0-1.376h4.587c2.977,0,4.265-1.337,4.226-2.977-.02-1.8-1.591-3.24-4.226-3.24h-4.587Z" transform="translate(-178.882 -68.878)" fill="#9f1127"/>
      <path id="Path_55549" data-name="Path 55549" d="M382.616,137.923a5.453,5.453,0,0,1,4.2,5.495v-.02c.049.478-.185,1.005-1.112,1.005h-8.969a4.035,4.035,0,0,0,4.157,3.289,5.039,5.039,0,0,0,3.015-.917c.791-.7,1.971.2,1.093,1.074a6.6,6.6,0,0,1-8.647-.634c-2.45-3.113-1.385-8.149,2.84-9.281a6.721,6.721,0,0,1,3.406,0h.02Zm-5.943,5.143h8.559a4.029,4.029,0,0,0-3.113-3.718h.019a4.961,4.961,0,0,0-2.45.02A3.966,3.966,0,0,0,376.672,143.066Z" transform="translate(-195.374 -71.738)" fill="#9f1127"/>
      <path id="Path_55550" data-name="Path 55550" d="M412.337,134.163a4.2,4.2,0,0,1,3.679,1.776v-4.353a.833.833,0,0,1,1.659,0V144.81a.741.741,0,0,1-.839.761.688.688,0,0,1-.771-.761v-1.025a4.244,4.244,0,0,1-3.728,1.923,5.748,5.748,0,0,1-2.176-.42l.019.02a5.676,5.676,0,0,1-3.66-5.69A5.518,5.518,0,0,1,412.337,134.163Zm3.679,6.617v-1.728a3.458,3.458,0,0,0-3.611-3.367,4.179,4.179,0,0,0-3.884,2.342,4.983,4.983,0,0,0-.342,1.62,4.48,4.48,0,0,0,1.679,3.718,4.327,4.327,0,0,0,2.342.829C414.269,144.2,416.016,142.927,416.016,140.78Z" transform="translate(-211.765 -68.154)" fill="#9f1127"/>
      <path id="Path_55551" data-name="Path 55551" d="M445.664,137.923a5.454,5.454,0,0,1,4.2,5.495v-.02c.048.478-.185,1.005-1.113,1.005h-8.969a4.036,4.036,0,0,0,4.157,3.289,5.041,5.041,0,0,0,3.016-.917c.79-.7,1.971.2,1.093,1.074a6.6,6.6,0,0,1-8.647-.634c-2.45-3.113-1.386-8.149,2.84-9.281a6.719,6.719,0,0,1,3.406,0h.02Zm-5.953,5.143h8.559a4.03,4.03,0,0,0-3.113-3.718h.02a4.963,4.963,0,0,0-2.45.02A3.966,3.966,0,0,0,439.711,143.066Z" transform="translate(-228.218 -71.738)" fill="#9f1127"/>
      <path id="Path_55552" data-name="Path 55552" d="M470.793,135.994v8.93c0,.966-1.659.966-1.659,0v-8.93H467.9a.669.669,0,0,1,.02-1.337h1.2v-.478c0-2.8,3.455-4.031,5.563-2.45.791.654-.254,1.688-.927,1.112a1.833,1.833,0,0,0-2.977,1.357v.459h2.176a.671.671,0,0,1,0,1.337Z" transform="translate(-243.402 -68.258)" fill="#9f1127"/>
      <path id="Path_55553" data-name="Path 55553" d="M490.082,132.735c0,.985-1.708,1.005-1.708,0v-.986c0-1.005,1.708-1.005,1.708,0Zm-1.679,2.371c0-.937,1.659-.966,1.659-.02v9.877c0,.966-1.659.937-1.659,0Z" transform="translate(-254.406 -68.239)" fill="#9f1127"/>
      <path id="Path_55554" data-name="Path 55554" d="M510.084,142.55a3.454,3.454,0,0,0-3.523-3.416,4.235,4.235,0,0,0-4.265,4.138v5.075a.721.721,0,0,1-.82.761c-.527,0-.859-.283-.859-.761v-9.808a.821.821,0,0,1,1.639.02v1.357a4.646,4.646,0,0,1,4.333-2.274,4.879,4.879,0,0,1,5.153,4.909v5.806a.721.721,0,0,1-.82.761.75.75,0,0,1-.839-.761Z" transform="translate(-260.783 -71.7)" fill="#9f1127"/>
      <path id="Path_55555" data-name="Path 55555" d="M539.7,137.923a5.454,5.454,0,0,1,4.2,5.495v-.02c.049.478-.185,1.005-1.112,1.005h-8.969a4.035,4.035,0,0,0,4.157,3.289,5.04,5.04,0,0,0,3.015-.917c.791-.7,1.971.2,1.093,1.074a6.6,6.6,0,0,1-8.647-.634c-2.45-3.113-1.386-8.149,2.84-9.281a6.721,6.721,0,0,1,3.406,0h.019Zm-5.953,5.143H542.3a4.029,4.029,0,0,0-3.113-3.718h.02a4.962,4.962,0,0,0-2.45.02A3.967,3.967,0,0,0,533.743,143.066Z" transform="translate(-277.202 -71.738)" fill="#9f1127"/>
      <path id="Path_55556" data-name="Path 55556" d="M582.933,140.306l-5.748-7.329c-.683-.878.82-1.688,1.434-.81l5.134,6.763,5.2-6.782c.566-.83,1.971-.127,1.366.79l-5.7,7.378v4.909a.811.811,0,0,1-.839.81.77.77,0,0,1-.839-.81v-4.919Z" transform="translate(-300.579 -68.647)" fill="#9f1127"/>
      <path id="Path_55557" data-name="Path 55557" d="M608.535,147.247a5.725,5.725,0,0,1-1.386-4.206,5.664,5.664,0,0,1,4.2-5.143,6.426,6.426,0,0,1,1.727-.2,6.344,6.344,0,0,1,1.679.2,5.8,5.8,0,0,1,2.859,9.349,6.209,6.209,0,0,1-9.076,0Zm4.519-8.061a4.979,4.979,0,0,0-1.2.156,4.091,4.091,0,0,0-3.016,4.157,4.254,4.254,0,0,0,1,2.781,4.306,4.306,0,0,0,3.25,1.444,4.525,4.525,0,0,0,3.269-1.444,4.378,4.378,0,0,0,1-2.733,4.132,4.132,0,0,0-3.045-4.206A5.618,5.618,0,0,0,613.054,139.186Z" transform="translate(-316.275 -71.733)" fill="#9f1127"/>
      <path id="Path_55558" data-name="Path 55558" d="M641.267,144.393a3.454,3.454,0,0,0,3.523,3.416,4.229,4.229,0,0,0,4.265-4.138V138.6a.727.727,0,0,1,.82-.771.754.754,0,0,1,.859.771V148.4a.822.822,0,0,1-1.64-.019v-1.376a4.661,4.661,0,0,1-4.333,2.293,4.878,4.878,0,0,1-5.153-4.909v-5.8a.727.727,0,0,1,.82-.771.752.752,0,0,1,.84.771Z" transform="translate(-333.187 -71.796)" fill="#9f1127"/>
      <path id="Path_55559" data-name="Path 55559" d="M673.832,139.825a3.482,3.482,0,0,1,3.387-1.864c.527,0,.859.263.859.761,0,.478-.342.742-.859.742-2.342,0-3.338,1.8-3.338,4v4.948a.79.79,0,0,1-.82.771.763.763,0,0,1-.839-.771v-9.7c0-.966,1.61-1.054,1.61,0Z" transform="translate(-350.177 -71.864)" fill="#9f1127"/>
      <path id="Path_55560" data-name="Path 55560" d="M705.452,146.181a1.016,1.016,0,0,1-1.044-.937V133.181a.993.993,0,0,1,1.044-.917H710.4c4.518,0,6.763,3.484,6.763,6.959s-2.245,6.958-6.763,6.958Zm.585-1.415H710.4c3.406,0,5.114-2.781,5.114-5.543s-1.7-5.563-5.114-5.563h-4.362Z" transform="translate(-366.943 -68.899)" fill="#9f1127"/>
      <path id="Path_55561" data-name="Path 55561" d="M745.382,137.923a5.454,5.454,0,0,1,4.2,5.495v-.02c.048.478-.186,1.005-1.113,1.005H739.5a4.036,4.036,0,0,0,4.158,3.289,5.041,5.041,0,0,0,3.016-.917c.79-.7,1.971.2,1.093,1.074a6.6,6.6,0,0,1-8.647-.634c-2.45-3.113-1.386-8.149,2.84-9.281a6.719,6.719,0,0,1,3.406,0h.02Zm-5.953,5.143h8.559a4.03,4.03,0,0,0-3.113-3.718h.02a4.964,4.964,0,0,0-2.45.02A3.978,3.978,0,0,0,739.429,143.066Z" transform="translate(-384.348 -71.738)" fill="#9f1127"/>
      <path id="Path_55562" data-name="Path 55562" d="M774.969,138.892a4.171,4.171,0,0,0-4.157,4.441,4.5,4.5,0,0,0,.976,2.888,4.31,4.31,0,0,0,3.269,1.444,4.087,4.087,0,0,0,3.318-1.444c.566-.742,1.932.107,1.162.966a5.861,5.861,0,0,1-4.5,1.952,6.2,6.2,0,0,1-4.567-1.952,6.112,6.112,0,0,1-1.337-4.294,5.649,5.649,0,0,1,6.022-5.456,5.283,5.283,0,0,1,4.177,1.864c.654.722-.566,1.64-1.2.917A4.2,4.2,0,0,0,774.969,138.892Z" transform="translate(-400.653 -71.595)" fill="#9f1127"/>
      <path id="Path_55563" data-name="Path 55563" d="M798.291,147.247a5.723,5.723,0,0,1-1.385-4.206,5.663,5.663,0,0,1,4.2-5.143,6.428,6.428,0,0,1,1.727-.2,6.347,6.347,0,0,1,1.679.2,5.8,5.8,0,0,1,2.859,9.349,6.209,6.209,0,0,1-9.076,0Zm4.519-8.061a4.983,4.983,0,0,0-1.2.156,4.09,4.09,0,0,0-3.015,4.157,4.251,4.251,0,0,0,1,2.781,4.306,4.306,0,0,0,3.25,1.444,4.525,4.525,0,0,0,3.269-1.444,4.378,4.378,0,0,0,1-2.733,4.132,4.132,0,0,0-3.045-4.206A5.47,5.47,0,0,0,802.81,139.186Z" transform="translate(-415.123 -71.733)" fill="#9f1127"/>
      <path id="Path_55564" data-name="Path 55564" d="M830.954,139.825a3.48,3.48,0,0,1,3.386-1.864c.527,0,.859.263.859.761,0,.478-.341.742-.859.742-2.342,0-3.337,1.8-3.337,4v4.948a.79.79,0,0,1-.82.771.763.763,0,0,1-.839-.771v-9.7c0-.966,1.61-1.054,1.61,0Z" transform="translate(-432.025 -71.864)" fill="#9f1127"/>
      <path id="Path_55565" data-name="Path 55565" d="M845.51,0a8.344,8.344,0,1,0,8.344,8.344A8.353,8.353,0,0,0,845.51,0Zm0,15.332a7,7,0,1,1,7-7A7,7,0,0,1,845.51,15.332Z" transform="translate(-436.1)" fill="#4b4b4b"/>
      <path id="Path_55566" data-name="Path 55566" d="M852.44,14.43a2.166,2.166,0,0,0,1.874-2.235c0-1.522-1.181-2.5-3.015-2.5h-2.635a.487.487,0,0,0-.517.5v6.383a.522.522,0,0,0,.858.361.475.475,0,0,0,.166-.371V14.517h2l2.215,2.4a.542.542,0,0,0,.38.166.568.568,0,0,0,.127-.019.51.51,0,0,0,.361-.342.488.488,0,0,0-.156-.488Zm.839-2.235a1.176,1.176,0,0,1-.332.878,2.235,2.235,0,0,1-1.63.517H849.18V10.653h2.137C852.479,10.653,853.269,11.277,853.279,12.195Z" transform="translate(-441.82 -5.051)" fill="#4b4b4b"/>
    </g>
  </g>
</svg>
