<svg xmlns="http://www.w3.org/2000/svg" width="277" height="150" viewBox="0 0 277 150">
  <g id="Group_23765" data-name="Group 23765" transform="translate(0.3 -0.212)">
    <rect id="Rectangle_6741" data-name="Rectangle 6741" width="277" height="150" transform="translate(-0.3 0.212)" fill="none"/>
    <g id="manadr-rectangle" transform="translate(6.008 47.484)">
      <path id="Path_55493" data-name="Path 55493" d="M54.807,101.565c1.678-.5,3.391-1.035,5.1-1.392a33.351,33.351,0,0,1,8.209-.535,17.306,17.306,0,0,1,5.39.964,9.836,9.836,0,0,1,1.392.642.8.8,0,0,0,.75.036,18.471,18.471,0,0,1,13.028-1c4.176,1.071,6.389,4.1,7.281,8.209a19.842,19.842,0,0,1,.321,3.855V128.8c0,.464-.178.607-.607.678a27.534,27.534,0,0,1-8.388,0c-.5-.071-.607-.25-.571-.714V113.7a11.464,11.464,0,0,0-.25-2.713,3.507,3.507,0,0,0-3.641-3.07,8.7,8.7,0,0,0-2.713.321c-.286.071-.357.214-.286.464a17.456,17.456,0,0,1,.428,4.283v15.776c0,.464-.143.607-.571.678a28.005,28.005,0,0,1-8.459,0c-.357-.071-.5-.178-.5-.571V113.593a10.137,10.137,0,0,0-.286-2.748,3.441,3.441,0,0,0-3.6-2.962,9.466,9.466,0,0,0-2,.178c-.428.071-.571.25-.571.714V128.94c0,.321-.107.464-.428.5a25.356,25.356,0,0,1-9.137-.107V101.565Z" transform="translate(-54.7 -84.753)" fill="#1593ce" fill-rule="evenodd"/>
      <path id="Path_55494" data-name="Path 55494" d="M745.819,129.287c-1.214.143-2.427.321-3.641.357a32.083,32.083,0,0,1-6.674-.321c-.286-.036-.393-.178-.535-.428-1.963-4.212-3.962-8.423-5.961-12.635-.143-.321-.107-.428.179-.571a9.653,9.653,0,0,0,2.5-1.785,5.171,5.171,0,0,0,1.285-4.5,2.945,2.945,0,0,0-2.927-2.391c-.571-.036-1.178,0-1.749,0-.428,0-.571.143-.571.642.036,6.353,0,12.706,0,19.024v2.177c0,.357-.107.5-.428.535a26.532,26.532,0,0,1-8.566,0c-.357-.071-.428-.214-.428-.535V100.733c0-.321.036-.5.428-.535a85.084,85.084,0,0,1,11.279-.714,19.2,19.2,0,0,1,7.352,1.356c4.354,1.892,5.925,5.5,5.5,9.78a9.589,9.589,0,0,1-1.571,4.354,9.334,9.334,0,0,1-1.642,1.713c-.178.178-.286.286-.143.535l6.1,11.671c.036.071.071.178.179.178v.214Z" transform="translate(-481.446 -84.707)" fill="#18bece" fill-rule="evenodd"/>
      <path id="Path_55495" data-name="Path 55495" d="M280.566,118.832v9.958c0,.464-.107.642-.607.714a26.9,26.9,0,0,1-8.459-.036c-.393-.071-.5-.214-.5-.571V102.128c0-.393.107-.5.464-.642a33.513,33.513,0,0,1,12.028-1.82,19.237,19.237,0,0,1,6.674,1.071c3.748,1.463,5.747,4.354,6.46,8.245a21.271,21.271,0,0,1,.285,3.676v16.169c0,.464-.143.607-.571.678a27.354,27.354,0,0,1-8.531,0c-.393-.071-.464-.214-.464-.607V113.121a9.9,9.9,0,0,0-.25-2.034,3.816,3.816,0,0,0-3.962-3.141,9.466,9.466,0,0,0-2,.178c-.428.071-.571.25-.571.678v10.03" transform="translate(-193.798 -84.817)" fill="#1593ce" fill-rule="evenodd"/>
      <path id="Path_55496" data-name="Path 55496" d="M381.428,119.064v-7.388a20.462,20.462,0,0,0-.286-3.6,9.749,9.749,0,0,0-6.532-7.852,16.089,16.089,0,0,0-5.354-.928,32.78,32.78,0,0,0-10.494,1.678c-.321.107-.393.25-.393.571a11.986,11.986,0,0,0,1.642,6.353.355.355,0,0,0,.535.178,20.405,20.405,0,0,1,6.353-1.178,8.606,8.606,0,0,1,3.89.642,3.073,3.073,0,0,1,1.82,2.249c.071.393,0,.464-.392.464a44.537,44.537,0,0,0-4.89.107,17.115,17.115,0,0,0-5.461,1.249,8.376,8.376,0,0,0-5.14,5.639,11.049,11.049,0,0,0-.25,3.07,8.7,8.7,0,0,0,5.854,8.352,24.16,24.16,0,0,0,10.208,1.071,48.069,48.069,0,0,0,8.423-1.606c.357-.071.464-.25.464-.607v-8.459m-8.78.321v2.748c0,.178.036.357-.25.393a11.314,11.314,0,0,1-5.461-.107,2.89,2.89,0,0,1-2.177-3.426,2.646,2.646,0,0,1,1.249-1.82,5.857,5.857,0,0,1,3.177-.892c1-.036,2.035,0,3.034-.036.321,0,.392.107.392.393.036.928.036,1.856.036,2.748" transform="translate(-248.76 -84.586)" fill="#1593ce" fill-rule="evenodd"/>
      <path id="Path_55497" data-name="Path 55497" d="M209.136,118.833v-7.21a16.609,16.609,0,0,0-.25-3.248,10.089,10.089,0,0,0-4.39-7,14.229,14.229,0,0,0-7.5-2,32.962,32.962,0,0,0-10.529,1.642c-.321.107-.393.286-.393.607a12.285,12.285,0,0,0,1.642,6.318c.143.25.285.286.5.178a20,20,0,0,1,6.318-1.178,8.584,8.584,0,0,1,4,.642,3,3,0,0,1,1.785,2.177c.071.393,0,.535-.464.535a44.717,44.717,0,0,0-5.782.178,14.421,14.421,0,0,0-5.568,1.678,7.948,7.948,0,0,0-4.14,5.39,12.335,12.335,0,0,0-.143,3.248,8.5,8.5,0,0,0,5.211,7.674,19.765,19.765,0,0,0,7.852,1.428,41.455,41.455,0,0,0,11.457-1.749c.393-.107.357-.321.357-.607.036-2.927.036-5.818.036-8.709m-8.709.642v2.677c0,.214,0,.393-.285.464a12.129,12.129,0,0,1-5.068,0,3.015,3.015,0,0,1-2.57-3.07,2.621,2.621,0,0,1,1.321-2.32,5.788,5.788,0,0,1,3.141-.857c1-.036,2.034,0,3.034-.036.321,0,.428.107.428.428-.036.892,0,1.785,0,2.713" transform="translate(-137.966 -84.64)" fill="#1593ce" fill-rule="evenodd"/>
      <path id="Path_55498" data-name="Path 55498" d="M655.412,111.028A12.19,12.19,0,0,0,647.774,101c-3.641-1.535-7.424-1.713-11.279-1.57-2.463.107-4.926.428-7.388.642-.5.036-.607.214-.607.678.036,4.64,0,9.244,0,13.884v14.1c0,.357.107.5.464.571a59.245,59.245,0,0,0,10.958.607,24.233,24.233,0,0,0,6.389-1.106c4.39-1.5,7.424-4.319,8.673-8.887a21.327,21.327,0,0,0,.428-8.887m-9.851,7c-.678,2.5-2.463,3.819-5.211,3.962a16.1,16.1,0,0,1-1.856-.036c-.428-.036-.428-.214-.428-.535V108.137c0-.393.107-.535.5-.571a9.456,9.456,0,0,1,3.6.178,5.013,5.013,0,0,1,3.641,4.176,13.608,13.608,0,0,1-.25,6.1" transform="translate(-423.698 -84.652)" fill="#18bece" fill-rule="evenodd"/>
      <path id="Path_55499" data-name="Path 55499" d="M528.187,109.878v-.892c0-.928,0-1.892-.071-2.855a10.263,10.263,0,0,0-8.531-8.887,21.786,21.786,0,0,0-2.82-.143c-.535,0-1.106,0-1.642.036H514.2c0,.25.036.464.036.714v.036c.036,1.285.036,3.212-.036,5.068h0v.071a4.542,4.542,0,0,1-.036.678c2.284.036,3.962.178,4.176.178a1.055,1.055,0,0,1,.357.071,3.531,3.531,0,0,1,2.748,3.641v10.922a3.532,3.532,0,0,1-3.783,3.748h-8.495c-1.178,0-1.642.464-1.677,1.642v8.709a3.456,3.456,0,0,1-3.319,3.534c-2,.036-4,.036-5.925.036-1.963,0-3.926,0-5.818-.036a3.438,3.438,0,0,1-3.319-3.462v-1.927s-.036-.857-.071-2.07v-.642h0c0-1.321,0-3.284.143-5.033l-.107-.107h.107v-.25c.036-.214.036-.428.071-.678a2.465,2.465,0,0,1,.071-.464l.036-.214.036-.143c0-.071.036-.143.036-.25.071-.393.178-.785.285-1.178a21.09,21.09,0,0,1,5.746-9.958,21.392,21.392,0,0,1,7.888-4.89,1.552,1.552,0,0,1,.179-.036l.178-.036a1.493,1.493,0,0,1,.214-.071l.25-.071a19.763,19.763,0,0,1,3.141-.678h0c.036-.25.036-.464.072-.678v-.25h.107l-.107-.107c.143-1.749.143-3.712.143-5.033h0v-.642c-1.142.071-2.249.178-3.141.321h-.036a27.58,27.58,0,0,0-6.746,2.391,27.859,27.859,0,0,0-12.421,12.492,26.9,26.9,0,0,0-2.713,9.137v.036c0,.214-.035.464-.035.714,0,.214-.036.464-.036.678v.071h0c-.071,1.856-.071,3.783-.036,5.068v.036a4.782,4.782,0,0,1,.036.714v1.785c0,.75,0,1.535.036,2.32a9.933,9.933,0,0,0,6.282,9.1,8.051,8.051,0,0,0,2.142.607c.214.036.428.107.642.143l.178.036h13.42l.357-.071a.125.125,0,0,1,.071-.036,10.213,10.213,0,0,0,8.816-10.351v-3.462h3.391a11.806,11.806,0,0,0,2.213-.178,10.261,10.261,0,0,0,8.316-10.172c-.071-3.534-.071-6.246-.071-8.78" transform="translate(-329.702 -83.18)" fill="#18bece"/>
      <path id="Path_55500" data-name="Path 55500" d="M489.065,72.805V72.77c0-.214-.036-.464-.036-.714V70.271c0-.75,0-1.535-.036-2.32a9.933,9.933,0,0,0-6.282-9.1,9.646,9.646,0,0,0-2.142-.607c-.214-.036-.428-.107-.642-.143h-13.6l-.357.071c-.036,0-.036.036-.071.036a10.213,10.213,0,0,0-8.816,10.351V72.02h-3.391a11.805,11.805,0,0,0-2.213.178A10.2,10.2,0,0,0,443.2,82.371v9.673c0,.928,0,1.892.072,2.855a10.226,10.226,0,0,0,8.53,8.887,21.566,21.566,0,0,0,2.784.143c.571,0,1.106,0,1.642-.036h.928c0-.25-.036-.464-.036-.714v-.036c0-1.285-.036-3.212.036-5.068h0V98a4.549,4.549,0,0,1,.036-.678c-2.32-.036-4-.178-4.176-.178a1.057,1.057,0,0,1-.357-.071,3.53,3.53,0,0,1-2.748-3.641c-.036-3.284-.036-6.889,0-10.922a3.532,3.532,0,0,1,3.783-3.748h8.459c1.178,0,1.642-.464,1.678-1.642V68.415a3.455,3.455,0,0,1,3.319-3.534c2-.036,4-.036,5.925-.036,1.963,0,3.926,0,5.818.036a3.438,3.438,0,0,1,3.319,3.462v1.927s.036.857.071,2.07v.642h0c0,1.321,0,3.284-.143,5.033l.107.107h-.107v.25c-.036.214-.036.428-.072.678-.036.143-.036.286-.071.464l-.036.214-.036.143a.453.453,0,0,1-.036.214,11.377,11.377,0,0,1-.285,1.178A21.317,21.317,0,0,1,467.97,96.112c-.071.036-.107.036-.178.071l-.178.036a1.49,1.49,0,0,1-.214.071l-.25.071a19.763,19.763,0,0,1-3.141.678h0c-.036.25-.036.464-.071.678l-.036.107v.143h-.107l.107.107c-.143,1.749-.143,3.712-.143,5.033h0v.642c1.142-.071,2.249-.178,3.141-.321h.036a27.579,27.579,0,0,0,6.746-2.391,27.84,27.84,0,0,0,15.133-21.63v-.036a4.774,4.774,0,0,0,.036-.714,4.565,4.565,0,0,1,.036-.678v-.071h0a37.761,37.761,0,0,0,.179-5.1" transform="translate(-304.535 -58.1)" fill="#1593ce"/>
    </g>
  </g>
</svg>
