<svg xmlns="http://www.w3.org/2000/svg" width="29.47" height="29.505" viewBox="0 0 29.47 29.505">
  <g id="megaphone-outline" transform="translate(-3.2 -3.165)">
    <path id="Path_10" data-name="Path 10" d="M28.216,4.773s-5.6,6.962-10.848,6.962H7.033A1.033,1.033,0,0,0,6,12.768v6.2A1.033,1.033,0,0,0,7.033,20H17.368c5.251,0,10.848,6.991,10.848,6.991a.943.943,0,0,0,1.554-.635V5.4A.919.919,0,0,0,28.216,4.773Z" transform="translate(-0.467)" fill="none" stroke="#f9b4ff" stroke-linecap="round" stroke-linejoin="round" stroke-width="2.6"/>
    <path id="Path_11" data-name="Path 11" d="M5.533,22.134S4.5,21.746,4.5,20.067,5.533,18,5.533,18" transform="translate(0 -4.199)" fill="none" stroke="#f9b4ff" stroke-linecap="round" stroke-linejoin="round" stroke-width="2.6"/>
    <path id="Path_12" data-name="Path 12" d="M42,21.78a1.494,1.494,0,0,0,0-2.842" transform="translate(-11.663 -4.49)" fill="none" stroke="#f9b4ff" stroke-linecap="round" stroke-linejoin="round" stroke-width="2.6"/>
    <path id="Path_13" data-name="Path 13" d="M24,15v8.268" transform="translate(-6.065 -3.266)" fill="none" stroke="#f9b4ff" stroke-linecap="round" stroke-linejoin="round" stroke-width="2.6"/>
    <path id="Path_14" data-name="Path 14" d="M10.5,15v8.268" transform="translate(-1.866 -3.266)" fill="none" stroke="#f9b4ff" stroke-linecap="round" stroke-linejoin="round" stroke-width="2.6"/>
    <path id="Path_15" data-name="Path 15" d="M13.5,27V37.851a.517.517,0,0,0,.517.517H17.44a1.033,1.033,0,0,0,.988-1.339C17.886,35.293,16.6,33.335,16.6,30.1h1.033a1.033,1.033,0,0,0,1.033-1.033V28.033A1.033,1.033,0,0,0,17.634,27H16.6" transform="translate(-2.799 -6.998)" fill="none" stroke="#f9b4ff" stroke-linecap="round" stroke-linejoin="round" stroke-width="2.6"/>
  </g>
</svg>
