<svg xmlns="http://www.w3.org/2000/svg" width="287" height="150" viewBox="0 0 287 150">
  <g id="Group_23763" data-name="Group 23763" transform="translate(0.232 -0.212)">
    <rect id="Rectangle_6739" data-name="Rectangle 6739" width="287" height="150" transform="translate(-0.232 0.212)" fill="none"/>
    <g id="Layer_2" data-name="Layer 2" transform="translate(11.965 35.278)">
      <g id="Layer_1" data-name="Layer 1">
        <path id="Path_55460" data-name="Path 55460" d="M.1,57.439,0,2.32l37.712,39.3L37.644,5.762l7.789-.016.1,54.75L7.823,21.293l.07,36.131Z" transform="translate(0 -1.905)" fill="#294396"/>
        <rect id="Rectangle_6730" data-name="Rectangle 6730" width="7.787" height="51.609" transform="translate(55.062 3.817) rotate(-0.11)" fill="#294396"/>
        <path id="Path_55461" data-name="Path 55461" d="M644.585,44.655l-22.094.043-5.73,12.534-8.391.018L633.8,2.35l24.75,54.812-8.521.018ZM641.4,37.34l-7.687-17.534-7.988,17.564Z" transform="translate(-499.434 -1.929)" fill="#294396"/>
        <path id="Path_55462" data-name="Path 55462" d="M950.7,44.045l-22.094.043-5.73,12.534-8.391.018,25.427-54.9,24.75,54.818-8.522.018Zm-3.189-7.315L939.821,19.2l-7.988,17.564Z" transform="translate(-750.732 -1.428)" fill="#294396"/>
        <path id="Path_55463" data-name="Path 55463" d="M1230.244,55.119,1230.14,0l37.712,39.3-.068-35.864,7.789-.014.1,54.748-37.709-39.2.066,36.133Z" transform="translate(-1009.869)" fill="#294396"/>
        <rect id="Rectangle_6731" data-name="Rectangle 6731" width="1.368" height="13.512" transform="translate(1.375 66.865)" fill="#264494"/>
        <path id="Path_55464" data-name="Path 55464" d="M42.276,391.742a4.369,4.369,0,0,1,2.079.475,3.284,3.284,0,0,1,1.4,1.432,5.143,5.143,0,0,1,.512,2.43v5.889H44.962V396.22a3.416,3.416,0,0,0-.77-2.423,2.8,2.8,0,0,0-2.149-.82,3.594,3.594,0,0,0-1.8.433,2.919,2.919,0,0,0-1.184,1.253,4.353,4.353,0,0,0-.415,1.979v5.329H37.32V391.837h1.253v2.781l-.206-.523a3.635,3.635,0,0,1,1.483-1.724,4.5,4.5,0,0,1,2.426-.628" transform="translate(-30.637 -321.594)" fill="#264494"/>
        <path id="Path_55465" data-name="Path 55465" d="M98.64,382.026h6.006v1.139H98.64Zm4.584,10.232a2.775,2.775,0,0,1-2.108-.774,3.029,3.029,0,0,1-.74-2.181V379.79h1.313v9.437a1.979,1.979,0,0,0,.433,1.372,1.612,1.612,0,0,0,1.253.482,2.054,2.054,0,0,0,1.441-.521l.464.985a2.463,2.463,0,0,1-.935.537,3.7,3.7,0,0,1-1.117.179" transform="translate(-80.977 -311.784)" fill="#264494"/>
        <path id="Path_55466" data-name="Path 55466" d="M146.676,402.068a5.2,5.2,0,0,1-2.663-.666,4.728,4.728,0,0,1-1.791-1.835,5.371,5.371,0,0,1-.648-2.673,5.576,5.576,0,0,1,.612-2.663,4.711,4.711,0,0,1,1.7-1.825,4.82,4.82,0,0,1,4.86-.018,4.51,4.51,0,0,1,1.674,1.812,5.73,5.73,0,0,1,.611,2.686v.206a2.153,2.153,0,0,0-.011.22h-8.452v-1.022h7.744l-.517.4a4.145,4.145,0,0,0-.449-1.954,3.422,3.422,0,0,0-1.228-1.341,3.328,3.328,0,0,0-1.791-.482,3.4,3.4,0,0,0-1.791.482,3.322,3.322,0,0,0-1.241,1.352,4.339,4.339,0,0,0-.441,1.988v.213a4.106,4.106,0,0,0,.489,2.038,3.513,3.513,0,0,0,1.368,1.368,4.02,4.02,0,0,0,2.006.492,4.142,4.142,0,0,0,1.655-.328,3.388,3.388,0,0,0,1.32-1l.74.9a4.179,4.179,0,0,1-1.612,1.237,5.249,5.249,0,0,1-2.133.423" transform="translate(-116.223 -321.594)" fill="#264494"/>
        <path id="Path_55467" data-name="Path 55467" d="M208.807,401.592a4.973,4.973,0,0,1-2.5-.629,4.584,4.584,0,0,1-1.746-1.748,5.1,5.1,0,0,1-.637-2.568,5.044,5.044,0,0,1,.637-2.555,4.522,4.522,0,0,1,1.746-1.728,5.042,5.042,0,0,1,2.5-.618,4.835,4.835,0,0,1,2.328.559,4.061,4.061,0,0,1,1.644,1.662,6.213,6.213,0,0,1,0,5.372,4.2,4.2,0,0,1-1.644,1.676,4.687,4.687,0,0,1-2.328.582m.238,4.226a8.068,8.068,0,0,1-2.548-.4,5,5,0,0,1-1.97-1.159l.666-1.04a5.013,5.013,0,0,0,1.69,1.01,6.048,6.048,0,0,0,2.134.376,3.644,3.644,0,0,0,2.718-.9,3.832,3.832,0,0,0,.858-2.786v-2.539l.179-1.737-.129-1.735v-3.071H213.9v8.9a5.25,5.25,0,0,1-1.228,3.852,4.925,4.925,0,0,1-3.633,1.225m-.109-5.443a3.785,3.785,0,0,0,1.905-.474,3.476,3.476,0,0,0,1.313-1.309,3.863,3.863,0,0,0,.478-1.943,3.811,3.811,0,0,0-.478-1.93,3.549,3.549,0,0,0-1.312-1.3,4.04,4.04,0,0,0-3.8,0,3.384,3.384,0,0,0-1.313,1.3,3.863,3.863,0,0,0-.471,1.93,3.916,3.916,0,0,0,.48,1.945,3.319,3.319,0,0,0,1.313,1.309,3.773,3.773,0,0,0,1.894.474" transform="translate(-167.41 -321.6)" fill="#264494"/>
        <path id="Path_55468" data-name="Path 55468" d="M280.11,401.96V391.827h1.253v2.759l-.129-.482a3.284,3.284,0,0,1,1.368-1.766,4.376,4.376,0,0,1,2.383-.611v1.334a.961.961,0,0,1-.147-.011,1.065,1.065,0,0,0-.147-.011,3.071,3.071,0,0,0-2.407.974,4.008,4.008,0,0,0-.867,2.77v5.175Z" transform="translate(-229.953 -321.583)" fill="#264494"/>
        <path id="Path_55469" data-name="Path 55469" d="M315.657,402.074a4.476,4.476,0,0,1-1.895-.374,2.84,2.84,0,0,1-1.228-1.042,2.8,2.8,0,0,1-.426-1.536,2.936,2.936,0,0,1,.358-1.432,2.6,2.6,0,0,1,1.184-1.042,5.193,5.193,0,0,1,2.211-.4H319.2v1.022H315.9a2.854,2.854,0,0,0-1.952.521,1.73,1.73,0,0,0-.537,1.295,1.707,1.707,0,0,0,.646,1.391,2.83,2.83,0,0,0,1.814.518,3.388,3.388,0,0,0,1.912-.537,3.012,3.012,0,0,0,1.173-1.533l.294.945a3.192,3.192,0,0,1-1.282,1.6,4.142,4.142,0,0,1-2.3.6m3.347-.095v-2.238l-.056-.358v-3.753a2.7,2.7,0,0,0-.691-1.988,2.781,2.781,0,0,0-2.063-.695,4.974,4.974,0,0,0-1.791.328,4.5,4.5,0,0,0-1.441.869l-.591-1.023a5.1,5.1,0,0,1,1.773-1.012,6.588,6.588,0,0,1,2.181-.358,4.064,4.064,0,0,1,2.912.974,3.906,3.906,0,0,1,1.026,2.964v6.294Z" transform="translate(-256.221 -321.602)" fill="#264494"/>
        <path id="Path_55470" data-name="Path 55470" d="M369.09,382.026H375.1v1.139H369.09Zm4.586,10.232a2.782,2.782,0,0,1-2.108-.774,3.029,3.029,0,0,1-.74-2.181V379.79h1.312v9.437a1.965,1.965,0,0,0,.435,1.372,1.6,1.6,0,0,0,1.253.482,2.047,2.047,0,0,0,1.441-.521l.464.985a2.425,2.425,0,0,1-.935.537,3.7,3.7,0,0,1-1.117.179" transform="translate(-303 -311.784)" fill="#264494"/>
        <path id="Path_55471" data-name="Path 55471" d="M417.1,402.068a5.2,5.2,0,0,1-2.663-.666,4.728,4.728,0,0,1-1.791-1.835,5.391,5.391,0,0,1-.655-2.673,5.576,5.576,0,0,1,.618-2.663,4.723,4.723,0,0,1,1.71-1.825,4.82,4.82,0,0,1,4.86-.018,4.511,4.511,0,0,1,1.672,1.812,5.73,5.73,0,0,1,.611,2.686v.206a2.157,2.157,0,0,0-.011.22H413v-1.022h7.746l-.519.4a4.145,4.145,0,0,0-.453-1.961,3.422,3.422,0,0,0-1.228-1.341,3.328,3.328,0,0,0-1.791-.482,3.4,3.4,0,0,0-1.791.482,3.3,3.3,0,0,0-1.239,1.352,4.319,4.319,0,0,0-.442,1.988v.213a4.106,4.106,0,0,0,.489,2.038,3.513,3.513,0,0,0,1.368,1.368,4.02,4.02,0,0,0,2.005.492,4.134,4.134,0,0,0,1.655-.328,3.388,3.388,0,0,0,1.32-1l.74.9a4.179,4.179,0,0,1-1.612,1.237,5.242,5.242,0,0,1-2.133.423" transform="translate(-338.222 -321.594)" fill="#264494"/>
        <path id="Path_55472" data-name="Path 55472" d="M479.234,383.316a4.738,4.738,0,0,1-2.485-.655,4.605,4.605,0,0,1-1.728-1.823,6.088,6.088,0,0,1,0-5.4,4.586,4.586,0,0,1,1.728-1.807,4.816,4.816,0,0,1,2.485-.646,4.4,4.4,0,0,1,2.281.6,4.3,4.3,0,0,1,1.612,1.748,5.979,5.979,0,0,1,.6,2.809,6.1,6.1,0,0,1-.593,2.8,4.232,4.232,0,0,1-1.6,1.766,4.362,4.362,0,0,1-2.3.607m.093-1.214a3.545,3.545,0,0,0,1.857-.492,3.468,3.468,0,0,0,1.295-1.389,4.835,4.835,0,0,0,0-4.16,3.462,3.462,0,0,0-1.295-1.379,3.512,3.512,0,0,0-1.852-.494,3.452,3.452,0,0,0-1.832.494,3.564,3.564,0,0,0-1.295,1.379,4.763,4.763,0,0,0,0,4.16,3.57,3.57,0,0,0,1.295,1.389,3.483,3.483,0,0,0,1.832.492m3.658,1.119v-3.044l.129-2.045-.179-2.048V368.9h1.314v14.325Z" transform="translate(-389.445 -302.844)" fill="#264494"/>
        <path id="Path_55473" data-name="Path 55473" d="M578.44,386.912V373.4h4.835a6.673,6.673,0,0,1,2.829.551,4.169,4.169,0,0,1,1.821,1.583,4.654,4.654,0,0,1,.636,2.507,4.574,4.574,0,0,1-.627,2.448,4.213,4.213,0,0,1-1.821,1.594,6.563,6.563,0,0,1-2.829.559H579.2l.609-.673v4.938Zm1.368-4.824-.609-.695h4.049a4.361,4.361,0,0,0,2.949-.879,3.113,3.113,0,0,0,1-2.48,3.164,3.164,0,0,0-1-2.507,4.377,4.377,0,0,0-2.949-.9H579.2l.609-.671Z" transform="translate(-474.864 -306.537)" fill="#264494"/>
        <path id="Path_55474" data-name="Path 55474" d="M648.467,402.074a4.476,4.476,0,0,1-1.894-.374,2.839,2.839,0,0,1-1.228-1.042,2.8,2.8,0,0,1-.426-1.536,2.933,2.933,0,0,1,.358-1.432,2.6,2.6,0,0,1,1.185-1.042,5.187,5.187,0,0,1,2.21-.4h3.343v1.022h-3.3a2.856,2.856,0,0,0-1.954.521,1.723,1.723,0,0,0-.537,1.295,1.7,1.7,0,0,0,.648,1.391,2.826,2.826,0,0,0,1.812.517,3.388,3.388,0,0,0,1.912-.537,3.023,3.023,0,0,0,1.173-1.533l.3.945a3.2,3.2,0,0,1-1.284,1.6,4.133,4.133,0,0,1-2.3.6m3.347-.095v-2.238l-.055-.358v-3.753a2.693,2.693,0,0,0-.695-1.988,2.784,2.784,0,0,0-2.059-.695,5,5,0,0,0-1.791.328,4.559,4.559,0,0,0-1.443.868l-.587-1.022a5.085,5.085,0,0,1,1.773-1.012,6.6,6.6,0,0,1,2.181-.358,4.07,4.07,0,0,1,2.913.974,3.9,3.9,0,0,1,1.026,2.963v6.294Z" transform="translate(-529.438 -321.602)" fill="#264494"/>
        <path id="Path_55475" data-name="Path 55475" d="M709.679,370.845a.924.924,0,0,1-.684-.29.983.983,0,0,1-.276-.695.97.97,0,0,1,1.644-.695.9.9,0,0,1,.281.675,1.027,1.027,0,0,1-.269.716.914.914,0,0,1-.7.29m-.664,2.237h1.313v10.131h-1.313Z" transform="translate(-581.815 -302.839)" fill="#264494"/>
        <path id="Path_55476" data-name="Path 55476" d="M743.111,391.742a4.363,4.363,0,0,1,2.077.475,3.289,3.289,0,0,1,1.406,1.432,5.182,5.182,0,0,1,.51,2.43v5.889h-1.312v-5.748a3.424,3.424,0,0,0-.768-2.423,2.794,2.794,0,0,0-2.149-.82,3.581,3.581,0,0,0-1.8.433,2.924,2.924,0,0,0-1.185,1.253,4.353,4.353,0,0,0-.416,1.979v5.329H738.16V391.837h1.253v2.781l-.208-.523a3.6,3.6,0,0,1,1.477-1.724,4.505,4.505,0,0,1,2.421-.628" transform="translate(-605.984 -321.595)" fill="#264494"/>
        <path id="Path_55477" data-name="Path 55477" d="M829.716,386.932V374.655H825.17V373.42h10.459v1.235h-4.545v12.276Z" transform="translate(-677.414 -306.555)" fill="#264494"/>
        <path id="Path_55478" data-name="Path 55478" d="M899.191,372.975a4.369,4.369,0,0,1,2.079.475,3.284,3.284,0,0,1,1.4,1.432,5.182,5.182,0,0,1,.512,2.43V383.2h-1.313v-5.748a3.416,3.416,0,0,0-.77-2.423,2.8,2.8,0,0,0-2.149-.82,3.594,3.594,0,0,0-1.8.433,2.919,2.919,0,0,0-1.184,1.253,4.353,4.353,0,0,0-.415,1.979V383.2H894.24V368.88h1.313v6.969l-.258-.523a3.606,3.606,0,0,1,1.479-1.724,4.5,4.5,0,0,1,2.419-.629" transform="translate(-734.116 -302.828)" fill="#264494"/>
        <path id="Path_55479" data-name="Path 55479" d="M963.606,402.068a5.2,5.2,0,0,1-2.663-.666,4.729,4.729,0,0,1-1.791-1.835,5.391,5.391,0,0,1-.648-2.673,5.576,5.576,0,0,1,.625-2.663,4.7,4.7,0,0,1,1.7-1.825,4.82,4.82,0,0,1,4.86-.018,4.511,4.511,0,0,1,1.672,1.812,5.73,5.73,0,0,1,.61,2.686v.206a2.176,2.176,0,0,0-.011.22h-8.457v-1.022h7.746l-.519.4a4.146,4.146,0,0,0-.453-1.961,3.423,3.423,0,0,0-1.228-1.341,3.333,3.333,0,0,0-1.791-.482,3.391,3.391,0,0,0-1.791.482,3.3,3.3,0,0,0-1.239,1.352,4.32,4.32,0,0,0-.442,1.988v.213a4.119,4.119,0,0,0,.489,2.038,3.467,3.467,0,0,0,1.368,1.368,4.021,4.021,0,0,0,2.005.492,4.141,4.141,0,0,0,1.655-.328,3.389,3.389,0,0,0,1.32-1l.74.9a4.179,4.179,0,0,1-1.611,1.237,5.243,5.243,0,0,1-2.149.424" transform="translate(-786.873 -321.594)" fill="#264494"/>
        <path id="Path_55480" data-name="Path 55480" d="M1026.36,401.96V391.827h1.253v2.759l-.127-.482a3.287,3.287,0,0,1,1.365-1.766,4.4,4.4,0,0,1,2.387-.611v1.334a.984.984,0,0,1-.149-.011,1.052,1.052,0,0,0-.15-.011,3.057,3.057,0,0,0-2.4.974,4.035,4.035,0,0,0-.868,2.77v5.175Z" transform="translate(-842.578 -321.583)" fill="#264494"/>
        <path id="Path_55481" data-name="Path 55481" d="M1061.907,402.074a4.475,4.475,0,0,1-1.895-.374,2.84,2.84,0,0,1-1.228-1.042,2.8,2.8,0,0,1-.426-1.536,2.918,2.918,0,0,1,.358-1.433,2.585,2.585,0,0,1,1.184-1.042,5.193,5.193,0,0,1,2.211-.4h3.345v1.022h-3.307a2.851,2.851,0,0,0-1.952.521,1.816,1.816,0,0,0,.1,2.686,2.829,2.829,0,0,0,1.814.517,3.391,3.391,0,0,0,1.912-.537,3.043,3.043,0,0,0,1.173-1.533l.294.946a3.187,3.187,0,0,1-1.284,1.6,4.132,4.132,0,0,1-2.3.6m3.347-.095v-2.238l-.056-.358v-3.753a2.693,2.693,0,0,0-.695-1.988,2.784,2.784,0,0,0-2.059-.695,5.013,5.013,0,0,0-1.79.328,4.573,4.573,0,0,0-1.442.868l-.589-1.022a5.1,5.1,0,0,1,1.773-1.012,6.6,6.6,0,0,1,2.181-.358,4.067,4.067,0,0,1,2.913.974,3.907,3.907,0,0,1,1.026,2.964v6.294Z" transform="translate(-868.846 -321.602)" fill="#264494"/>
        <path id="Path_55482" data-name="Path 55482" d="M1123.81,405.722V391.842h1.253v3.044l-.129,2.027.179,2.048v6.761Zm5.014-3.649a4.267,4.267,0,0,1-3.891-2.364,6,6,0,0,1-.6-2.809,6.065,6.065,0,0,1,.591-2.811,4.184,4.184,0,0,1,1.611-1.742,4.409,4.409,0,0,1,2.29-.6,4.794,4.794,0,0,1,2.487.646,4.571,4.571,0,0,1,1.728,1.814,6.1,6.1,0,0,1,0,5.4,4.668,4.668,0,0,1-1.728,1.814,4.767,4.767,0,0,1-2.487.657m-.091-1.218a3.436,3.436,0,0,0,3.141-1.882,4.684,4.684,0,0,0,0-4.138,3.54,3.54,0,0,0-5-1.39,3.526,3.526,0,0,0-1.295,1.39,4.782,4.782,0,0,0,0,4.138,3.42,3.42,0,0,0,1.295,1.389,3.543,3.543,0,0,0,1.857.492" transform="translate(-922.579 -321.599)" fill="#264494"/>
        <path id="Path_55483" data-name="Path 55483" d="M1193.467,402.069a5.2,5.2,0,0,1-2.654-.666,4.728,4.728,0,0,1-1.791-1.835,5.366,5.366,0,0,1-.648-2.673,5.574,5.574,0,0,1,.618-2.663,4.713,4.713,0,0,1,1.7-1.825,4.819,4.819,0,0,1,4.858-.018,4.5,4.5,0,0,1,1.674,1.812,5.732,5.732,0,0,1,.611,2.686v.206a2.175,2.175,0,0,0-.011.22h-8.464v-1.022h7.744l-.517.4a4.166,4.166,0,0,0-.453-1.961,3.423,3.423,0,0,0-1.228-1.341,3.335,3.335,0,0,0-1.791-.482,3.4,3.4,0,0,0-1.791.482,3.333,3.333,0,0,0-1.239,1.352,4.343,4.343,0,0,0-.441,1.988v.213a4.107,4.107,0,0,0,.489,2.038,3.455,3.455,0,0,0,1.368,1.368,4.018,4.018,0,0,0,2,.492,4.144,4.144,0,0,0,1.656-.328,3.385,3.385,0,0,0,1.319-1l.74.9a4.194,4.194,0,0,1-1.611,1.237,5.28,5.28,0,0,1-2.137.423" transform="translate(-975.582 -321.595)" fill="#264494"/>
        <path id="Path_55484" data-name="Path 55484" d="M1259.743,402.512a4.638,4.638,0,0,1-2.163-.482,3.37,3.37,0,0,1-1.432-1.45,5.155,5.155,0,0,1-.507-2.412V392.28h1.318v5.73a3.452,3.452,0,0,0,.77,2.443,2.8,2.8,0,0,0,2.149.82,3.457,3.457,0,0,0,1.766-.435,2.83,2.83,0,0,0,1.148-1.264,4.55,4.55,0,0,0,.4-1.986V392.28h1.313v10.135h-1.253v-2.779l.2.5a3.677,3.677,0,0,1-1.433,1.746,4.062,4.062,0,0,1-2.265.63" transform="translate(-1030.803 -322.038)" fill="#264494"/>
        <path id="Path_55485" data-name="Path 55485" d="M1317.07,382.026h6.006v1.139h-6.006Zm4.582,10.232a2.775,2.775,0,0,1-2.108-.774,3.029,3.029,0,0,1-.74-2.181V379.79h1.313v9.437a1.971,1.971,0,0,0,.435,1.372,1.6,1.6,0,0,0,1.253.482,2.053,2.053,0,0,0,1.432-.521l.464.985a2.465,2.465,0,0,1-.935.537,3.7,3.7,0,0,1-1.118.179" transform="translate(-1081.234 -311.784)" fill="#264494"/>
        <path id="Path_55486" data-name="Path 55486" d="M1366.733,370.841a.913.913,0,0,1-.684-.29.98.98,0,0,1-.28-.695.96.96,0,0,1,.964-.967.939.939,0,0,1,.684.272.9.9,0,0,1,.276.675,1,1,0,0,1-.269.716.9.9,0,0,1-.691.29m-.666,2.236h1.314V383.21h-1.314Z" transform="translate(-1121.213 -302.835)" fill="#264494"/>
        <path id="Path_55487" data-name="Path 55487" d="M1394.705,402.066a5,5,0,0,1-2.577-.666,4.76,4.76,0,0,1-1.791-1.835,5.851,5.851,0,0,1,0-5.354,4.682,4.682,0,0,1,1.791-1.814,5.066,5.066,0,0,1,2.577-.659,4.9,4.9,0,0,1,2.237.5,3.674,3.674,0,0,1,1.577,1.511l-.978.695a3.138,3.138,0,0,0-1.239-1.141,3.581,3.581,0,0,0-4.788,1.508,4.78,4.78,0,0,0,0,4.167,3.533,3.533,0,0,0,1.313,1.381,3.76,3.76,0,0,0,3.476.129,3.185,3.185,0,0,0,1.239-1.123l.978.695a3.758,3.758,0,0,1-1.57,1.5,4.817,4.817,0,0,1-2.236.512" transform="translate(-1140.85 -321.592)" fill="#264494"/>
        <path id="Path_55488" data-name="Path 55488" d="M1449.727,402.1a7.07,7.07,0,0,1-2.272-.358,4.817,4.817,0,0,1-1.685-.9l.593-1.074a5.528,5.528,0,0,0,1.515.8,5.618,5.618,0,0,0,1.942.338,3.408,3.408,0,0,0,2-.457,1.419,1.419,0,0,0,.611-1.205,1.148,1.148,0,0,0-.342-.879,2.247,2.247,0,0,0-.9-.482,11.019,11.019,0,0,0-1.241-.279q-.682-.116-1.357-.269a4.8,4.8,0,0,1-1.229-.457,2.424,2.424,0,0,1-.9-.82,2.5,2.5,0,0,1-.342-1.39,2.572,2.572,0,0,1,.446-1.486,2.96,2.96,0,0,1,1.3-1.033,5.224,5.224,0,0,1,2.1-.376,7.121,7.121,0,0,1,1.886.261,5.034,5.034,0,0,1,1.552.684l-.573,1.1a4.3,4.3,0,0,0-1.388-.664,5.528,5.528,0,0,0-1.478-.206,3.175,3.175,0,0,0-1.932.475,1.455,1.455,0,0,0-.618,1.205,1.211,1.211,0,0,0,.342.91,2.4,2.4,0,0,0,.906.51,8.736,8.736,0,0,0,1.239.3c.447.079.9.17,1.35.279a5.952,5.952,0,0,1,1.236.446,2.29,2.29,0,0,1,.908.791,2.375,2.375,0,0,1,.342,1.341,2.54,2.54,0,0,1-.471,1.535,3.047,3.047,0,0,1-1.368,1,5.852,5.852,0,0,1-2.174.358" transform="translate(-1186.888 -321.626)" fill="#264494"/>
        <path id="Path_55489" data-name="Path 55489" d="M516.6,9.78a6.014,6.014,0,0,1-4.133,7.374,5.908,5.908,0,0,1-7.191-4.321,6.007,6.007,0,0,1,4.133-7.376A5.9,5.9,0,0,1,516.6,9.78" transform="translate(-414.633 -4.319)" fill="#25b2e7"/>
        <path id="Path_55490" data-name="Path 55490" d="M397.985,52.828l.235-.312.251-.4c-1.289-1.366-3.2-3.463-5.409-6.149-1.74-2.115-2.192-2.75-3.255-4.034-6.076-7.327-9.594-8.9-21.9-8.663a87.2,87.2,0,0,1,19.656,24.71c1.3,2.462,2.328,4.783,2.328,4.783a44.262,44.262,0,0,1,2.364,7.558c-.043-.358-.084-.743-.111-1.18-.016-.063-.034-.136-.052-.2-1.477-7.232,5.886-16.116,5.886-16.116" transform="translate(-302.032 -27.296)" fill="#25b2e7"/>
        <path id="Path_55491" data-name="Path 55491" d="M523.951,45.439c-3.855,5.1-6.253,8.269-10.049,13.283-1.361,2.158-2.4,4.066-3.155,5.562a26.784,26.784,0,0,0-2.732,6.625,18.264,18.264,0,0,0-.381,4.994c.537,1.995,1.051,4.169,1.475,6.523.376,2.072.641,4.036.827,5.871,1.586-3.223,3.365-6.579,5.372-10.044,1.612-2.788,3.239-5.415,4.849-7.879,0,0,16.7-20.827,23.923-30.346-7.311.013-15.936-.116-20.123,5.4" transform="translate(-416.707 -32.862)" fill="#25b2e7"/>
        <path id="Path_55492" data-name="Path 55492" d="M506.969,156.608a26.608,26.608,0,0,1,2.732-6.636c.754-1.5,1.791-3.4,3.157-5.562-.084.111-.163.213-.244.324,0,0-7.61,9.184-6.088,16.653.02.066.038.14.056.21a18.247,18.247,0,0,1,.381-4.994" transform="translate(-415.662 -118.552)" fill="#25b2e7"/>
      </g>
    </g>
  </g>
</svg>
