<svg xmlns="http://www.w3.org/2000/svg" width="37" height="37" viewBox="0 0 37 37">
  <g id="Group_16303" data-name="Group 16303" transform="translate(-0.037 0.355)">
    <g id="Ellipse_2" data-name="Ellipse 2" transform="translate(0.037 -0.355)" fill="none" stroke="#ff5858" stroke-width="3">
      <circle cx="18.5" cy="18.5" r="18.5" stroke="none"/>
      <circle cx="18.5" cy="18.5" r="17" fill="none"/>
    </g>
    <g id="checkboxalt" transform="translate(10.692 10.6)">
      <path id="Path_347" data-name="Path 347" d="M22.447,19.577l4.235,4.235a1.935,1.935,0,0,1,.6,1.417,1.862,1.862,0,0,1-.582,1.387,1.936,1.936,0,0,1-1.4.567,1.987,1.987,0,0,1-1.417-.567L19.644,22.38l-4.235,4.265a1.969,1.969,0,0,1-1.4.567,1.982,1.982,0,0,1-1.4-3.37l4.265-4.265-4.295-4.265a1.987,1.987,0,0,1-.567-1.417,1.935,1.935,0,0,1,1.953-1.953,1.987,1.987,0,0,1,1.417.567L19.644,16.8l4.295-4.295a1.886,1.886,0,0,1,1.387-.567,1.986,1.986,0,0,1,1.983,1.983,1.839,1.839,0,0,1-.6,1.387Z" transform="translate(-12.009 -11.942)" fill="#ff5858"/>
    </g>
  </g>
</svg>
