<svg xmlns="http://www.w3.org/2000/svg" width="26.241" height="28.185" viewBox="0 0 26.241 28.185">
  <g id="notification-new" transform="translate(-159.063 -25.5)">
    <path id="Path_268" data-name="Path 268" d="M26.854,16.648V14.135H24.91V17.05a.972.972,0,0,0,.285.687l2.631,2.631V21.91H6.444V20.368l2.631-2.631a.972.972,0,0,0,.285-.687V13.163A7.761,7.761,0,0,1,21.022,6.439V4.267a9.618,9.618,0,0,0-2.916-.774V1.5H16.163V3.492a9.733,9.733,0,0,0-8.747,9.67v3.485L4.785,19.279a.972.972,0,0,0-.285.687v2.916a.972.972,0,0,0,.972.972h6.8v.972a4.859,4.859,0,0,0,9.719,0v-.972h6.8a.972.972,0,0,0,.972-.972V19.966a.972.972,0,0,0-.285-.687Zm-6.8,8.178a2.916,2.916,0,1,1-5.831,0v-.972H20.05Z" transform="translate(154.563 24)" fill="#4fc3ff"/>
    <circle id="Ellipse_5" data-name="Ellipse 5" cx="3.888" cy="3.888" r="3.888" transform="translate(177.53 28.416)" fill="#4fc3ff"/>
  </g>
</svg>
