<svg xmlns="http://www.w3.org/2000/svg" width="22.605" height="22.605" viewBox="0 0 22.605 22.605">
  <path id="Path_253" data-name="Path 253" d="M12.951,15.776v2.355a.453.453,0,0,1-.471.471H10.125a.453.453,0,0,1-.471-.471V15.776a.453.453,0,0,1,.471-.471H12.48a.453.453,0,0,1,.471.471Zm3.767-7.3A3.75,3.75,0,0,1,16.5,9.8a2.681,2.681,0,0,1-.67,1.015,6.919,6.919,0,0,1-.765.648q-.316.221-.876.53-.471.265-.684.412a1.861,1.861,0,0,0-.383.353.666.666,0,0,0-.169.427v.471a.453.453,0,0,1-.471.471H10.125a.453.453,0,0,1-.471-.471v-1a2.812,2.812,0,0,1,.155-.949,2.646,2.646,0,0,1,.353-.7,2.423,2.423,0,0,1,.574-.522,6.043,6.043,0,0,1,.6-.375q.228-.118.655-.309a5.721,5.721,0,0,0,1.1-.633.882.882,0,0,0,.324-.721,1.256,1.256,0,0,0-.64-1.052,2.451,2.451,0,0,0-1.405-.434,2.4,2.4,0,0,0-1.4.4A6.731,6.731,0,0,0,8.8,8.58a.434.434,0,0,1-.368.177.453.453,0,0,1-.28-.088L6.564,7.461a.421.421,0,0,1-.177-.294.449.449,0,0,1,.074-.338A5.738,5.738,0,0,1,11.6,4a5.431,5.431,0,0,1,3.51,1.317A3.959,3.959,0,0,1,16.718,8.477ZM11.3,1.884a9.155,9.155,0,0,0-3.657.751A9.288,9.288,0,0,0,2.634,7.645a9.285,9.285,0,0,0,0,7.314,9.288,9.288,0,0,0,5.011,5.011,9.285,9.285,0,0,0,7.314,0,9.288,9.288,0,0,0,5.011-5.011,9.285,9.285,0,0,0,0-7.314A9.288,9.288,0,0,0,14.96,2.634,9.155,9.155,0,0,0,11.3,1.884ZM22.6,11.3a11.056,11.056,0,0,1-1.516,5.673,11.252,11.252,0,0,1-4.113,4.113A11.056,11.056,0,0,1,11.3,22.6a11.056,11.056,0,0,1-5.673-1.516,11.252,11.252,0,0,1-4.113-4.113A11.056,11.056,0,0,1,0,11.3,11.056,11.056,0,0,1,1.516,5.629,11.252,11.252,0,0,1,5.629,1.516,11.056,11.056,0,0,1,11.3,0a11.056,11.056,0,0,1,5.673,1.516,11.252,11.252,0,0,1,4.113,4.113A11.056,11.056,0,0,1,22.6,11.3Z"/>
</svg>
