<svg xmlns="http://www.w3.org/2000/svg" xmlns:xlink="http://www.w3.org/1999/xlink" width="346.258" height="69.089" viewBox="0 0 346.258 69.089">
  <defs>
    <clipPath id="clip-path">
      <rect width="289.174" height="51.563" fill="none"/>
    </clipPath>
    <clipPath id="clip-path-2">
      <rect id="Rectangle_4" data-name="Rectangle 4" width="58.533" height="42.872" transform="translate(881.704 912.058) rotate(-36)" fill="#fff"/>
    </clipPath>
  </defs>
  <g id="Group_38" data-name="Group 38" transform="translate(-608 -877.653)">
    <g id="Repeat_Grid_1" data-name="Repeat Grid 1" transform="translate(608 890.247)" clip-path="url(#clip-path)">
      <g transform="translate(-678.441 -2063.247)">
        <path id="star-solid" d="M53.624,1.813a3.226,3.226,0,0,0-5.8,0L41.348,15.135,26.888,17.27A3.223,3.223,0,0,0,25.1,22.748L35.589,33.13,33.111,47.8a3.231,3.231,0,0,0,4.7,3.383l12.92-6.9,12.92,6.9a3.231,3.231,0,0,0,4.7-3.383L65.869,33.13,76.361,22.748a3.223,3.223,0,0,0-1.792-5.478L60.1,15.135Z" transform="translate(654.298 2063.247)" fill="#1d1d1b"/>
      </g>
      <g transform="translate(-604.441 -2063.247)">
        <path id="star-solid-2" data-name="star-solid" d="M53.624,1.813a3.226,3.226,0,0,0-5.8,0L41.348,15.135,26.888,17.27A3.223,3.223,0,0,0,25.1,22.748L35.589,33.13,33.111,47.8a3.231,3.231,0,0,0,4.7,3.383l12.92-6.9,12.92,6.9a3.231,3.231,0,0,0,4.7-3.383L65.869,33.13,76.361,22.748a3.223,3.223,0,0,0-1.792-5.478L60.1,15.135Z" transform="translate(654.298 2063.247)" fill="#1d1d1b"/>
      </g>
      <g transform="translate(-530.441 -2063.247)">
        <path id="star-solid-3" data-name="star-solid" d="M53.624,1.813a3.226,3.226,0,0,0-5.8,0L41.348,15.135,26.888,17.27A3.223,3.223,0,0,0,25.1,22.748L35.589,33.13,33.111,47.8a3.231,3.231,0,0,0,4.7,3.383l12.92-6.9,12.92,6.9a3.231,3.231,0,0,0,4.7-3.383L65.869,33.13,76.361,22.748a3.223,3.223,0,0,0-1.792-5.478L60.1,15.135Z" transform="translate(654.298 2063.247)" fill="#1d1d1b"/>
      </g>
      <g transform="translate(-456.441 -2063.247)">
        <path id="star-solid-4" data-name="star-solid" d="M53.624,1.813a3.226,3.226,0,0,0-5.8,0L41.348,15.135,26.888,17.27A3.223,3.223,0,0,0,25.1,22.748L35.589,33.13,33.111,47.8a3.231,3.231,0,0,0,4.7,3.383l12.92-6.9,12.92,6.9a3.231,3.231,0,0,0,4.7-3.383L65.869,33.13,76.361,22.748a3.223,3.223,0,0,0-1.792-5.478L60.1,15.135Z" transform="translate(654.298 2063.247)" fill="#1d1d1b"/>
      </g>
    </g>
    <path id="star-solid-5" data-name="star-solid" d="M53.624,1.813a3.226,3.226,0,0,0-5.8,0L41.348,15.135,26.888,17.27A3.223,3.223,0,0,0,25.1,22.748L35.589,33.13,33.111,47.8a3.231,3.231,0,0,0,4.7,3.383l12.92-6.9,12.92,6.9a3.231,3.231,0,0,0,4.7-3.383L65.869,33.13,76.361,22.748a3.223,3.223,0,0,0-1.792-5.478L60.1,15.135Z" transform="translate(873.031 890.247)" fill="#4fc3ff"/>
    <g id="Mask_Group_1" data-name="Mask Group 1" clip-path="url(#clip-path-2)">
      <path id="star-solid-6" data-name="star-solid" d="M53.624,1.813a3.226,3.226,0,0,0-5.8,0L41.348,15.135,26.888,17.27A3.223,3.223,0,0,0,25.1,22.748L35.589,33.13,33.111,47.8a3.231,3.231,0,0,0,4.7,3.383l12.92-6.9,12.92,6.9a3.231,3.231,0,0,0,4.7-3.383L65.869,33.13,76.361,22.748a3.223,3.223,0,0,0-1.792-5.478L60.1,15.135Z" transform="translate(873.031 890.247)" fill="#1d1d1b"/>
    </g>
  </g>
</svg>
