<svg xmlns="http://www.w3.org/2000/svg" width="37" height="37" viewBox="0 0 37 37">
  <g id="Group_16304" data-name="Group 16304" transform="translate(0 0.355)">
    <g id="Ellipse_1" data-name="Ellipse 1" transform="translate(0 -0.355)" fill="none" stroke="#00e785" stroke-width="3">
      <circle cx="18.5" cy="18.5" r="18.5" stroke="none"/>
      <circle cx="18.5" cy="18.5" r="17" fill="none"/>
    </g>
    <g id="checkmark" transform="translate(8.707 10.221)">
      <path id="Path_346" data-name="Path 346" d="M18.966,3.676,7.3,15.327a1.3,1.3,0,0,1-1,.32,1.364,1.364,0,0,1-.924-.32L.339,10.294a1.184,1.184,0,0,1,0-1.659L2.017,6.957a1.128,1.128,0,0,1,.83-.339,1.128,1.128,0,0,1,.83.339L6.334,9.615,15.629.339a1.184,1.184,0,0,1,1.659,0L18.966,2a1.207,1.207,0,0,1,0,1.678Z" fill="#00e785"/>
    </g>
  </g>
</svg>
