<svg xmlns="http://www.w3.org/2000/svg" width="21.071" height="24.583" viewBox="0 0 21.071 24.583">
  <g id="timer" transform="translate(0 -0.526)">
    <path id="Path_272" data-name="Path 272" d="M14.048.526v2.36H7.024V.526ZM9.383,15.781V8.757h2.3v7.024Zm9.383-7.737a10.1,10.1,0,0,1,2.3,6.53A10.16,10.16,0,0,1,18,22.037a10.16,10.16,0,0,1-7.463,3.073,10.16,10.16,0,0,1-7.463-3.073A10.128,10.128,0,0,1,0,14.6,10.219,10.219,0,0,1,3.073,7.139a10.115,10.115,0,0,1,7.463-3.1A10.173,10.173,0,0,1,17.12,6.4l1.646-1.7a11.666,11.666,0,0,1,1.646,1.646ZM10.536,22.8a7.838,7.838,0,0,0,5.789-2.414,7.974,7.974,0,0,0,2.387-5.817,7.883,7.883,0,0,0-2.387-5.789A7.883,7.883,0,0,0,10.536,6.4,7.883,7.883,0,0,0,4.747,8.785,7.883,7.883,0,0,0,2.36,14.574,7.974,7.974,0,0,0,4.747,20.39,7.838,7.838,0,0,0,10.536,22.8Z" transform="translate(0 0)" fill="#f9b4ff"/>
  </g>
</svg>
