<svg id="Group_23778" data-name="Group 23778" xmlns="http://www.w3.org/2000/svg" width="329" height="150" viewBox="0 0 329 150">
  <rect id="Rectangle_6754" data-name="Rectangle 6754" width="329" height="150" fill="none"/>
  <path id="vedantu-logo" d="M315.786,61.469c-1.3,0-2.42,1.087-2.979,3.624l-.024.118c-1.11,5.217-2.25,10.57-7.242,10.391-3.168,0-4.1-4.529-3.913-5.617l.559-28.446a5.12,5.12,0,0,0-4.844-5.436h-.932c-1.677,0-3.912.362-3.912,1.268a1.465,1.465,0,0,0,.317.8c.373.591.927,1.468.8,3.915l-.373,17.031c0,8.516-5.589,16.307-10.433,16.126,0,0-10.806,3.261-4.471-32.613.105-.513.271-1.065.438-1.623.719-2.4,1.477-4.934-2.3-5.08-5.311-.148-5.8,1.508-6.3,3.2h0a8.082,8.082,0,0,1-.4,1.144,225.824,225.824,0,0,0-2.049,25.185V66c-1.49,4.348-3.726,8.7-7.452,8.516-2.608,0-4.285-1.812-4.1-5.617l.559-37.143c6.521.181,13.042.181,23.1.181,3.167,0,4.658-11.6.932-8.153-8.384.181-16.4.181-23.848.181l.186-11.415c0-2.9-2.608-5.436-6.707-5.436-1.677,0-3.913.362-4.1,1.268a1.149,1.149,0,0,0,.288.881,5.635,5.635,0,0,1,.83,3.83l-.186,10.69c-6.707-.181-11.179-.544-11.179-.544-3.54,0-1.491,8.153,2.422,8.153,2.795.181,5.776.363,8.57.363L246.48,63.1c-1.3,5.073-3.726,11.415-8.2,11.233-3.167,0-3.167-4.529-3.167-5.617l.372-22.648c.186-5.617-1.863-12.321-10.061-12.321-6.148-.181-10.62,5.073-14.159,11.777V40.089c0-2.9-2.608-5.436-6.707-5.436-1.677,0-3.167.725-3.354,1.993h0a26.3,26.3,0,0,1,.373,3.8l-.373,18.662-.559,1.631c-1.118,5.254-3.54,13.045-8.57,12.864-2.981,0-4.285-2.9-4.1-5.617l.373-17.575c0-2.9-2.608-5.436-6.707-5.436-1.677,0-3.354.725-3.354,1.993a13.211,13.211,0,0,1,.372,3.8l-.186,16.307c-1.491,3.442-3.726,6.16-7.08,6.16-4.285,0-7.08-3.8-6.894-10.146.373-17.394,11.551-22.648,20.867-22.648a12.145,12.145,0,0,1,1.907.192,10.661,10.661,0,0,0,1.633.171c1.118,0,1.677-.725,1.677-2.718a5.294,5.294,0,0,0-5.217-5.254H185c-15.278-.181-29.81,9.422-30.182,29.714A13.339,13.339,0,0,0,155,65.274c-1.491,3.986-3.54,7.429-7.08,7.429a4.174,4.174,0,0,1-4.1-3.261l.932-56.53c0-5.254-2.422-7.791-6.521-7.791-1.677,0-3.913.362-4.1,1.268a1.147,1.147,0,0,0,.287.881,5.635,5.635,0,0,1,.83,3.83l-.372,21.38c-13.6,1.631-25.338,9.784-25.711,28.265V63.28c-2.422,4.892-6.521,8.878-13.414,8.7A11.76,11.76,0,0,1,84.95,65.636c11.365-6.523,18.817-13.227,19-21.38.186-7.247-4.1-12.321-10.992-12.5-9.5-.181-19.749,9.24-19.935,24.641a26.872,26.872,0,0,0,1.118,7.61A83.21,83.21,0,0,1,52.9,75.782c2.068-9.193,4.106-17.987,6.139-26.756h0c3.1-13.352,6.176-26.643,9.325-41.188a28.3,28.3,0,0,1,1.761-4.285c.646-1.311.934-1.9.288-2.419C67.809-1.04,60.17-.315,59.053,5.3c-2.608,13.408-6.521,30.439-9.688,43.484a22.731,22.731,0,0,0-14.532,3.261c-3.511-5.366-7.67-11.939-11.9-18.617C19.314,27.7,15.643,21.9,12.289,16.716c-2.795-4.348-10.433-2.9-12.11,0-.395.672-.11.937.6,1.6a15.378,15.378,0,0,1,2.749,3.289c5.071,7.4,9.641,14.563,14.136,21.613h0c8.056,12.633,15.875,24.894,25.92,37.454a5.038,5.038,0,0,0,5.589,1.631v.181l2.608-1.268-2.422,1.268c7.08-1.087,16.022-4.892,27.574-11.958A19.9,19.9,0,0,0,95.01,80.674a22.453,22.453,0,0,0,17.513-6.7,14.331,14.331,0,0,0,12.855,7.066,16.192,16.192,0,0,0,11.179-4.529,11.182,11.182,0,0,0,9.316,4.892,15.052,15.052,0,0,0,12.11-6.16,13.769,13.769,0,0,0,11.737,6.523,14.477,14.477,0,0,0,10.806-4.711,11,11,0,0,0,9.5,5.073,14.682,14.682,0,0,0,11.179-5.073c0,4.348,3.354,5.254,5.962,5.254,3.54,0,3.54-2.9,3.54-5.073l.372-17.756c1.118-9.6,8.943-17.394,12.483-17.394,2.422,0,2.608,3.261,2.422,6.885l-.373,22.1c-.186,6.16,3.726,11.415,10.247,11.6A15.167,15.167,0,0,0,247.6,77.051a9.958,9.958,0,0,0,9.874,5.979,14.888,14.888,0,0,0,12.11-5.979,11.765,11.765,0,0,0,10.62,6.523c5.4,0,9.5-3.442,12.669-8.516a9.853,9.853,0,0,0,10.061,8.7c10.8.181,14.532-8.335,16.955-16.307a1.6,1.6,0,0,0,.185-.906C320.073,64.187,317.838,61.469,315.786,61.469ZM92.03,39.907c1.677,0,2.608,1.631,2.608,4.349-.186,7.247-5.217,10.871-10.806,14.314a8.542,8.542,0,0,0-.093-1.087,8.6,8.6,0,0,1-.093-1.087C83.46,51.141,85.882,39.907,92.03,39.907Zm35.585,33.518a8.542,8.542,0,0,0,7.266-4.711l.559-29.9c-8.2,1.449-15.836,6.885-16.022,22.1C119.231,69.62,123.329,73.425,127.615,73.425Z" transform="translate(4.43 32.879)" fill="#ff693d" fill-rule="evenodd"/>
</svg>
