<svg xmlns="http://www.w3.org/2000/svg" width="129" height="150" viewBox="0 0 129 150">
  <g id="Group_23762" data-name="Group 23762" transform="translate(-0.179 -0.212)">
    <rect id="Rectangle_6738" data-name="Rectangle 6738" width="129" height="150" transform="translate(0.179 0.212)" fill="none"/>
    <g id="Group_23756" data-name="Group 23756" transform="translate(9.16 26.746)">
      <path id="Path_55446" data-name="Path 55446" d="M0,51.209c3.176-.108,6.253-.229,9.331-.312,2.464-.066,3.968,1.279,4.758,3.478,1.04,2.9,1.9,5.859,3.011,8.728,2.776,7.191,5.637,14.35,8.488,21.512.525,1.32,1.137,2.606,1.747,3.89,1.259,2.648.85,5.207-.028,7.905-1.732,5.325-2.845,10.77-1.907,16.427a2.886,2.886,0,0,1-.158.535,13.761,13.761,0,0,1-1.354-2.091C20.969,104,18.094,96.708,15.2,89.419c-1.782-4.491-3.5-9.011-5.379-13.461-1.919-4.539-4-9.012-6.019-13.507C2.2,58.888.526,55.351,0,51.209" transform="translate(0 -30.595)" fill="#cf1b21"/>
      <path id="Path_55447" data-name="Path 55447" d="M72.5,100.381a12.808,12.808,0,0,1-2.387-5.109,55.276,55.276,0,0,1-2.689-15.431,29.17,29.17,0,0,1,6.922-19.155,124.545,124.545,0,0,1,11.844-12.1,60.778,60.778,0,0,0,16.831-25.612,49.6,49.6,0,0,0,2.527-13.147,35.571,35.571,0,0,0-.6-9.008A5.012,5.012,0,0,1,104.942,0a5.393,5.393,0,0,1,1.228,3.41c.42,5.159.938,10.318,1.1,15.487a40.293,40.293,0,0,1-4.012,19.792,47.676,47.676,0,0,1-8.328,11.374C91.026,54.143,87,58.112,83.146,62.239A41.592,41.592,0,0,0,72.3,85.711,47.479,47.479,0,0,0,72.494,99.7a5.6,5.6,0,0,1,0,.683" transform="translate(-40.531 0.001)" fill="#3d4997"/>
      <path id="Path_55448" data-name="Path 55448" d="M166.6,158.917a32.331,32.331,0,0,1,3.507-1.238,2.736,2.736,0,0,1,3.42,2.335,11.784,11.784,0,0,1-.46,5.206c-.615,2.268-1.219,4.539-1.8,6.816-.484,1.905-1.218,2.46-3.19,2.317-.424-.031-.846-.081-1.42-.138.12-.81.177-1.558.348-2.279.566-2.383,1.21-4.747,1.743-7.136a7.257,7.257,0,0,0,.123-2.46c-.132-1.025-.853-1.279-1.75-.74a3.762,3.762,0,0,0-1.671,2.714c-.439,2.306-.723,4.645-1.227,6.936-.617,2.8-2.316,3.744-4.971,2.819.306-1.528.611-3.077.926-4.625q1.061-5.206,2.128-10.412c.223-1.093.465-1.252,1.6-1.143a7.142,7.142,0,0,0,1.488-.039c1.393-.161,1.419-.146,1.2,1.066" transform="translate(-95.737 -94.738)" fill="#3c4997"/>
      <path id="Path_55449" data-name="Path 55449" d="M114.725,165.929c-1.611-.085-2.933-.185-4.255-.212a9.715,9.715,0,0,0-1.971.183,2.529,2.529,0,0,0-2.226,3.068,1.667,1.667,0,0,0,.886,1.144c.434.14,1.013-.158,1.525-.285a.386.386,0,0,0,.2-.216c1.018-2.351,2.974-2.291,5.092-1.958a1.545,1.545,0,0,1-.049.547,10.663,10.663,0,0,1-6.081,5.667,4.274,4.274,0,0,1-5.835-3.533c-.47-4.845,1.795-11.209,7.026-13.811a4.3,4.3,0,0,1,6.347,3.825,45.656,45.656,0,0,1-.657,5.58m-7.575-2.8a9.682,9.682,0,0,1,1.575-.245c.552.008,1.1.211,1.654.211.233,0,.643-.281.667-.473a4.513,4.513,0,0,0-.068-1.661c-.243-.936-.891-1.172-1.755-.727a4.425,4.425,0,0,0-2.072,2.9" transform="translate(-61.288 -93.795)" fill="#3c4997"/>
      <path id="Path_55450" data-name="Path 55450" d="M253.977,217.527c1.293,1.192,1.06,2.827.942,4.407-.1,1.381-.323,2.754-.5,4.21h-3.854c.177-1.168.357-2.29.514-3.415a7.743,7.743,0,0,0,.108-1.384c-.072-1.713-1.261-2.613-3.356-2.482l-1.494,7.3h-3.551l3.667-17.289c2.341,0,4.665-.149,6.962.037,3.054.247,4.2,2.389,2.825,5.135a35.848,35.848,0,0,1-2.263,3.483m-5.4-1.6a6.664,6.664,0,0,0,3.971-1.359c.972-.765.939-1.856-.17-2.379a19.772,19.772,0,0,0-3.01-.88l-.791,4.618" transform="translate(-145.953 -125.533)" fill="#cf1b21"/>
      <path id="Path_55451" data-name="Path 55451" d="M163.592,226.377h-3.635q-.934-5.5-1.869-10.985l-.3-.042a4.548,4.548,0,0,0-.3.81c-.42,2.448-.836,4.9-1.224,7.35-.294,1.864-1.547,2.9-3.677,2.844.239-1.208.455-2.4.71-3.574.86-3.977,1.761-7.945,2.584-11.93a1.419,1.419,0,0,1,1.482-1.334c.785-.051,1.563-.216,2.482-.351.51,3.727,1.012,7.4,1.514,11.067l.379-.01c.031-.327.082-.654.089-.982a20.414,20.414,0,0,1,.982-7.048,4.084,4.084,0,0,1,4.058-2.97c-1.09,5.7-2.174,11.374-3.278,17.154" transform="translate(-91.731 -125.742)" fill="#cf1b21"/>
      <path id="Path_55452" data-name="Path 55452" d="M103.365,213.649v-2.956a3.49,3.49,0,0,0-3.163,2.387c-.69,2.474-1.151,5.015-1.63,7.542a1.407,1.407,0,0,0,1.039,1.712c.839.232,1.259-.39,1.638-1,.1-.168.2-.345.287-.522.947-1.832,1.741-2.21,3.864-1.809a3.216,3.216,0,0,1-.067.675,9.709,9.709,0,0,1-4.7,5.8c-3.24,1.784-5.685-.97-5.764-3.32a25.723,25.723,0,0,1,1.642-8.641,10.309,10.309,0,0,1,2.89-4.786,4.784,4.784,0,0,1,5.023-.841,3.764,3.764,0,0,1,2.576,3c.382,1.745-.443,2.735-2.242,2.753-.4,0-.79,0-1.392,0" transform="translate(-57.027 -124.766)" fill="#cf1b21"/>
      <path id="Path_55453" data-name="Path 55453" d="M128.02,223.641l5.327-.347a2.946,2.946,0,0,1-2.836,3.222,66.039,66.039,0,0,1-6.86.055c1.262-5.935,2.472-11.623,3.686-17.331h9.153c-.116.967-.223,1.866-.335,2.8-1.742-.113-3.4-.183-5.044-.345-.753-.074-.981.187-1.059.9-.114,1.045-.352,2.077-.56,3.245h4.981c.093.169.153.226.148.276-.254,2.581-.255,2.581-2.841,2.581-.631,0-1.268.05-1.893-.012-.855-.085-1.267.2-1.345,1.1-.109,1.245-.33,2.481-.521,3.856" transform="translate(-74.334 -125.786)" fill="#cf1b21"/>
      <path id="Path_55454" data-name="Path 55454" d="M225.785,215.792c-.44,1.882-.919,2.316-2.542,2.443-2.743.216-3.485.866-4.069,3.575-.116.54-.216,1.083-.348,1.748l5.532-.335-.348,3.1h-9.138c.467-2.294.881-4.562,1.4-6.805.722-3.128,1.508-6.241,2.312-9.349a1.084,1.084,0,0,1,.737-.675c2.615-.161,5.234-.255,7.852-.362a1.449,1.449,0,0,1,.367.08c-.386,2.318-2.062,3.5-6.105,2.441-.244,1.3-.487,2.592-.777,4.138h5.13Z" transform="translate(-129.172 -125.722)" fill="#cf1b21"/>
      <path id="Path_55455" data-name="Path 55455" d="M203.124,208.746c-.26,2.039-1.047,2.821-3.186,2.819-1.043,0-1.237.447-1.413,1.283-.8,3.817-1.682,7.618-2.486,11.435-.224,1.064-.715,1.632-1.853,1.582a11.748,11.748,0,0,0-1.585.152l2.939-14.762-3.495.279a2.8,2.8,0,0,1,2.6-2.775,28.371,28.371,0,0,1,4.451-.265c1.322,0,2.643.158,4.025.251" transform="translate(-115.449 -125.339)" fill="#cf1b21"/>
      <path id="Path_55456" data-name="Path 55456" d="M146.287,159c-.627,3.1-1.226,6.077-1.835,9.056-.431,2.11-.857,4.222-1.332,6.322-.061.272-.388.674-.611.687-1.187.069-2.379.032-3.755.032.17-.815.3-1.512.461-2.2,1-4.153,2.033-8.3,3.01-12.458a1.44,1.44,0,0,1,1.606-1.242c.783-.014,1.565-.122,2.456-.2" transform="translate(-83.414 -95.586)" fill="#3c4997"/>
      <path id="Path_55457" data-name="Path 55457" d="M149.58,145.145h3.883c-.1,1.143-.187,2.217-.291,3.454l-4.289.406.7-3.86" transform="translate(-89.503 -87.255)" fill="#3c4997"/>
      <path id="Path_55458" data-name="Path 55458" d="M114.99,169.137a4.425,4.425,0,0,1,2.072-2.9c.864-.444,1.512-.209,1.755.728a4.513,4.513,0,0,1,.068,1.661c-.024.192-.434.473-.667.473-.551,0-1.1-.2-1.654-.211a9.677,9.677,0,0,0-1.575.245" transform="translate(-69.128 -99.808)" fill="#fff"/>
      <path id="Path_55459" data-name="Path 55459" d="M257.308,219.677l.791-4.618a19.753,19.753,0,0,1,3.01.88c1.109.523,1.142,1.614.17,2.379a6.664,6.664,0,0,1-3.971,1.359" transform="translate(-154.683 -129.284)" fill="#fff"/>
    </g>
  </g>
</svg>
