<svg xmlns="http://www.w3.org/2000/svg" xmlns:xlink="http://www.w3.org/1999/xlink" width="159" height="54" viewBox="0 0 159 54">
  <defs>
    <filter id="Path_1" x="63.564" y="10.021" width="51.813" height="38.794" filterUnits="userSpaceOnUse">
      <feOffset dy="3" input="SourceAlpha"/>
      <feGaussianBlur stdDeviation="3" result="blur"/>
      <feFlood flood-opacity="0.161"/>
      <feComposite operator="in" in2="blur"/>
      <feComposite in="SourceGraphic"/>
    </filter>
    <clipPath id="clip-path">
      <rect id="Rectangle_1" data-name="Rectangle 1" width="159" height="54" fill="none"/>
    </clipPath>
    <filter id="Path_2" x="97.967" y="9.61" width="40.697" height="39.635" filterUnits="userSpaceOnUse">
      <feOffset dy="3" input="SourceAlpha"/>
      <feGaussianBlur stdDeviation="3" result="blur-2"/>
      <feFlood flood-opacity="0.161"/>
      <feComposite operator="in" in2="blur-2"/>
      <feComposite in="SourceGraphic"/>
    </filter>
    <filter id="Path_3" x="123.217" y="1.431" width="34.605" height="47.384" filterUnits="userSpaceOnUse">
      <feOffset dy="3" input="SourceAlpha"/>
      <feGaussianBlur stdDeviation="3" result="blur-3"/>
      <feFlood flood-opacity="0.161"/>
      <feComposite operator="in" in2="blur-3"/>
      <feComposite in="SourceGraphic"/>
    </filter>
    <filter id="Path_4" x="142.211" y="-0.314" width="25.789" height="49.129" filterUnits="userSpaceOnUse">
      <feOffset dy="3" input="SourceAlpha"/>
      <feGaussianBlur stdDeviation="3" result="blur-4"/>
      <feFlood flood-opacity="0.161"/>
      <feComposite operator="in" in2="blur-4"/>
      <feComposite in="SourceGraphic"/>
    </filter>
    <filter id="Path_5" x="-1.025" y="1.968" width="72.783" height="64.032" filterUnits="userSpaceOnUse">
      <feOffset dy="3" input="SourceAlpha"/>
      <feGaussianBlur stdDeviation="3" result="blur-5"/>
      <feFlood flood-opacity="0.161"/>
      <feComposite operator="in" in2="blur-5"/>
      <feComposite in="SourceGraphic"/>
    </filter>
    <filter id="Path_6" x="-9" y="-6" width="76.77" height="68.85" filterUnits="userSpaceOnUse">
      <feOffset dy="3" input="SourceAlpha"/>
      <feGaussianBlur stdDeviation="3" result="blur-6"/>
      <feFlood flood-opacity="0.161"/>
      <feComposite operator="in" in2="blur-6"/>
      <feComposite in="SourceGraphic"/>
    </filter>
  </defs>
  <g id="Group_16301" data-name="Group 16301" transform="translate(-978 -1687)">
    <g id="Vector_Smart_Object" data-name="Vector Smart Object" transform="translate(978 1687)">
      <g transform="matrix(1, 0, 0, 1, 0, 0)" filter="url(#Path_1)">
        <path id="Path_1-2" data-name="Path 1" d="M79.164,36.815l-6.6-20.794h7.152l3.917,15.1-2.128.045,4.6-15.14H92.75l4.64,15.14-2.128-.045,3.962-15.1h7.152l-6.6,20.794H93.093l-4.43-14.329h1.66L85.767,36.815h-6.6Z" fill="#4fc3ff"/>
      </g>
      <g id="Group_2" data-name="Group 2">
        <g id="Group_1" data-name="Group 1" clip-path="url(#clip-path)">
          <g transform="matrix(1, 0, 0, 1, 0, 0)" filter="url(#Path_2)">
            <path id="Path_2-2" data-name="Path 2" d="M116.976,37.243a9.522,9.522,0,0,1-5.173-1.4A9.986,9.986,0,0,1,108.269,32a11.712,11.712,0,0,1-1.3-5.589,11.565,11.565,0,0,1,1.3-5.549,9.922,9.922,0,0,1,3.553-3.847,9.48,9.48,0,0,1,5.108-1.4,8.988,8.988,0,0,1,3.618.7,7.073,7.073,0,0,1,2.661,1.956,5.53,5.53,0,0,1,1.256,2.912V31.634a5.942,5.942,0,0,1-1.3,2.931,6.963,6.963,0,0,1-2.661,1.976,8.8,8.8,0,0,1-3.534.7Zm1.575-6.589a3.822,3.822,0,0,0,2.935-1.189,4.31,4.31,0,0,0,1.106-3.061,4.446,4.446,0,0,0-.513-2.145,3.806,3.806,0,0,0-3.494-2.06,3.942,3.942,0,0,0-3.558,2.06,4.348,4.348,0,0,0-.533,2.145,4.681,4.681,0,0,0,.508,2.19,3.792,3.792,0,0,0,1.445,1.508,4.03,4.03,0,0,0,2.088.552Zm3.788,6.166V31.206l1.067-5.017-1.067-5.062v-5.1h7.326V36.82Z" fill="#4fc3ff"/>
          </g>
          <g transform="matrix(1, 0, 0, 1, 0, 0)" filter="url(#Path_3)">
            <path id="Path_3-2" data-name="Path 3" d="M132.217,16.021h16.606v6.166H132.217Zm4.555-8.59h7.451V36.815h-7.451Z" fill="#4fc3ff"/>
          </g>
          <g transform="matrix(1, 0, 0, 1, 0, 0)" filter="url(#Path_4)">
            <path id="Path_4-2" data-name="Path 4" d="M155.128,13.642a3.7,3.7,0,0,1-2.811-1.17,3.968,3.968,0,0,1-1.106-2.827,3.9,3.9,0,0,1,1.106-2.807,3.733,3.733,0,0,1,2.811-1.15,3.635,3.635,0,0,1,2.766,1.15A3.9,3.9,0,0,1,159,9.645a3.959,3.959,0,0,1-1.106,2.827,3.644,3.644,0,0,1-2.766,1.17m-3.788,2.379h7.451V36.815H151.34Z" fill="#4fc3ff"/>
          </g>
          <g transform="matrix(1, 0, 0, 1, 0, 0)" filter="url(#Path_5)">
            <path id="Path_5-2" data-name="Path 5" d="M18.221,42.966H36.726L47.785,54V42.966H52.51A10.269,10.269,0,0,0,62.757,32.733V18.2A10.269,10.269,0,0,0,52.51,7.968H18.221A10.269,10.269,0,0,0,7.974,18.2V32.733A10.269,10.269,0,0,0,18.221,42.966" fill="#4fc3ff"/>
          </g>
          <g transform="matrix(1, 0, 0, 1, 0, 0)" filter="url(#Path_6)">
            <path id="Path_6-2" data-name="Path 6" d="M41.815,50.85,29.923,38.985H12.24A12.247,12.247,0,0,1,0,26.761V12.223A12.247,12.247,0,0,1,12.24,0H46.529A12.247,12.247,0,0,1,58.77,12.223V26.756A12.247,12.247,0,0,1,46.529,38.98H41.8V35h4.725a8.258,8.258,0,0,0,8.253-8.242V12.223a8.258,8.258,0,0,0-8.253-8.242H12.24a8.258,8.258,0,0,0-8.253,8.242V26.756A8.258,8.258,0,0,0,12.24,35H31.573L41.849,45.251l-.035,5.594Z" fill="#1d1d1b"/>
          </g>
        </g>
      </g>
    </g>
  </g>
</svg>
